<?xml version="1.0" encoding="UTF-8"?>
<svg width="1024px" height="1024px" viewBox="0 0 1024 1024" version="1.1" xmlns="http://www.w3.org/2000/svg" xmlns:xlink="http://www.w3.org/1999/xlink">
    <!-- Generator: Sketch 63.1 (92452) - https://sketch.com -->
    <title>coding.blog fav</title>
    <desc>Created with Sketch.</desc>
    <g id="coding.blog-fav" stroke="none" stroke-width="1" fill="none" fill-rule="evenodd">
        <rect id="Rectangle" fill="#FFFFFF" x="0" y="0" width="1024" height="1024" rx="192"></rect>
        <path d="M538.081948,246.348452 L538.52402,246.445719 L538.52402,246.445719 L538.85529,246.526578 L538.85529,246.526578 L600.956012,263.165455 C602.767076,263.660918 604.526214,264.465865 606.146589,265.591976 C611.80881,269.527048 614.090389,276.211909 612.345003,282.123825 L538.2641,559.728905 C537.816127,561.562539 536.989561,563.335054 535.765607,564.944016 C530.70443,571.597248 520.764856,572.934442 513.564947,567.930724 C507.902727,563.995652 505.621148,557.310791 507.366534,551.398875 L577.145082,289.91439 L546.233523,281.631663 L462.305576,595.917544 L468.439004,634.645619 L493.907962,603.194573 C499.468987,596.327279 509.54413,595.268339 516.411424,600.829364 C523.278717,606.390389 524.337658,616.465532 518.776633,623.332826 L470.948283,682.395919 C466.887248,687.410879 460.418878,689.3283 454.55045,687.832105 L454.212574,687.741996 C448.224449,686.200133 443.421088,681.240355 442.392221,674.744345 L430.503202,599.680031 C430.418831,599.147339 430.361793,598.616628 430.331048,598.089327 C429.783912,595.705405 429.838457,593.220092 430.535776,590.858154 L519.361965,258.223717 L519.447729,257.889555 L519.447729,257.889555 L519.532157,257.586199 L519.627058,257.23399 C520.074771,255.398716 520.901697,253.624577 522.126677,252.014264 C525.828762,247.147643 532.141006,245.125338 538.081948,246.348452 Z M632.156421,656.157784 C640.992977,656.157784 648.156421,663.321228 648.156421,672.157784 C648.156421,680.99434 640.992977,688.157784 632.156421,688.157784 L528.156421,688.157784 C519.319865,688.157784 512.156421,680.99434 512.156421,672.157784 C512.156421,663.321228 519.319865,656.157784 528.156421,656.157784 L632.156421,656.157784 Z M699.234631,342.452157 L857.62655,500.844076 C863.874939,507.092464 863.874939,517.223104 857.62655,523.471493 L699.234631,681.863412 C692.986243,688.1118 682.855603,688.1118 676.607214,681.863412 C670.358826,675.615023 670.358826,665.484383 676.607214,659.235995 L823.686132,512.157077 L676.607214,365.079574 C670.358826,358.831185 670.358826,348.700545 676.607214,342.452157 C682.855603,336.203768 692.986243,336.203768 699.234631,342.452157 Z M347.705627,342.452157 C353.954016,348.700545 353.954016,358.831185 347.705627,365.079574 L200.62671,512.158491 L347.705627,659.235995 C353.954016,665.484383 353.954016,675.615023 347.705627,681.863412 C341.457239,688.1118 331.326599,688.1118 325.07821,681.863412 L166.686292,523.471493 C160.437903,517.223104 160.437903,507.092464 166.686292,500.844076 L325.07821,342.452157 C331.326599,336.203768 341.457239,336.203768 347.705627,342.452157 Z" id="Shape" fill="#363062"></path>
    </g>
</svg>