<?xml version="1.0" encoding="UTF-8"?>
<svg width="2480px" height="1024px" viewBox="0 0 2480 1024" version="1.1" xmlns="http://www.w3.org/2000/svg" xmlns:xlink="http://www.w3.org/1999/xlink">
    <title>csr-dark</title>
    <g id="csr-dark" stroke="none" stroke-width="1" fill="none" fill-rule="evenodd">
        <g id="laptop" transform="translate(1787.000000, 371.000000)">
            <path d="M340,440 L200,440 C195.581722,440 192,436.418278 192,432 L192,384 C192,379.581722 195.581722,376 200,376 L344,376 C348.418278,376 352,379.581722 352,384 L352,440 C352,444.418278 348.418278,448 344,448 L76,448 C67.163444,448 60,440.836556 60,432 L60,228 C60,225.790861 61.790861,224 64,224 L480,224 C482.209139,224 484,222.209139 484,220 L484,16 C484,7.163444 476.836556,-1.623249e-15 468,0 L76,0 C67.163444,1.623249e-15 60,7.163444 60,16 L60,204 C60,206.209139 61.790861,208 64,208 L460,208 C464.418278,208 468,204.418278 468,200 L468,24 C468,19.581722 464.418278,16 460,16 L84,16 C79.581722,16 76,19.581722 76,24 L76,192 L76,192" id="Path-15" stroke="#F2ECFD" stroke-width="4" stroke-linecap="round" stroke-linejoin="round" transform="translate(272.000000, 224.000000) scale(-1, 1) translate(-272.000000, -224.000000) "></path>
            <path d="M122.811183,336 L80,336 C77.790861,336 76,337.790861 76,340 L76,356 C76,358.209139 77.790861,360 80,360 L128,360 C130.209139,360 132,358.209139 132,356 L132,332 C132,329.790861 130.209139,328 128,328 L80,328 C77.790861,328 76,326.209139 76,324 L76,308 C76,305.790861 77.790861,304 80,304 L144,304 C146.209139,304 148,305.790861 148,308 L148,332 C148,334.209139 146.209139,336 144,336 C141.790861,336 140,337.790861 140,340 L140,356 C140,358.209139 141.790861,360 144,360 L168,360 C170.209139,360 172,358.209139 172,356 L172,332 C172,329.790861 170.209139,328 168,328 L160,328 C157.790861,328 156,326.209139 156,324 L156,308 C156,305.790861 157.790861,304 160,304 L184,304 C186.209139,304 188,305.790861 188,308 L188,332 C188,334.209139 186.209139,336 184,336 C181.790861,336 180,337.790861 180,340 L180,356 C180,358.209139 181.790861,360 184,360 L208,360 C210.209139,360 212,358.209139 212,356 L212,332 C212,329.790861 210.209139,328 208,328 L200,328 C197.790861,328 196,326.209139 196,324 L196,308 C196,305.790861 197.790861,304 200,304 L224,304 C226.209139,304 228,305.790861 228,308 L228,328 C228,330.209139 229.790861,332 232,332 L262,332 C263.104569,332 264,331.104569 264,330 C264,328.895431 263.104569,328 262,328 L240,328 C237.790861,328 236,326.209139 236,324 L236,308 C236,305.790861 237.790861,304 240,304 L264,304 C266.209139,304 268,305.790861 268,308 L268,328 C268,330.209139 269.790861,332 272,332 L302,332 C303.104569,332 304,331.104569 304,330 C304,328.895431 303.104569,328 302,328 L280,328 C277.790861,328 276,326.209139 276,324 L276,308 C276,305.790861 277.790861,304 280,304 L304,304 C306.209139,304 308,305.790861 308,308 L308,332 C308,334.209139 306.209139,336 304,336 L224,336 C221.790861,336 220,337.790861 220,340 L220,356.017817 C220,358.219986 221.779996,360.007946 223.982143,360.017777 L327.982143,360.482063 C330.19126,360.491925 331.990098,358.709077 331.99996,356.49996 C331.999987,356.494008 332,356.488055 332,356.482103 L332,332 C332,329.790861 330.209139,328 328,328 L320,328 C317.790861,328 316,326.209139 316,324 L316,308 C316,305.790861 317.790861,304 320,304 L344,304 C346.209139,304 348,305.790861 348,308 L348,332.5 C348,334.709139 346.209139,336.5 344,336.5 C341.790861,336.5 340,338.290861 340,340.5 L340,356.5 C340,358.709139 341.790861,360.5 344,360.5 L368,360.5 C370.209139,360.5 372,358.709139 372,356.5 L372,332 C372,329.790861 370.209139,328 368,328 L360,328 C357.790861,328 356,326.209139 356,324 L356,308 C356,305.790861 357.790861,304 360,304 L384,304 C386.209139,304 388,305.790861 388,308 L388,332 C388,334.209139 386.209139,336 384,336 C381.790861,336 380,337.790861 380,340 L380,356.5 C380,358.709139 381.790861,360.5 384,360.5 L408,360.5 C410.209139,360.5 412,358.709139 412,356.5 L412,332 C412,329.790861 410.209139,328 408,328 L400,328 C397.790861,328 396,326.209139 396,324 L396,308 C396,305.790861 397.790861,304 400,304 L424,304 C426.209139,304 428,305.790861 428,308 L428,328 C428,330.209139 429.790861,332 432,332 L462,332 C463.104569,332 464,332.895431 464,334 C464,335.104569 463.104569,336 462,336 L424,336 C421.790861,336 420,337.790861 420,340 L420,356.5 C420,358.709139 421.790861,360.5 424,360.5 L464,360.5 C466.209139,360.5 468,358.709139 468,356.5 L468,332 C468,329.790861 466.209139,328 464,328 L440,328 C437.790861,328 436,326.209139 436,324 L436,308 C436,305.790861 437.790861,304 440,304 L464,304 C466.209139,304 468,302.209139 468,300 L468,278 C468,276.895431 467.104569,276 466,276 C464.895431,276 464,276.895431 464,278 L464,292 C464,294.209139 462.209139,296 460,296 L424,296 C421.790861,296 420,294.209139 420,292 L420,276 C420,273.790861 421.790861,272 424,272 L464,272 C466.209139,272 468,270.209139 468,268 L468,264 L468,244 C468,241.790861 466.209139,240 464,240 L440,240 C437.790861,240 436,241.790861 436,244 L436,260 C436,262.209139 434.209139,264 432,264 C429.790861,264 428,262.209139 428,260 L428,244 C428,241.790861 426.209139,240 424,240 L400,240 C397.790861,240 396,241.790861 396,244 L396,260 C396,262.209139 397.790861,264 400,264 L408,264 C410.209139,264 412,265.790861 412,268 L412,272 L412,292 C412,294.209139 410.209139,296 408,296 L384,296 C381.790861,296 380,294.209139 380,292 L380,268 C380,265.790861 381.790861,264 384,264 C386.209139,264 388,262.209139 388,260 L388,244 C388,241.790861 386.209139,240 384,240 L360,240 C357.790861,240 356,241.790861 356,244 L356,268 C356,270.209139 357.790861,272 360,272 L368,272 C370.209139,272 372,273.790861 372,276 L372,292 C372,294.209139 370.209139,296 368,296 L344,296 C341.790861,296 340,294.209139 340,292 L340,268 C340,265.790861 341.790861,264 344,264 C346.209139,264 348,262.209139 348,260 L348,244 C348,241.790861 346.209139,240 344,240 L320,240 C317.790861,240 316,241.790861 316,244 L316,268 C316,270.209139 317.790861,272 320,272 L328,272 C330.209139,272 332,273.790861 332,276 L332,292 C332,294.209139 330.209139,296 328,296 L304,296 C301.790861,296 300,294.209139 300,292 L300,268 C300,265.790861 301.790861,264 304,264 C306.209139,264 308,262.209139 308,260 L308,244 C308,241.790861 306.209139,240 304,240 L280,240 C277.790861,240 276,241.790861 276,244 L276,268 C276,270.209139 277.790861,272 280,272 L288,272 C290.209139,272 292,273.790861 292,276 L292,292 C292,294.209139 290.209139,296 288,296 L264,296 C261.790861,296 260,294.209139 260,292 L260,268 C260,265.790861 261.790861,264 264,264 C266.209139,264 268,262.209139 268,260 L268,244 C268,241.790861 266.209139,240 264,240 L240,240 C237.790861,240 236,241.790861 236,244 L236,268 C236,270.209139 237.790861,272 240,272 L248,272 C250.209139,272 252,273.790861 252,276 L252,292 C252,294.209139 250.209139,296 248,296 L224,296 C221.790861,296 220,294.209139 220,292 L220,268 C220,265.790861 221.790861,264 224,264 C226.209139,264 228,262.209139 228,260 L228,244 C228,241.790861 226.209139,240 224,240 L200,240 C197.790861,240 196,241.790861 196,244 L196,268 C196,270.209139 197.790861,272 200,272 L208,272 C210.209139,272 212,273.790861 212,276 L212,292 C212,294.209139 210.209139,296 208,296 L184,296 C181.790861,296 180,294.209139 180,292 L180,268 C180,265.790861 181.790861,264 184,264 C186.209139,264 188,262.209139 188,260 L188,244 C188,241.790861 186.209139,240 184,240 L160,240 C157.790861,240 156,241.790861 156,244 L156,268 C156,270.209139 157.790861,272 160,272 L168,272 C170.209139,272 172,273.790861 172,276 L172,292 C172,294.209139 170.209139,296 168,296 L144,296 C141.790861,296 140,294.209139 140,292 L140,276 C140,273.790861 138.209139,272 136,272 C133.790861,272 132,273.790861 132,276 L132,292 C132,294.209139 130.209139,296 128,296 L80,296 C77.790861,296 76,294.209139 76,292 L76,276 C76,273.790861 77.790861,272 80,272 L116,272 C118.209139,272 120,270.209139 120,268 C120,265.790861 121.790861,264 124,264 L144,264 C146.209139,264 148,262.209139 148,260 L148,244 C148,241.790861 146.209139,240 144,240 L120,240 C117.790861,240 116,241.790861 116,244 L116,260 C116,262.209139 114.209139,264 112,264 L80,264 C77.790861,264 76,262.209139 76,260 L76,244 C76,241.790861 77.790861,240 80,240 L104,240 C106.209139,240 108,241.790861 108,244 L108,259.482494 C108,259.826066 108.044265,260.168207 108.131702,260.500467" id="Path-16" stroke="#F2ECFD" stroke-width="4" stroke-linecap="round" stroke-linejoin="round"></path>
            <path d="M176,334 L132,334 C123.163444,334 116,341.163444 116,350 L116,432 C116,440.836556 108.836556,448 100,448 L0,448 L0,448" id="Path-17" stroke="#F2ECFD" stroke-width="4" stroke-linecap="round" stroke-linejoin="round" transform="translate(88.000000, 391.000000) scale(-1, 1) translate(-88.000000, -391.000000) "></path>
            <path d="M275.489243,80.0437212 L275.544478,80.0559255 L275.544478,80.0559255 L275.585868,80.0660711 L275.585868,80.0660711 L283.34499,82.1537959 C283.571272,82.215963 283.791066,82.3169617 283.993523,82.458258 C284.700984,82.952002 284.986054,83.7907695 284.767978,84.5325536 L275.512002,119.36441 C275.45603,119.594481 275.352756,119.816884 275.19983,120.018764 C274.567465,120.853563 273.325574,121.021345 272.425987,120.393515 C271.718526,119.899771 271.433456,119.061003 271.651532,118.319219 L280.369954,85.5100567 L276.507735,84.4708007 L266.021428,123.905096 L266.787764,128.764412 L269.969962,124.818165 C270.664779,123.956507 271.923609,123.823639 272.781638,124.521396 C273.639666,125.219152 273.771974,126.483308 273.077157,127.344965 L267.101284,134.755771 C266.593881,135.385011 265.785696,135.625595 265.05247,135.437864 L265.010255,135.426558 C264.262073,135.233096 263.661922,134.610779 263.533371,133.795707 L262.047907,124.377186 C262.037366,124.310347 262.030239,124.243758 262.026398,124.177596 C261.958036,123.878479 261.964851,123.56664 262.051977,123.270281 L273.150291,81.5337426 L273.161006,81.4918144 L273.161006,81.4918144 L273.171555,81.4537516 L273.183412,81.409559 C273.239352,81.1792822 273.342671,80.9566762 273.495725,80.754626 C273.958279,80.1439979 274.746957,79.8902538 275.489243,80.0437212 Z M287.243299,131.463601 C288.347375,131.463601 289.242406,132.362418 289.242406,133.471165 C289.242406,134.579911 288.347375,135.478728 287.243299,135.478728 L274.249107,135.478728 C273.14503,135.478728 272.25,134.579911 272.25,133.471165 C272.25,132.362418 273.14503,131.463601 274.249107,131.463601 L287.243299,131.463601 Z M295.62433,92.1021118 L315.414475,111.975972 C316.195175,112.759974 316.195175,114.031093 315.414475,114.815095 L295.62433,134.688956 C294.84363,135.472958 293.577866,135.472958 292.797166,134.688956 C292.016467,133.904954 292.016467,132.633835 292.797166,131.849833 L311.173818,113.395445 L292.797166,94.9412347 C292.016467,94.1572326 292.016467,92.8861139 292.797166,92.1021118 C293.577866,91.3181096 294.84363,91.3181096 295.62433,92.1021118 Z M251.702834,92.1021118 C252.483533,92.8861139 252.483533,94.1572326 251.702834,94.9412347 L233.326182,113.395622 L251.702834,131.849833 C252.483533,132.633835 252.483533,133.904954 251.702834,134.688956 C250.922134,135.472958 249.65637,135.472958 248.87567,134.688956 L229.085525,114.815095 C228.304825,114.031093 228.304825,112.759974 229.085525,111.975972 L248.87567,92.1021118 C249.65637,91.3181096 250.922134,91.3181096 251.702834,92.1021118 Z" id="Shape" fill="#F2ECFD"></path>
        </g>
        <g id="server" transform="translate(209.000000, 403.000000)" stroke="#F2ECFD" stroke-linecap="round" stroke-width="4">
            <path d="M0,184.519222 L0,140 C0,135.581722 3.581722,132 8,132 L367.954416,132 C372.372694,132 375.954416,128.418278 375.954416,124 C375.954416,123.984849 375.954373,123.969697 375.954287,123.954546 L375.545196,51.9545462 C375.520194,47.5540797 371.945863,44 367.545325,44 L349,44 C344.581722,44 341,47.581722 341,52 L341,56 C341,60.418278 344.581722,64 349,64 L360.5,64 C364.918278,64 368.5,67.581722 368.5,72 L368.5,100 C368.5,104.418278 364.918278,108 360.5,108 L8,108 C3.581722,108 0,104.418278 0,100 L0,8 C0,3.581722 3.581722,0 8,0 L416,0 C420.418278,0 424,3.581722 424,8 L424,82 M424,77 L424,100 C424,104.418278 420.418278,108 416,108 L393.5,108 C389.081722,108 385.5,111.581722 385.5,116 L385.5,124 C385.5,128.418278 389.081722,132 393.5,132 L416,132 C420.418278,132 424,135.581722 424,140 L424,168 C424,172.418278 420.418278,176 416,176 L349,176 C344.581722,176 341,179.581722 341,184 L341,188 C341,192.418278 344.581722,196 349,196 L371,196 C373.761424,196 376,193.761424 376,191 C376,188.238576 378.238576,186 381,186 L416,186 C420.418278,186 424,189.581722 424,194 L424,232 C424,236.418278 420.418278,240 416,240 L16,240 C11.581722,240 8,236.418278 8,232 L8,215.5 C8,213.290861 6.209139,211.5 4,211.5 C1.790861,211.5 0,213.290861 0,215.5 L0,256 C0,260.418278 3.581722,264 8,264 L367.908574,264 C372.326852,264 375.908574,267.581722 375.908574,272 C375.908574,272.030302 375.908402,272.060603 375.908058,272.090903 L375.589876,300.090903 C375.540075,304.473439 371.973212,308 367.590393,308 L349,308 C344.581722,308 341,311.581722 341,316 L341,320 C341,324.418278 344.581722,328 349,328 L377.5,328 C381.918278,328 385.5,324.418278 385.5,320 L385.5,272 C385.5,267.581722 389.081722,264 393.5,264 L416,264 C420.418278,264 424,267.581722 424,272 L424,316.747223 C424,322.825389 428.927327,327.752716 435.005494,327.752716 C435.087003,327.752716 435.168511,327.751811 435.25,327.75 C441.509773,327.610894 446.518351,322.508575 446.54137,316.247299 L446.89373,220.405516 C446.952477,204.426235 459.926322,191.505427 475.905708,191.512135 L1465,191.500217 C1474.94113,191.49988 1483.0001,199.558658 1483.00022,209.499783 C1483.00022,209.499855 1483.00022,209.499928 1483,209.5 L1483,278 C1483,291.254834 1493.74517,302 1507,302 L1600,302 L1600,302" id="Shape"></path>
            <path d="M0,283 L0,364 C5.41083001e-16,368.418278 3.581722,372 8,372 L416,372 C420.418278,372 424,368.418278 424,364 L424,347 L424,347" id="Path-19"></path>
        </g>
        <text id="[2]-content-generati" font-family="PTMono-Regular, PT Mono" font-size="28" font-weight="normal" fill="#F2ECFD">
            <tspan x="692.2" y="644">[2] content generation code</tspan>
            <tspan x="919" y="676"></tspan>
            <tspan x="890.2" y="708" font-family="PTMono-Bold, PT Mono" font-size="48" font-weight="bold">—&gt;</tspan>
        </text>
        <text id="[3]-fetch-data-&lt;—&gt;" font-family="PTMono-Regular, PT Mono" font-size="28" font-weight="normal" fill="#F2ECFD">
            <tspan x="1447.4" y="426">[3] fetch data</tspan>
            <tspan x="1565" y="458"></tspan>
            <tspan x="1521.8" y="490" font-family="PTMono-Bold, PT Mono" font-size="48" font-weight="bold">&lt;—&gt;</tspan>
        </text>
        <text id="[1]-content-request-copy" font-family="PTMono-Regular, PT Mono" font-size="28" font-weight="normal" fill="#F2ECFD">
            <tspan x="717.9" y="479">[1] content request</tspan>
            <tspan x="877.5" y="511"></tspan>
            <tspan x="848.7" y="543" font-family="PTMono-Bold, PT Mono" font-size="48" font-weight="bold">&lt;—</tspan>
        </text>
        <text id="Server" font-family="PTMono-Bold, PT Mono" font-size="48" font-weight="bold" fill="#F2ECFD">
            <tspan x="345.6" y="892">Server</tspan>
        </text>
        <text id="API" font-family="PTMono-Bold, PT Mono" font-size="48" font-weight="bold" fill="#F2ECFD">
            <tspan x="1209.8" y="257">API</tspan>
        </text>
        <text id="Client" font-family="PTMono-Bold, PT Mono" font-size="48" font-weight="bold" fill="#F2ECFD">
            <tspan x="1967.6" y="908">Client</tspan>
        </text>
        <g id="cloud" transform="translate(950.000000, 51.000000)" stroke="#F2ECFD" stroke-linecap="round" stroke-width="4">
            <path d="M417.929917,67.8902124 C386.909874,26.6614749 337.568497,0 282,0 C206.787757,0 142.98345,48.8431813 120.575753,116.540871" id="Path"></path>
            <path d="M121.365946,116.386051 C118.277814,116.130382 115.154133,116 112,116 C50.144108,116 0,166.144108 0,228 C0,289.855892 50.144108,340 112,340 L263,340 C273.49341,340 282,348.50659 282,359 L282,374.5 L282,374.5" id="Path"></path>
            <path d="M303.5,340 L452,340 C522.692448,340 580,282.692448 580,212 C580,141.307552 522.692448,84 452,84 C431.413113,84 411.961369,88.860122 394.729546,97.4955863" id="Path"></path>
        </g>
        <path d="M1847,687.5 L1847,638.5 C1847,628.00659 1838.49341,619.5 1828,619.5 C1817.50659,619.5 1809,610.99341 1809,600.5 L1809,477 C1809,462.640597 1797.3594,451 1783,451 L1263,451 C1245.87917,451 1232,437.120827 1232,420 L1232,418 L1232,418" id="Path-2" stroke="#F2ECFD" stroke-width="4"></path>
    </g>
</svg>