<?xml version="1.0" encoding="UTF-8"?>
<svg width="2480px" height="1024px" viewBox="0 0 2480 1024" version="1.1" xmlns="http://www.w3.org/2000/svg" xmlns:xlink="http://www.w3.org/1999/xlink">
    <title>isomorphic</title>
    <g id="isomorphic" stroke="none" stroke-width="1" fill="none" fill-rule="evenodd">
        <g id="Group" transform="translate(209.000000, 51.000000)">
            <g id="laptop" transform="translate(1638.000000, 320.000000)">
                <path d="M280,440 L140,440 C135.581722,440 132,436.418278 132,432 L132,384 C132,379.581722 135.581722,376 140,376 L284,376 C288.418278,376 292,379.581722 292,384 L292,440 C292,444.418278 288.418278,448 284,448 L16,448 C7.163444,448 1.082166e-15,440.836556 0,432 L0,228 C-2.705415e-16,225.790861 1.790861,224 4,224 L420,224 C422.209139,224 424,222.209139 424,220 L424,16 C424,7.163444 416.836556,-1.623249e-15 408,0 L16,0 C7.163444,1.623249e-15 -1.082166e-15,7.163444 0,16 L0,204 C2.705415e-16,206.209139 1.790861,208 4,208 L400,208 C404.418278,208 408,204.418278 408,200 L408,24 C408,19.581722 404.418278,16 400,16 L24,16 C19.581722,16 16,19.581722 16,24 L16,192 L16,192" id="Path-15" stroke="#363062" stroke-width="4" stroke-linecap="round" stroke-linejoin="round" transform="translate(212.000000, 224.000000) scale(-1, 1) translate(-212.000000, -224.000000) "></path>
                <path d="M62.8111826,336 L20,336 C17.790861,336 16,337.790861 16,340 L16,356 C16,358.209139 17.790861,360 20,360 L68,360 C70.209139,360 72,358.209139 72,356 L72,332 C72,329.790861 70.209139,328 68,328 L20,328 C17.790861,328 16,326.209139 16,324 L16,308 C16,305.790861 17.790861,304 20,304 L84,304 C86.209139,304 88,305.790861 88,308 L88,332 C88,334.209139 86.209139,336 84,336 C81.790861,336 80,337.790861 80,340 L80,356 C80,358.209139 81.790861,360 84,360 L108,360 C110.209139,360 112,358.209139 112,356 L112,332 C112,329.790861 110.209139,328 108,328 L100,328 C97.790861,328 96,326.209139 96,324 L96,308 C96,305.790861 97.790861,304 100,304 L124,304 C126.209139,304 128,305.790861 128,308 L128,332 C128,334.209139 126.209139,336 124,336 C121.790861,336 120,337.790861 120,340 L120,356 C120,358.209139 121.790861,360 124,360 L148,360 C150.209139,360 152,358.209139 152,356 L152,332 C152,329.790861 150.209139,328 148,328 L140,328 C137.790861,328 136,326.209139 136,324 L136,308 C136,305.790861 137.790861,304 140,304 L164,304 C166.209139,304 168,305.790861 168,308 L168,328 C168,330.209139 169.790861,332 172,332 L202,332 C203.104569,332 204,331.104569 204,330 C204,328.895431 203.104569,328 202,328 L180,328 C177.790861,328 176,326.209139 176,324 L176,308 C176,305.790861 177.790861,304 180,304 L204,304 C206.209139,304 208,305.790861 208,308 L208,328 C208,330.209139 209.790861,332 212,332 L242,332 C243.104569,332 244,331.104569 244,330 C244,328.895431 243.104569,328 242,328 L220,328 C217.790861,328 216,326.209139 216,324 L216,308 C216,305.790861 217.790861,304 220,304 L244,304 C246.209139,304 248,305.790861 248,308 L248,332 C248,334.209139 246.209139,336 244,336 L164,336 C161.790861,336 160,337.790861 160,340 L160,356.017817 C160,358.219986 161.779996,360.007946 163.982143,360.017777 L267.982143,360.482063 C270.19126,360.491925 271.990098,358.709077 271.99996,356.49996 C271.999987,356.494008 272,356.488055 272,356.482103 L272,332 C272,329.790861 270.209139,328 268,328 L260,328 C257.790861,328 256,326.209139 256,324 L256,308 C256,305.790861 257.790861,304 260,304 L284,304 C286.209139,304 288,305.790861 288,308 L288,332.5 C288,334.709139 286.209139,336.5 284,336.5 C281.790861,336.5 280,338.290861 280,340.5 L280,356.5 C280,358.709139 281.790861,360.5 284,360.5 L308,360.5 C310.209139,360.5 312,358.709139 312,356.5 L312,332 C312,329.790861 310.209139,328 308,328 L300,328 C297.790861,328 296,326.209139 296,324 L296,308 C296,305.790861 297.790861,304 300,304 L324,304 C326.209139,304 328,305.790861 328,308 L328,332 C328,334.209139 326.209139,336 324,336 C321.790861,336 320,337.790861 320,340 L320,356.5 C320,358.709139 321.790861,360.5 324,360.5 L348,360.5 C350.209139,360.5 352,358.709139 352,356.5 L352,332 C352,329.790861 350.209139,328 348,328 L340,328 C337.790861,328 336,326.209139 336,324 L336,308 C336,305.790861 337.790861,304 340,304 L364,304 C366.209139,304 368,305.790861 368,308 L368,328 C368,330.209139 369.790861,332 372,332 L402,332 C403.104569,332 404,332.895431 404,334 C404,335.104569 403.104569,336 402,336 L364,336 C361.790861,336 360,337.790861 360,340 L360,356.5 C360,358.709139 361.790861,360.5 364,360.5 L404,360.5 C406.209139,360.5 408,358.709139 408,356.5 L408,332 C408,329.790861 406.209139,328 404,328 L380,328 C377.790861,328 376,326.209139 376,324 L376,308 C376,305.790861 377.790861,304 380,304 L404,304 C406.209139,304 408,302.209139 408,300 L408,278 C408,276.895431 407.104569,276 406,276 C404.895431,276 404,276.895431 404,278 L404,292 C404,294.209139 402.209139,296 400,296 L364,296 C361.790861,296 360,294.209139 360,292 L360,276 C360,273.790861 361.790861,272 364,272 L404,272 C406.209139,272 408,270.209139 408,268 L408,264 L408,244 C408,241.790861 406.209139,240 404,240 L380,240 C377.790861,240 376,241.790861 376,244 L376,260 C376,262.209139 374.209139,264 372,264 C369.790861,264 368,262.209139 368,260 L368,244 C368,241.790861 366.209139,240 364,240 L340,240 C337.790861,240 336,241.790861 336,244 L336,260 C336,262.209139 337.790861,264 340,264 L348,264 C350.209139,264 352,265.790861 352,268 L352,272 L352,292 C352,294.209139 350.209139,296 348,296 L324,296 C321.790861,296 320,294.209139 320,292 L320,268 C320,265.790861 321.790861,264 324,264 C326.209139,264 328,262.209139 328,260 L328,244 C328,241.790861 326.209139,240 324,240 L300,240 C297.790861,240 296,241.790861 296,244 L296,268 C296,270.209139 297.790861,272 300,272 L308,272 C310.209139,272 312,273.790861 312,276 L312,292 C312,294.209139 310.209139,296 308,296 L284,296 C281.790861,296 280,294.209139 280,292 L280,268 C280,265.790861 281.790861,264 284,264 C286.209139,264 288,262.209139 288,260 L288,244 C288,241.790861 286.209139,240 284,240 L260,240 C257.790861,240 256,241.790861 256,244 L256,268 C256,270.209139 257.790861,272 260,272 L268,272 C270.209139,272 272,273.790861 272,276 L272,292 C272,294.209139 270.209139,296 268,296 L244,296 C241.790861,296 240,294.209139 240,292 L240,268 C240,265.790861 241.790861,264 244,264 C246.209139,264 248,262.209139 248,260 L248,244 C248,241.790861 246.209139,240 244,240 L220,240 C217.790861,240 216,241.790861 216,244 L216,268 C216,270.209139 217.790861,272 220,272 L228,272 C230.209139,272 232,273.790861 232,276 L232,292 C232,294.209139 230.209139,296 228,296 L204,296 C201.790861,296 200,294.209139 200,292 L200,268 C200,265.790861 201.790861,264 204,264 C206.209139,264 208,262.209139 208,260 L208,244 C208,241.790861 206.209139,240 204,240 L180,240 C177.790861,240 176,241.790861 176,244 L176,268 C176,270.209139 177.790861,272 180,272 L188,272 C190.209139,272 192,273.790861 192,276 L192,292 C192,294.209139 190.209139,296 188,296 L164,296 C161.790861,296 160,294.209139 160,292 L160,268 C160,265.790861 161.790861,264 164,264 C166.209139,264 168,262.209139 168,260 L168,244 C168,241.790861 166.209139,240 164,240 L140,240 C137.790861,240 136,241.790861 136,244 L136,268 C136,270.209139 137.790861,272 140,272 L148,272 C150.209139,272 152,273.790861 152,276 L152,292 C152,294.209139 150.209139,296 148,296 L124,296 C121.790861,296 120,294.209139 120,292 L120,268 C120,265.790861 121.790861,264 124,264 C126.209139,264 128,262.209139 128,260 L128,244 C128,241.790861 126.209139,240 124,240 L100,240 C97.790861,240 96,241.790861 96,244 L96,268 C96,270.209139 97.790861,272 100,272 L108,272 C110.209139,272 112,273.790861 112,276 L112,292 C112,294.209139 110.209139,296 108,296 L84,296 C81.790861,296 80,294.209139 80,292 L80,276 C80,273.790861 78.209139,272 76,272 C73.790861,272 72,273.790861 72,276 L72,292 C72,294.209139 70.209139,296 68,296 L20,296 C17.790861,296 16,294.209139 16,292 L16,276 C16,273.790861 17.790861,272 20,272 L56,272 C58.209139,272 60,270.209139 60,268 C60,265.790861 61.790861,264 64,264 L84,264 C86.209139,264 88,262.209139 88,260 L88,244 C88,241.790861 86.209139,240 84,240 L60,240 C57.790861,240 56,241.790861 56,244 L56,260 C56,262.209139 54.209139,264 52,264 L20,264 C17.790861,264 16,262.209139 16,260 L16,244 C16,241.790861 17.790861,240 20,240 L44,240 C46.209139,240 48,241.790861 48,244 L48,259.482494 C48,259.826066 48.044265,260.168207 48.1317019,260.500467" id="Path-16" stroke="#363062" stroke-width="4" stroke-linecap="round" stroke-linejoin="round"></path>
                <path d="M215.489243,80.0437212 L215.544478,80.0559255 L215.544478,80.0559255 L215.585868,80.0660711 L215.585868,80.0660711 L223.34499,82.1537959 C223.571272,82.215963 223.791066,82.3169617 223.993523,82.458258 C224.700984,82.952002 224.986054,83.7907695 224.767978,84.5325536 L215.512002,119.36441 C215.45603,119.594481 215.352756,119.816884 215.19983,120.018764 C214.567465,120.853563 213.325574,121.021345 212.425987,120.393515 C211.718526,119.899771 211.433456,119.061003 211.651532,118.319219 L220.369954,85.5100567 L216.507735,84.4708007 L206.021428,123.905096 L206.787764,128.764412 L209.969962,124.818165 C210.664779,123.956507 211.923609,123.823639 212.781638,124.521396 C213.639666,125.219152 213.771974,126.483308 213.077157,127.344965 L207.101284,134.755771 C206.593881,135.385011 205.785696,135.625595 205.05247,135.437864 L205.010255,135.426558 C204.262073,135.233096 203.661922,134.610779 203.533371,133.795707 L202.047907,124.377186 C202.037366,124.310347 202.030239,124.243758 202.026398,124.177596 C201.958036,123.878479 201.964851,123.56664 202.051977,123.270281 L213.150291,81.5337426 L213.161006,81.4918144 L213.161006,81.4918144 L213.171555,81.4537516 L213.183412,81.409559 C213.239352,81.1792822 213.342671,80.9566762 213.495725,80.754626 C213.958279,80.1439979 214.746957,79.8902538 215.489243,80.0437212 Z M227.243299,131.463601 C228.347375,131.463601 229.242406,132.362418 229.242406,133.471165 C229.242406,134.579911 228.347375,135.478728 227.243299,135.478728 L214.249107,135.478728 C213.14503,135.478728 212.25,134.579911 212.25,133.471165 C212.25,132.362418 213.14503,131.463601 214.249107,131.463601 L227.243299,131.463601 Z M235.62433,92.1021118 L255.414475,111.975972 C256.195175,112.759974 256.195175,114.031093 255.414475,114.815095 L235.62433,134.688956 C234.84363,135.472958 233.577866,135.472958 232.797166,134.688956 C232.016467,133.904954 232.016467,132.633835 232.797166,131.849833 L251.173818,113.395445 L232.797166,94.9412347 C232.016467,94.1572326 232.016467,92.8861139 232.797166,92.1021118 C233.577866,91.3181096 234.84363,91.3181096 235.62433,92.1021118 Z M191.702834,92.1021118 C192.483533,92.8861139 192.483533,94.1572326 191.702834,94.9412347 L173.326182,113.395622 L191.702834,131.849833 C192.483533,132.633835 192.483533,133.904954 191.702834,134.688956 C190.922134,135.472958 189.65637,135.472958 188.87567,134.688956 L169.085525,114.815095 C168.304825,114.031093 168.304825,112.759974 169.085525,111.975972 L188.87567,92.1021118 C189.65637,91.3181096 190.922134,91.3181096 191.702834,92.1021118 Z" id="Shape" fill="#363062"></path>
            </g>
            <path d="M1754,654 L1710,654 C1701.16344,654 1694,661.163444 1694,670 L1694,752 C1694,760.836556 1686.83656,768 1678,768 L1578,768 L1578,768" id="Path-17" stroke="#363062" stroke-width="4" stroke-linecap="round" stroke-linejoin="round" transform="translate(1666.000000, 711.000000) scale(-1, 1) translate(-1666.000000, -711.000000) "></path>
            <g id="server" transform="translate(0.000000, 352.000000)" stroke="#363062" stroke-linecap="round" stroke-width="4">
                <path d="M0,184.519222 L0,140 C0,135.581722 3.581722,132 8,132 L367.954416,132 C372.372694,132 375.954416,128.418278 375.954416,124 C375.954416,123.984849 375.954373,123.969697 375.954287,123.954546 L375.545196,51.9545462 C375.520194,47.5540797 371.945863,44 367.545325,44 L349,44 C344.581722,44 341,47.581722 341,52 L341,56 C341,60.418278 344.581722,64 349,64 L360.5,64 C364.918278,64 368.5,67.581722 368.5,72 L368.5,100 C368.5,104.418278 364.918278,108 360.5,108 L8,108 C3.581722,108 0,104.418278 0,100 L0,8 C0,3.581722 3.581722,0 8,0 L416,0 C420.418278,0 424,3.581722 424,8 L424,36.5 C423.98665,45.336556 431.150094,52.5 439.98665,52.5 C439.991102,52.5 439.995554,52.4999981 439.999994,52.4866444 L1003.00001,52.0166945 C1014.03917,51.9907784 1022.9833,43.039176 1023,32 L1023,22.5 L1023,22.5" id="Shape"></path>
                <path d="M424,77 L424,100 C424,104.418278 420.418278,108 416,108 L393.5,108 C389.081722,108 385.5,111.581722 385.5,116 L385.5,124 C385.5,128.418278 389.081722,132 393.5,132 L416,132 C420.418278,132 424,135.581722 424,140 L424,168 C424,172.418278 420.418278,176 416,176 L349,176 C344.581722,176 341,179.581722 341,184 L341,188 C341,192.418278 344.581722,196 349,196 L371,196 C373.761424,196 376,193.761424 376,191 C376,188.238576 378.238576,186 381,186 L416,186 C420.418278,186 424,189.581722 424,194 L424,232 C424,236.418278 420.418278,240 416,240 L16,240 C11.581722,240 8,236.418278 8,232 L8,215.5 C8,213.290861 6.209139,211.5 4,211.5 C1.790861,211.5 0,213.290861 0,215.5 L0,256 C0,260.418278 3.581722,264 8,264 L367.908574,264 C372.326852,264 375.908574,267.581722 375.908574,272 C375.908574,272.030302 375.908402,272.060603 375.908058,272.090903 L375.589876,300.090903 C375.540075,304.473439 371.973212,308 367.590393,308 L349,308 C344.581722,308 341,311.581722 341,316 L341,320 C341,324.418278 344.581722,328 349,328 L377.5,328 C381.918278,328 385.5,324.418278 385.5,320 L385.5,272 C385.5,267.581722 389.081722,264 393.5,264 L416,264 C420.418278,264 424,267.581722 424,272 L424,316.747223 C424,322.825389 428.927327,327.752716 435.005494,327.752716 C435.087003,327.752716 435.168511,327.751811 435.25,327.75 C441.509773,327.610894 446.518351,322.508575 446.54137,316.247299 L446.89373,220.405516 C446.952477,204.426235 459.926322,191.505427 475.905708,191.512135 L1465,191.500217 C1474.94113,191.49988 1483.0001,199.558658 1483.00022,209.499783 C1483.00022,209.499855 1483.00022,209.499928 1483,209.5 L1483,278 C1483,291.254834 1493.74517,302 1507,302 L1600,302 L1600,302" id="Path"></path>
                <path d="M0,283 L0,364 C5.41083001e-16,368.418278 3.581722,372 8,372 L416,372 C420.418278,372 424,368.418278 424,364 L424,347 L424,347" id="Path-19"></path>
            </g>
            <text id="[3]-rendered-content" font-family="PTMono-Regular, PT Mono" font-size="28" font-weight="normal" fill="#3A3465">
                <tspan x="852.5" y="679">[3] rendered content </tspan>
                <tspan x="852.5" y="711" font-family="PTMono-Bold, PT Mono" font-weight="bold">+</tspan>
                <tspan x="869.3" y="711"> content generation </tspan>
                <tspan x="986.9" y="743">code</tspan>
                <tspan x="1020.5" y="775"></tspan>
                <tspan x="991.7" y="807" font-family="PTMono-Bold, PT Mono" font-size="48" font-weight="bold">—&gt;</tspan>
            </text>
            <text id="[1]-content-request" font-family="PTMono-Regular, PT Mono" font-size="28" font-weight="normal" fill="#3A3465">
                <tspan x="842.9" y="511">[1] content request</tspan>
                <tspan x="1002.5" y="543"></tspan>
                <tspan x="973.7" y="575" font-family="PTMono-Bold, PT Mono" font-size="48" font-weight="bold">&lt;—</tspan>
            </text>
            <text id="[2]-fetch-data-&lt;—&gt;" font-family="PTMono-Regular, PT Mono" font-size="28" font-weight="normal" fill="#3A3465">
                <tspan x="543.9" y="377">[2] fetch data</tspan>
                <tspan x="661.5" y="409"></tspan>
                <tspan x="618.3" y="441" font-family="PTMono-Bold, PT Mono" font-size="48" font-weight="bold">&lt;—&gt;</tspan>
            </text>
            <text id="[4]-fetch-data-&lt;—&gt;" font-family="PTMono-Regular, PT Mono" font-size="28" font-weight="normal" fill="#3A3465">
                <tspan x="1257.9" y="377">[4] fetch data</tspan>
                <tspan x="1375.5" y="409"></tspan>
                <tspan x="1332.3" y="441" font-family="PTMono-Bold, PT Mono" font-size="48" font-weight="bold">&lt;—&gt;</tspan>
            </text>
            <text id="Server" font-family="PTMono-Bold, PT Mono" font-size="48" font-weight="bold" fill="#3A3465">
                <tspan x="136.6" y="841">Server</tspan>
            </text>
            <text id="API" font-family="PTMono-Bold, PT Mono" font-size="48" font-weight="bold" fill="#3A3465">
                <tspan x="1000.8" y="206">API</tspan>
            </text>
            <text id="Client" font-family="PTMono-Bold, PT Mono" font-size="48" font-weight="bold" fill="#3A3465">
                <tspan x="1758.6" y="857">Client</tspan>
            </text>
            <g id="cloud" transform="translate(741.000000, 0.000000)" stroke="#363062" stroke-linecap="round" stroke-width="4">
                <path d="M417.929917,67.8902124 C386.909874,26.6614749 337.568497,0 282,0 C206.787757,0 142.98345,48.8431813 120.575753,116.540871" id="Path"></path>
                <path d="M121.365946,116.386051 C118.277814,116.130382 115.154133,116 112,116 C50.144108,116 0,166.144108 0,228 C0,289.855892 50.144108,340 112,340 L263,340 C273.49341,340 282,348.50659 282,359 L282,374.5 L282,374.5" id="Path"></path>
                <path d="M303.5,370 L303.5,357 C303.5,347.611159 311.111159,340 320.5,340 L452,340 L452,340 C522.692448,340 580,282.692448 580,212 C580,141.307552 522.692448,84 452,84 C431.413113,84 411.961369,88.860122 394.729546,97.4955863" id="Path"></path>
            </g>
            <path d="M1638,636.5 L1638,587.5 C1638,577.00659 1629.49341,568.5 1619,568.5 C1608.50659,568.5 1600,559.99341 1600,549.5 L1600,430.5 C1600,416.140597 1588.3594,404.5 1574,404.5 L1060.5,404.5 C1051.66344,404.5 1044.5,397.336556 1044.5,388.5 L1044.5,367 L1044.5,367" id="Path-2" stroke="#363062" stroke-width="4"></path>
        </g>
    </g>
</svg>