<?xml version="1.0" encoding="UTF-8"?>
<svg width="512px" height="512px" viewBox="0 0 512 512" version="1.1" xmlns="http://www.w3.org/2000/svg" xmlns:xlink="http://www.w3.org/1999/xlink">
    <title>github-light</title>
    <g id="github-light" stroke="none" stroke-width="1" fill="none" fill-rule="evenodd" stroke-linecap="round" stroke-linejoin="round">
        <path d="M175.090704,452.582235 C187.890704,454.822235 192.690704,447.142235 192.690704,440.422235 C192.690704,434.342235 192.370704,414.182235 192.370704,392.742235 C128.050704,404.582235 111.410704,377.062235 106.290704,362.662235 C103.410704,355.302235 90.9307042,332.582235 80.0507042,326.502235 C71.0907042,321.702235 58.2907042,309.862235 79.7307042,309.542235 C99.8907042,309.222235 114.290704,328.102235 119.090704,335.782235 C142.130704,374.502235 178.930704,363.622235 193.650704,356.902235 C195.890704,340.262235 202.610704,329.062235 209.970704,322.662235 C153.010704,316.262235 93.4907042,294.182235 93.4907042,196.262235 C93.4907042,168.422235 103.410704,145.382235 119.730704,127.462235 C117.170704,121.062235 108.210704,94.8222352 122.290704,59.6222352 C122.290704,59.6222352 143.730704,52.9022352 192.690704,85.8622352 C213.170704,80.1022352 234.930704,77.2222352 256.690704,77.2222352 C278.450704,77.2222352 300.210704,80.1022352 320.690704,85.8622352 C369.650704,52.5822352 391.090704,59.6222352 391.090704,59.6222352 C405.170704,94.8222352 396.210704,121.062235 393.650704,127.462235 C409.970704,145.382235 419.890704,168.102235 419.890704,196.262235 C419.890704,294.502235 360.050704,316.262235 303.090704,322.662235 C312.370704,330.662235 320.370704,346.022235 320.370704,370.022235 C320.370704,404.262235 320.050704,431.782235 320.050704,440.422235 C320.050704,447.142235 324.850704,455.142235 337.650704,452.582235" id="Path" stroke="#363062" stroke-width="24"></path>
    </g>
</svg>