<?xml version="1.0" encoding="UTF-8"?>
<svg width="513px" height="512px" viewBox="0 0 513 512" version="1.1" xmlns="http://www.w3.org/2000/svg" xmlns:xlink="http://www.w3.org/1999/xlink">
    <title>linkedin-light</title>
    <g id="linkedin-light" stroke="none" stroke-width="1" fill="none" fill-rule="evenodd" transform="translate(1.000000, 0.000000)" stroke-linecap="round" stroke-linejoin="round">
        <path d="M215,188 L171,188 C164,188 158.434513,194.143162 158.434513,201.587267 L158.434513,442.094576 C158.434513,449.538681 152.400419,455.572775 144.956314,455.572775 L87.5828272,455.572775 C80.1387225,455.572775 74.1046283,449.538681 74.1046283,442.094576 L74.1046283,201.587267 C74.1046283,194.143162 80.1387225,188.109068 87.5828272,188.109068 C100.657126,188.109068 90.9628505,188 97.5,188" id="Path" stroke="#363062" stroke-width="24" fill-rule="nonzero"></path>
        <path d="M77.8865527,149.630583 C67.9302741,139.754874 61.764356,126.063641 61.764356,110.93244 C61.764356,80.8303246 86.1674555,56.4272251 116.269571,56.4272251 C146.371686,56.4272251 170.774785,80.8303246 170.774785,110.93244 C170.774785,141.034555 146.373026,165.437654 116.269571,165.437654" id="Path" stroke="#363062" stroke-width="24" fill-rule="nonzero"></path>
        <path d="M208.814241,188.109068 L268.359037,188.109068 C275.202681,188.109068 280.751581,193.657969 280.751581,200.501613 L280.751581,221.48423 C294.820859,200.370262 315.729759,184.073382 360.248293,184.073382 C458.831079,184.073382 458.266988,276.174408 458.266988,326.779309 L458.266988,443.18023 C458.266988,450.023874 452.717906,455.572775 445.874262,455.572775 L384.308272,455.572775 C377.464628,455.572775 371.915728,450.023874 371.915728,443.18023 L371.915728,330.36867 C371.915728,313.539686 376.852105,256.623246 327.936,256.623246 C289.993047,256.623246 282.296963,295.580817 280.751581,313.063874 L280.751581,443.18023 C280.751581,450.023874 275.204021,455.572775 268.359037,455.572775 L208.814241,455.572775 C201.970597,455.572775 196.421696,450.023874 196.421696,443.18023 C196.421696,368.433461 196.421696,312.373385 196.421696,275" id="Path" stroke="#363062" stroke-width="24" fill-rule="nonzero"></path>
    </g>
</svg>