<?xml version="1.0" encoding="UTF-8"?>
<svg width="512px" height="512px" viewBox="0 0 512 512" version="1.1" xmlns="http://www.w3.org/2000/svg" xmlns:xlink="http://www.w3.org/1999/xlink">
    <title>twitter-light</title>
    <g id="twitter-light" stroke="none" stroke-width="1" fill="none" fill-rule="evenodd" stroke-linecap="round" stroke-linejoin="round">
        <path d="M88.8816019,445.2916 C113.993348,452.906746 140.631755,457 168.220566,457 C319.257347,457 441.692362,334.348144 441.692362,183.075054 C441.692362,179.298079 441.612905,175.54903 441.467931,171.811151 C446.930955,167.504981 480.718341,140.379178 489,122.940863 C489,122.940863 461.562211,134.362548 434.708502,137.053206 C434.655531,137.053206 434.590013,137.065773 434.537042,137.065773 C434.537042,137.065773 434.590013,137.039243 434.682016,136.973617 C437.156338,135.317613 471.749447,111.730019 476.433234,83.6254148 C476.433234,83.6254148 457.026187,94.001275 429.853256,103.078582 C425.354869,104.575409 420.645991,106.047103 415.790744,107.411282 C398.275334,88.6869803 373.378779,77 345.743044,77 C292.734012,77 249.779786,120.012835 249.779786,173.069212 C249.779786,180.55614 250.639875,187.843398 252.266654,194.840227 C244.859023,194.535835 132.053649,188.20085 55.3120375,95.112725 C55.3120375,95.112725 9.44717338,157.83006 82.6438833,222.322085 C82.6438833,222.322085 60.3931095,221.434042 41.1965547,209.945335 C41.1965547,209.945335 34.1457833,285.926066 117.039046,305.352704 C117.039046,305.352704 100.728039,311.541079 74.706538,307.12879 C74.706538,307.12879 89.2583378,368.521042 162.905305,374.258414 C162.905305,374.258414 104.668832,426.954547 22,414.590364 L22.0264857,414.597346" id="Path" stroke="#363062" stroke-width="24" fill-rule="nonzero"></path>
    </g>
</svg>