<?xml version="1.0" encoding="UTF-8"?>
<svg width="512px" height="512px" viewBox="0 0 512 512" version="1.1" xmlns="http://www.w3.org/2000/svg" xmlns:xlink="http://www.w3.org/1999/xlink">
    <title>twitter-dark</title>
    <g id="twitter-dark" stroke="none" stroke-width="1" fill="none" fill-rule="evenodd" stroke-linecap="round" stroke-linejoin="round">
        <path d="M89.0248173,434.2916 C114.190336,441.906746 140.885784,446 168.533672,446 C319.893872,446 442.591061,323.348144 442.591061,172.075054 C442.591061,168.298079 442.511434,164.54903 442.366149,160.811151 C447.840871,156.504981 481.700607,129.379178 490,111.940863 C490,111.940863 462.503458,123.362548 435.592246,126.053206 C435.539161,126.053206 435.473504,126.065773 435.420419,126.065773 C435.420419,126.065773 435.473504,126.039243 435.565704,125.973617 C438.045324,124.317613 472.712508,100.730019 477.406324,72.6254148 C477.406324,72.6254148 457.957721,83.001275 430.726603,92.078582 C426.218584,93.5754091 421.499622,95.0471029 416.633979,96.4112821 C399.081063,77.6869803 374.131196,66 346.436284,66 C293.313742,66 250.267537,109.012835 250.267537,162.069212 C250.267537,169.55614 251.129467,176.843398 252.75973,183.840227 C245.336237,183.535835 132.28931,177.20085 55.3833695,84.112725 C55.3833695,84.112725 9.42029366,146.83006 82.7737418,211.322085 C82.7737418,211.322085 60.4753217,210.434042 41.2376609,198.945335 C41.2376609,198.945335 34.1717914,274.926066 117.242556,294.352704 C117.242556,294.352704 100.896621,300.541079 74.8194,296.12879 C74.8194,296.12879 89.4023599,357.521042 163.207029,363.258414 C163.207029,363.258414 104.845853,415.954547 22,403.590364 L22.0265424,403.597346" id="Path" stroke="#F4EEFF" stroke-width="24" fill-rule="nonzero"></path>
    </g>
</svg>