<?xml version="1.0" encoding="UTF-8"?>
<svg width="1839px" height="1024px" viewBox="0 0 1839 1024" version="1.1" xmlns="http://www.w3.org/2000/svg" xmlns:xlink="http://www.w3.org/1999/xlink">
    <title>figure 404</title>
    <g id="figure-404" stroke="none" stroke-width="1" fill="none" fill-rule="evenodd">
        <text id="404" opacity="0" font-family="BlowBrush" font-size="512" font-weight="normal" letter-spacing="5.68888903" fill="#EEE8F9">
            <tspan x="504.694666" y="668">404</tspan>
        </text>
        <path d="M716,621.5 C723.333333,704.166667 737.833333,745.5 759.5,745.5 C781.166667,745.5 794.833333,656 800.5,477 L780.728483,462.457314 C761.173864,448.074165 733.661868,452.266469 719.278718,471.821088 C718.066625,473.468989 716.971056,475.1995 716,477 L716,477 L716,477 L630.5,489 L663.827963,414.202892 C682.685955,371.880376 670.001242,322.146403 633.176645,294.025802 L613.5,279 L613.5,279 L543.5,512.5 L537.990792,532.452266 C530.356551,560.100599 542.524213,589.396026 567.5,603.5 L567.5,603.5 L567.5,603.5 L706.346033,551.928616 C758.118602,532.698805 815.677403,559.079922 834.907214,610.85249 C836.347072,614.729032 837.545084,618.691154 838.494348,622.716035 L850,671.5 L850,671.5 L881.157224,682.75122 C933.102581,701.509265 990.419014,674.605633 1009.17706,622.660276 C1010.02607,620.309179 1010.78662,617.927074 1011.45712,615.518982 C1024.48571,568.726761 1031,526.553767 1031,489 C1031,394.5 1005,279 932.5,279 C860,279 827,383 835,489 C838.030691,529.156661 849.618586,563.931433 869.763684,593.324316 C895.520494,630.905018 943.423245,646.325157 986.26637,630.827122 L1218,547 L1218,547 C1236.66667,679.333333 1257.5,745.5 1280.5,745.5 C1303.5,745.5 1315,656 1315,477 L1299.8362,464.503903 C1282.35962,450.101906 1256.51692,452.594349 1242.11493,470.070929 C1240.34552,472.21807 1238.79925,474.539724 1237.5,477 L1237.5,477 L1237.5,477 L1163,489 L1195.08505,409.759657 C1214.34553,362.192108 1194.4724,307.766323 1149.09252,283.801669 L1140,279 L1140,279 L1068,521.5" id="Path-24" stroke-opacity="0.12" stroke="#000000" stroke-width="32" stroke-linecap="round" stroke-linejoin="round"></path>
        <path d="M941,580.158835 C963.832061,568.422422 982.155482,536.341468 990.039696,495" id="Path" stroke-opacity="0.12" stroke="#000000" stroke-width="32" stroke-linecap="round" stroke-linejoin="round"></path>
        <path d="M1780,64 L1428.6286,247.466653 M1351.93691,287.510796 L1268.83971,330.899543 M630.065464,664.432019 L525.276454,719.147026 M414.332781,777.075658 L273.542798,850.588376 M164.794887,907.370502 L64,960" id="Shape" stroke-opacity="0.05" stroke="#000000" stroke-width="32" stroke-linecap="round" stroke-linejoin="round"></path>
        <path d="M1524,64 L1418.08762,119.301568 M1360.22512,149.514157 L1209.43855,228.24654 M949.311513,364.070446 L905.186512,387.110073 M495.212229,601.175899 L64.5724736,826.032088" id="Shape" stroke-opacity="0.05" stroke="#000000" stroke-width="32" stroke-linecap="round" stroke-linejoin="round"></path>
        <path d="M1268,64 L1078.81638,162.781193 M1046.23059,179.795681 L980.948593,213.88232 M785.927447,315.711543 L744.593037,337.294078 M495.893014,467.151433 L302.301117,568.234382 M243.382089,598.998629 L65.7406452,691.753136" id="Shape" stroke-opacity="0.05" stroke="#000000" stroke-width="32" stroke-linecap="round" stroke-linejoin="round"></path>
        <path d="M1780.24437,197.541401 L1590.14955,296.798369 M1519.46949,333.703574 L1369.43461,412.043464 M681.280003,771.359626 L445.100299,894.679564 M390.029265,923.434603 L320,960" id="Shape" stroke-opacity="0.05" stroke="#000000" stroke-width="32" stroke-linecap="round" stroke-linejoin="round"></path>
        <path d="M1781.25583,330.68227 L1720.11686,362.605648 M1660.01688,393.986523 L1383.73345,538.246401 M1154.70764,657.830975 L948.054041,765.734021 M888.377414,796.893845 L701.763652,894.333198 M643.437207,924.788032 L576,960" id="Shape" stroke-opacity="0.05" stroke="#000000" stroke-width="32" stroke-linecap="round" stroke-linejoin="round"></path>
        <path d="M1780.4432,464.775579 L1402.89139,661.912187 M1205.85738,764.792417 L1062.23148,839.785894 M956.980301,894.742221 L832,960" id="Shape" stroke-opacity="0.05" stroke="#000000" stroke-width="32" stroke-linecap="round" stroke-linejoin="round"></path>
    </g>
</svg>