<?xml version="1.0" encoding="UTF-8"?>
<svg width="2480px" height="1024px" viewBox="0 0 2480 1024" version="1.1" xmlns="http://www.w3.org/2000/svg" xmlns:xlink="http://www.w3.org/1999/xlink">
    <title>cb-banner</title>
    <g id="cb-banner" stroke="none" stroke-width="1" fill="none" fill-rule="evenodd">
        <g id="guides" transform="translate(213.000000, 64.000000)"></g>
        <g id="objects" transform="translate(87.000000, 64.000000)">
            <g id="beer" transform="translate(0.000000, 292.000000)" stroke="#363062">
                <path d="M57,21.5 L57,36.5 C62.4441667,40.9794859 70.6615159,44.6511628 79.379845,44.6511628 C95.8199491,44.6511628 109.147287,34.6556595 109.147287,22.3255814 C109.147287,9.99550326 95.8199491,-8.52651283e-14 79.379845,-8.52651283e-14 C62.9397408,-8.52651283e-14 49.6124031,9.99550326 49.6124031,22.3255814" id="Path" stroke-width="4" stroke-linecap="round" stroke-linejoin="round"></path>
                <path d="M62.2306601,33.0774161 C66.3580026,36.6973711 72.5623141,39 79.5,39 C91.9264069,39 102,31.6126984 102,22.5 C102,13.3873016 91.9264069,6 79.5,6 C67.0735931,6 57,13.3873016 57,22.5" id="Path" stroke-width="4" stroke-linecap="round" stroke-linejoin="round"></path>
                <path d="M44.4672982,483.205546 C54.9735807,487.068515 66.651148,489 79.5,489 C100.404719,489 118.216937,483.827346 132.936655,473.482038 C139.338558,468.982653 143.145064,461.644851 143.136423,453.819971 L143.017712,346.512353 C143.012827,342.094076 139.427144,338.516317 135.008868,338.521199 C133.494162,338.52288 132.011056,338.95454 130.732035,339.765984 C115.77465,349.255328 98.697305,354 79.5,354 C60.3044268,354 43.228431,349.256184 28.2720126,339.768552 C24.5410854,337.401838 19.5979692,338.507745 17.2312504,342.238669 C16.4195497,343.518243 15.9879533,345.002035 15.9866946,346.517347 L15.8975463,453.826132 C15.8915246,461.084649 19.1708145,467.955948 24.8175351,472.516721 C26.3135065,473.724995 27.1092435,474.361163 27.2047462,474.425223" id="Path" stroke-width="4" stroke-linecap="round" stroke-linejoin="round"></path>
                <path d="M0,461.395349 C0,494.275557 35.5395671,520.930233 79.379845,520.930233 C123.220123,520.930233 158.75969,494.275557 158.75969,461.395349" id="Path" stroke-width="4"></path>
                <path d="" id="Path-19" stroke-width="1.24031008"></path>
                <path d="M49.6124031,21.7054264 C52.7131783,171.782946 3.19744231e-14,176.124031 3.19744231e-14,262.945736 C3.19744231e-14,320.826873 3.19744231e-14,386.976744 3.19744231e-14,461.395349" id="Path-20" stroke-width="4"></path>
                <path d="M158.891315,45.1278325 C156.483244,173.100712 109.242581,181.37443 109.242581,263.565891 C109.242581,321.447028 109.242581,387.596899 109.242581,462.015504" id="Path" stroke-width="4" stroke-linecap="round" stroke-linejoin="round" transform="translate(134.066948, 253.571668) scale(-1, 1) translate(-134.066948, -253.571668) "></path>
            </g>
            <g id="laptop" transform="translate(729.000000, 0.000000)">
                <path d="M560,880 L280,880 C271.163444,880 264,872.836556 264,864 L264,768 C264,759.163444 271.163444,752 280,752 L568,752 C576.836556,752 584,759.163444 584,768 L584,880 C584,888.836556 576.836556,896 568,896 L32,896 C14.326888,896 2.164332e-15,881.673112 0,864 L0,456 C-5.41083001e-16,451.581722 3.581722,448 8,448 L840,448 C844.418278,448 848,444.418278 848,440 L848,32 C848,14.326888 833.673112,-3.24649801e-15 816,0 L32,0 C14.326888,3.24649801e-15 -2.164332e-15,14.326888 0,32 L0,408 C5.41083001e-16,412.418278 3.581722,416 8,416 L800,416 C808.836556,416 816,408.836556 816,400 L816,48 C816,39.163444 808.836556,32 800,32 L48,32 C39.163444,32 32,39.163444 32,48 L32,384 L32,384" id="Path-15" stroke="#363062" stroke-width="4" stroke-linecap="round" stroke-linejoin="round"></path>
                <path d="M125.622365,672 L40,672 C35.581722,672 32,675.581722 32,680 L32,712 C32,716.418278 35.581722,720 40,720 L136,720 C140.418278,720 144,716.418278 144,712 L144,664 C144,659.581722 140.418278,656 136,656 L40,656 C35.581722,656 32,652.418278 32,648 L32,616 C32,611.581722 35.581722,608 40,608 L168,608 C172.418278,608 176,611.581722 176,616 L176,664 C176,668.418278 172.418278,672 168,672 C163.581722,672 160,675.581722 160,680 L160,712 C160,716.418278 163.581722,720 168,720 L216,720 C220.418278,720 224,716.418278 224,712 L224,664 C224,659.581722 220.418278,656 216,656 L200,656 C195.581722,656 192,652.418278 192,648 L192,616 C192,611.581722 195.581722,608 200,608 L248,608 C252.418278,608 256,611.581722 256,616 L256,664 C256,668.418278 252.418278,672 248,672 C243.581722,672 240,675.581722 240,680 L240,712 C240,716.418278 243.581722,720 248,720 L296,720 C300.418278,720 304,716.418278 304,712 L304,664 C304,659.581722 300.418278,656 296,656 L280,656 C275.581722,656 272,652.418278 272,648 L272,616 C272,611.581722 275.581722,608 280,608 L328,608 C332.418278,608 336,611.581722 336,616 L336,656 C336,660.418278 339.581722,664 344,664 L404,664 C406.209139,664 408,662.209139 408,660 C408,657.790861 406.209139,656 404,656 L360,656 C355.581722,656 352,652.418278 352,648 L352,616 C352,611.581722 355.581722,608 360,608 L408,608 C412.418278,608 416,611.581722 416,616 L416,656 C416,660.418278 419.581722,664 424,664 L484,664 C486.209139,664 488,662.209139 488,660 C488,657.790861 486.209139,656 484,656 L440,656 C435.581722,656 432,652.418278 432,648 L432,616 C432,611.581722 435.581722,608 440,608 L488,608 C492.418278,608 496,611.581722 496,616 L496,664 C496,668.418278 492.418278,672 488,672 L328,672 C323.581722,672 320,675.581722 320,680 L320,712.035635 C320,716.439972 323.559993,720.015893 327.964286,720.035555 L535.964286,720.964126 C540.38252,720.983851 543.980196,717.418154 543.99992,712.99992 C543.999973,712.988015 544,712.976111 544,712.964206 L544,664 C544,659.581722 540.418278,656 536,656 L520,656 C515.581722,656 512,652.418278 512,648 L512,616 C512,611.581722 515.581722,608 520,608 L568,608 C572.418278,608 576,611.581722 576,616 L576,665 C576,669.418278 572.418278,673 568,673 C563.581722,673 560,676.581722 560,681 L560,713 C560,717.418278 563.581722,721 568,721 L616,721 C620.418278,721 624,717.418278 624,713 L624,664 C624,659.581722 620.418278,656 616,656 L600,656 C595.581722,656 592,652.418278 592,648 L592,616 C592,611.581722 595.581722,608 600,608 L648,608 C652.418278,608 656,611.581722 656,616 L656,664 C656,668.418278 652.418278,672 648,672 C643.581722,672 640,675.581722 640,680 L640,713 C640,717.418278 643.581722,721 648,721 L696,721 C700.418278,721 704,717.418278 704,713 L704,664 C704,659.581722 700.418278,656 696,656 L680,656 C675.581722,656 672,652.418278 672,648 L672,616 C672,611.581722 675.581722,608 680,608 L728,608 C732.418278,608 736,611.581722 736,616 L736,656 C736,660.418278 739.581722,664 744,664 L804,664 C806.209139,664 808,665.790861 808,668 C808,670.209139 806.209139,672 804,672 L728,672 C723.581722,672 720,675.581722 720,680 L720,713 C720,717.418278 723.581722,721 728,721 L808,721 C812.418278,721 816,717.418278 816,713 L816,664 C816,659.581722 812.418278,656 808,656 L760,656 C755.581722,656 752,652.418278 752,648 L752,616 C752,611.581722 755.581722,608 760,608 L808,608 C812.418278,608 816,604.418278 816,600 L816,556 C816,553.790861 814.209139,552 812,552 C809.790861,552 808,553.790861 808,556 L808,584 C808,588.418278 804.418278,592 800,592 L728,592 C723.581722,592 720,588.418278 720,584 L720,552 C720,547.581722 723.581722,544 728,544 L808,544 C812.418278,544 816,540.418278 816,536 L816,528 L816,488 C816,483.581722 812.418278,480 808,480 L760,480 C755.581722,480 752,483.581722 752,488 L752,520 C752,524.418278 748.418278,528 744,528 C739.581722,528 736,524.418278 736,520 L736,488 C736,483.581722 732.418278,480 728,480 L680,480 C675.581722,480 672,483.581722 672,488 L672,520 C672,524.418278 675.581722,528 680,528 L696,528 C700.418278,528 704,531.581722 704,536 L704,544 L704,584 C704,588.418278 700.418278,592 696,592 L648,592 C643.581722,592 640,588.418278 640,584 L640,536 C640,531.581722 643.581722,528 648,528 C652.418278,528 656,524.418278 656,520 L656,488 C656,483.581722 652.418278,480 648,480 L600,480 C595.581722,480 592,483.581722 592,488 L592,536 C592,540.418278 595.581722,544 600,544 L616,544 C620.418278,544 624,547.581722 624,552 L624,584 C624,588.418278 620.418278,592 616,592 L568,592 C563.581722,592 560,588.418278 560,584 L560,536 C560,531.581722 563.581722,528 568,528 C572.418278,528 576,524.418278 576,520 L576,488 C576,483.581722 572.418278,480 568,480 L520,480 C515.581722,480 512,483.581722 512,488 L512,536 C512,540.418278 515.581722,544 520,544 L536,544 C540.418278,544 544,547.581722 544,552 L544,584 C544,588.418278 540.418278,592 536,592 L488,592 C483.581722,592 480,588.418278 480,584 L480,536 C480,531.581722 483.581722,528 488,528 C492.418278,528 496,524.418278 496,520 L496,488 C496,483.581722 492.418278,480 488,480 L440,480 C435.581722,480 432,483.581722 432,488 L432,536 C432,540.418278 435.581722,544 440,544 L456,544 C460.418278,544 464,547.581722 464,552 L464,584 C464,588.418278 460.418278,592 456,592 L408,592 C403.581722,592 400,588.418278 400,584 L400,536 C400,531.581722 403.581722,528 408,528 C412.418278,528 416,524.418278 416,520 L416,488 C416,483.581722 412.418278,480 408,480 L360,480 C355.581722,480 352,483.581722 352,488 L352,536 C352,540.418278 355.581722,544 360,544 L376,544 C380.418278,544 384,547.581722 384,552 L384,584 C384,588.418278 380.418278,592 376,592 L328,592 C323.581722,592 320,588.418278 320,584 L320,536 C320,531.581722 323.581722,528 328,528 C332.418278,528 336,524.418278 336,520 L336,488 C336,483.581722 332.418278,480 328,480 L280,480 C275.581722,480 272,483.581722 272,488 L272,536 C272,540.418278 275.581722,544 280,544 L296,544 C300.418278,544 304,547.581722 304,552 L304,584 C304,588.418278 300.418278,592 296,592 L248,592 C243.581722,592 240,588.418278 240,584 L240,536 C240,531.581722 243.581722,528 248,528 C252.418278,528 256,524.418278 256,520 L256,488 C256,483.581722 252.418278,480 248,480 L200,480 C195.581722,480 192,483.581722 192,488 L192,536 C192,540.418278 195.581722,544 200,544 L216,544 C220.418278,544 224,547.581722 224,552 L224,584 C224,588.418278 220.418278,592 216,592 L168,592 C163.581722,592 160,588.418278 160,584 L160,552 C160,547.581722 156.418278,544 152,544 C147.581722,544 144,547.581722 144,552 L144,584 C144,588.418278 140.418278,592 136,592 L40,592 C35.581722,592 32,588.418278 32,584 L32,552 C32,547.581722 35.581722,544 40,544 L112,544 C116.418278,544 120,540.418278 120,536 C120,531.581722 123.581722,528 128,528 L168,528 C172.418278,528 176,524.418278 176,520 L176,488 C176,483.581722 172.418278,480 168,480 L120,480 C115.581722,480 112,483.581722 112,488 L112,520 C112,524.418278 108.418278,528 104,528 L40,528 C35.581722,528 32,524.418278 32,520 L32,488 C32,483.581722 35.581722,480 40,480 L88,480 C92.418278,480 96,483.581722 96,488 L96,518.964988 C96,519.652132 96.08853,520.336414 96.2634037,521.000934" id="Path-16" stroke="#363062" stroke-width="4" stroke-linecap="round" stroke-linejoin="round"></path>
                <path d="M848,480 L848,864 C848,881.673112 833.673112,896 816,896 L616,896 L616,896" id="Path-17" stroke="#363062" stroke-width="4" stroke-linecap="round" stroke-linejoin="round"></path>
                <path d="M430.978486,160.087442 L431.088955,160.111851 L431.088955,160.111851 L431.171736,160.132142 L431.171736,160.132142 L446.689981,164.307592 C447.142544,164.431926 447.582133,164.633923 447.987045,164.916516 C449.401968,165.904004 449.972108,167.581539 449.535957,169.065107 L431.024004,238.728821 C430.912061,239.188963 430.705512,239.633767 430.39966,240.037529 C429.134931,241.707127 426.651147,242.042689 424.851974,240.787029 C423.437052,239.799541 422.866912,238.122006 423.303063,236.638438 L440.739907,171.020113 L433.01547,168.941601 L412.042856,247.810192 L413.575528,257.528824 L419.939923,249.636329 C421.329558,247.913014 423.847219,247.647278 425.563275,249.042791 C427.279332,250.438305 427.543949,252.966615 426.154314,254.689931 L414.202568,269.511542 C413.187762,270.770023 411.571392,271.251191 410.104941,270.875727 L410.020509,270.853115 C408.524147,270.466192 407.323843,269.221558 407.066741,267.591414 L404.095814,248.754371 C404.074731,248.620695 404.060478,248.487515 404.052795,248.355192 C403.916072,247.756957 403.929702,247.133279 404.103954,246.540562 L426.300581,163.067485 L426.322013,162.983629 L426.322013,162.983629 L426.34311,162.907503 L426.366825,162.819118 C426.478703,162.358564 426.685342,161.913352 426.99145,161.509252 C427.916558,160.287996 429.493915,159.780508 430.978486,160.087442 Z M454.486598,262.927203 C456.694751,262.927203 458.484812,264.724836 458.484812,266.942329 C458.484812,269.159822 456.694751,270.957455 454.486598,270.957455 L428.498213,270.957455 C426.290061,270.957455 424.5,269.159822 424.5,266.942329 C424.5,264.724836 426.290061,262.927203 428.498213,262.927203 L454.486598,262.927203 Z M471.24866,184.204224 L510.82895,223.951945 C512.39035,225.519949 512.39035,228.062186 510.82895,229.63019 L471.24866,269.377911 C469.68726,270.945916 467.155732,270.945916 465.594333,269.377911 C464.032933,267.809907 464.032933,265.26767 465.594333,263.699666 L502.347636,226.79089 L465.594333,189.882469 C464.032933,188.314465 464.032933,185.772228 465.594333,184.204224 C467.155732,182.636219 469.68726,182.636219 471.24866,184.204224 Z M383.405667,184.204224 C384.967067,185.772228 384.967067,188.314465 383.405667,189.882469 L346.652364,226.791245 L383.405667,263.699666 C384.967067,265.26767 384.967067,267.809907 383.405667,269.377911 C381.844268,270.945916 379.31274,270.945916 377.75134,269.377911 L338.17105,229.63019 C336.60965,228.062186 336.60965,225.519949 338.17105,223.951945 L377.75134,184.204224 C379.31274,182.636219 381.844268,182.636219 383.405667,184.204224 Z" id="Shape" fill="#363062"></path>
            </g>
            <g id="cup" transform="translate(1705.000000, 448.000000)" stroke="#363062" stroke-linecap="round" stroke-linejoin="round" stroke-width="4">
                <path d="M17.9196475,145.016949 C40.2379499,173.149668 81.1838209,192 128,192 C198.692448,192 256,149.019336 256,96 C256,42.980664 198.692448,0 128,0 C57.307552,0 2.27373675e-13,42.980664 2.27373675e-13,96" id="Path"></path>
                <path d="M177.482452,176.85117 C163.867282,168.802499 146.68143,164 128,164 C111.23852,164 95.681005,167.866088 82.8262641,174.474158" id="Path"></path>
                <path d="M48,240 C48,273.137085 83.81722,300 128,300 C172.18278,300 208,273.137085 208,240" id="Path"></path>
                <path d="M0,96 C0,160 48,205.5 48,224 C48,236.333333 48,241.666667 48,240" id="Path-18"></path>
                <path d="M208,219.477146 C208.482253,221.128917 208.742547,222.637666 208.742547,224 C208.742547,236.333333 208.742547,241.666667 208.742547,240" id="Path" transform="translate(208.371274, 229.887382) scale(-1, 1) translate(-208.371274, -229.887382) "></path>
                <path d="M208,144.155671 C217.029916,169.376142 230.941102,189.926063 239.535792,204.902508 M247.203553,224 C247.203553,236.333333 247.203553,241.666667 247.203553,240" id="Shape" transform="translate(227.601777, 192.226645) scale(-1, 1) translate(-227.601777, -192.226645) "></path>
                <path d="M208.827169,219.675973 C216.012697,222.468172 223.82746,224 232,224 C267.346224,224 296,195.346224 296,160 C296,136.613748 283.456548,116.157176 264.730439,104.991079" id="Path"></path>
                <path d="M215.664017,205.148538 C220.763125,206.993897 226.264069,208 232,208 C258.509668,208 280,186.509668 280,160 C280,145.007135 273.12609,131.619757 262.357891,122.817487" id="Path"></path>
            </g>
            <g id="phone" transform="translate(2033.000000, 603.000000)">
                <path d="M14.5,92 L14.4834272,95.3060379 C14.4656008,98.8621723 15.6330017,102.322902 17.8012424,105.141615 L137.203778,260.364911 C150.616896,277.801965 174.166771,283.888849 194.349342,275.135198 C244.478621,253.392962 274.362174,240.18123 284,235.5 C284,235.5 284,235.5 284,235.5 C300.100461,227.679776 306.812919,208.288229 298.992696,192.187768 C298.031164,190.208145 296.870492,188.331609 295.528635,186.587226 L167.216721,19.7817372 C158.27166,8.15315829 142.564781,4.09687139 129.107642,9.94010301 L32.930939,51.7010396 C18.7464269,57.8601041 12.2405161,74.3518315 18.3995806,88.5363436 C19.3153818,90.6454615 20.4874938,92.6337419 21.8894401,94.4562722 L144.805518,254.247173 C153.740266,265.862345 169.423067,269.924279 182.872956,264.106853 L285.735625,219.616079 C293.846044,216.108113 297.577068,206.68955 294.069102,198.579132 C293.554613,197.389634 292.897509,196.267052 292.112233,195.23606 L164.622447,27.854309 C155.732829,16.1831014 140.045249,12.052036 126.560343,17.8312817 L121.5,20 L121.5,20 C124.960894,24.5424237 124.084141,31.0303948 119.541718,34.4912891 C118.877906,34.99705 118.155308,35.4205892 117.389693,35.7526632 L58.6103068,61.2473368 C51.4978952,64.3322382 43.1984187,62.1666746 38.5,56 L38.5,56 L38.5,56 C26.5014584,61.1422321 20.9433213,75.0375747 26.0855535,87.0361163 C26.8657351,88.8565403 27.8716278,90.5716874 29.0795819,92.1412331 L147.334193,245.794428 C156.256227,257.387203 171.903735,261.453772 185.341192,255.671917 L288,211.5 L288,211.5" stroke="#363062" stroke-width="4" stroke-linecap="round" stroke-linejoin="round"></path>
                <path d="M105.265848,123.494171 L91.6955358,105.865818 L86.0325415,108.317966 L86,111.650693 L90.0645684,109.890684 L101.718865,125.030059 L105.265848,123.494171 Z M120.019917,117.486049 C122.171449,116.554408 123.571061,115.182129 124.218755,113.36921 C124.870737,111.544286 124.575635,109.824999 123.333448,108.21135 C122.161573,106.68904 120.469505,105.686293 118.257246,105.203109 C116.023119,104.709096 113.952075,104.875176 112.044113,105.701348 C111.922328,105.754082 111.760733,105.834203 111.559329,105.941712 L111.153805,106.164804 L111.153805,106.164804 L110.835685,106.346397 L112.0409,98.1825259 L108.31275,97.8483053 L106.534657,109.776776 C106.20337,112.000719 106.573859,113.809147 107.646125,115.202061 C108.841437,116.754817 110.662144,117.75768 113.108245,118.210649 C115.584792,118.650434 117.888682,118.408901 120.019917,117.486049 Z M118.110966,115.085351 C116.862672,115.625878 115.55818,115.759419 114.197491,115.485972 C112.836801,115.212525 111.801964,114.615303 111.09298,113.694305 C110.383996,112.773308 110.211801,111.80255 110.576397,110.782033 C110.940992,109.761516 111.742363,108.983191 112.980509,108.447059 C114.208506,107.91532 115.510853,107.787783 116.88755,108.064447 C118.24824,108.337893 119.288936,108.942727 120.009639,109.878948 C120.695186,110.7695 120.853517,111.731037 120.484632,112.76356 C120.120036,113.784077 119.328814,114.558007 118.110966,115.085351 Z M128.162717,102.573232 C128.751344,102.318349 129.131444,101.950786 129.303019,101.470543 C129.478883,100.978294 129.396893,100.511434 129.057049,100.069964 C128.723065,99.6361055 128.227906,99.3532274 127.571574,99.2213295 C126.915241,99.0894317 126.297836,99.1487269 125.719358,99.3992152 C125.14088,99.6497035 124.763709,100.021072 124.587845,100.513322 C124.411982,101.005571 124.485183,101.461013 124.807448,101.879649 C125.159011,102.336342 125.654954,102.629029 126.295279,102.75771 C126.951611,102.889607 127.574091,102.828115 128.162717,102.573232 Z M134.763303,111.147645 C135.35193,110.892762 135.73203,110.525199 135.903605,110.044956 C136.079469,109.552706 135.997479,109.085847 135.657635,108.644377 C135.32365,108.210518 134.828492,107.92764 134.172159,107.795742 C133.515827,107.663844 132.898422,107.72314 132.319944,107.973628 C131.741466,108.224116 131.364295,108.595485 131.188431,109.087734 C131.012568,109.579984 131.088698,110.039232 131.416823,110.465479 C131.768386,110.922172 132.264329,111.214859 132.904654,111.34354 C133.544978,111.47222 134.164528,111.406922 134.763303,111.147645 Z M156.236856,101.423077 L154.312051,98.9226822 L145.558767,102.712965 L146.716218,97.8884132 C147.007339,96.6845587 147.231407,95.6392111 147.388423,94.7523704 L147.438278,94.4626275 C147.596185,93.5163865 147.663096,92.7287951 147.639012,92.0998533 C147.609993,90.884422 147.226343,89.7971786 146.488062,88.8381231 C145.327905,87.3310359 143.62454,86.3839246 141.377966,85.9967892 C139.141541,85.6052593 136.952636,85.8731174 134.811253,86.8003635 C130.461544,88.6838427 129.346754,91.5485264 131.466882,95.3944146 L131.595326,95.621775 L135.127086,94.0924781 C133.849096,91.8346643 134.397503,90.1915973 136.772307,89.1632769 C137.908966,88.6710894 139.076814,88.5358251 140.275852,88.757484 C141.47489,88.9791429 142.390816,89.5009961 143.023628,90.3230437 C143.42646,90.8463378 143.633025,91.5356321 143.643321,92.3909265 L143.641263,92.6283044 C143.638348,93.1167057 143.57342,93.7486702 143.446479,94.5241977 L143.353966,95.0641762 C143.253568,95.6271147 143.129514,96.2589334 142.981806,96.9596323 L142.90598,97.3157218 L140.450498,108.25877 L156.236856,101.423077 Z M169.118483,96.2257463 C171.330907,95.2677385 172.635564,93.6930063 173.032454,91.5015498 C173.488974,89.0711491 172.609812,86.4173656 170.394968,83.5401991 C168.174265,80.6554211 165.546591,78.7536912 162.511946,77.8350093 C159.783025,76.9970683 157.307278,77.0592991 155.084705,78.0217014 C152.862132,78.9841037 151.552401,80.5610332 151.155511,82.7524897 C150.698991,85.1828904 151.551786,87.802422 153.713895,90.6110844 C155.987333,93.5643664 158.641374,95.5003483 161.676019,96.4190303 C164.425237,97.2481821 166.906059,97.1837541 169.118483,96.2257463 Z M167.239979,93.8118648 C165.839453,94.4183101 164.198314,94.2815248 162.316561,93.401509 C160.41723,92.4986586 158.714634,91.069149 157.208775,89.1129803 C155.761509,87.2329271 155.011171,85.4671936 154.95776,83.8157798 C154.89849,82.1567545 155.558969,81.0284137 156.939197,80.4307574 C158.329574,79.8287066 159.967784,79.9616861 161.853826,80.8296958 C163.745728,81.7053171 165.43289,83.105989 166.915311,85.0317115 C168.397733,86.957434 169.168579,88.7498079 169.227849,90.4088333 C169.292979,92.0754702 168.630355,93.209814 167.239979,93.8118648 Z M105.844398,145.760312 L102.973304,142.030652 L106.484766,140.510144 L105.629298,139.398857 L102.117835,140.919365 L100.668617,139.036775 L104.30863,137.460603 L103.453161,136.349316 L98.2367109,138.608105 L104.267961,146.442929 L105.844398,145.760312 Z M112.561207,142.851848 L110.58855,140.289293 C109.864592,139.348843 109.917583,138.698931 110.747524,138.339556 C110.983362,138.237435 111.268175,138.190327 111.601964,138.19823 L111.77294,138.206766 L111.665132,136.859688 C111.076567,136.852933 110.581565,136.936469 110.180126,137.110297 C109.87792,137.241156 109.64886,137.396724 109.492947,137.577 C109.364609,137.722783 109.251417,137.92622 109.153372,138.187311 L109.096363,138.350884 L108.756519,137.909414 L107.234209,138.568594 L111.038896,143.511028 L112.561207,142.851848 Z M112.541162,134.531799 C112.816306,134.412659 112.992609,134.23934 113.070073,134.011844 C113.152048,133.782394 113.113608,133.56449 112.954754,133.358133 C112.795899,133.151775 112.564808,133.019547 112.261479,132.961449 C111.955547,132.899969 111.665008,132.928798 111.389865,133.047939 C111.119232,133.165127 110.942928,133.338445 110.860954,133.567895 C110.778979,133.797344 110.814815,134.011865 110.968461,134.211457 C111.129919,134.421197 111.363615,134.556808 111.669548,134.618289 C111.97548,134.67977 112.266019,134.65094 112.541162,134.531799 Z M118.107528,140.450221 L114.302841,135.507787 L112.78053,136.166966 L116.585218,141.1094 L118.107528,140.450221 Z M123.120471,138.468996 C123.815096,138.168214 124.301159,137.711386 124.57866,137.098509 L124.649172,136.927492 L125.047609,137.445077 L126.576685,136.782968 L119.979029,128.212361 L118.449953,128.874471 L121.684328,133.076047 C120.71082,132.866111 119.838415,132.928135 119.067111,133.26212 C118.178533,133.646885 117.632464,134.214865 117.428905,134.96606 C117.218232,135.715824 117.396749,136.459444 117.964457,137.196919 C118.545187,137.951308 119.325003,138.4526 120.303905,138.700794 C121.279506,138.936887 122.218361,138.859621 123.120471,138.468996 Z M122.578885,137.343579 C122.05115,137.572095 121.497742,137.611008 120.918659,137.46032 C120.351201,137.309108 119.88518,136.996698 119.520597,136.52309 C119.179451,136.079929 119.066649,135.632613 119.18219,135.181144 C119.304846,134.731104 119.627786,134.392802 120.15101,134.16624 C120.705807,133.926006 121.270144,133.87785 121.844018,134.021772 C122.423101,134.172461 122.891028,134.479535 123.247799,134.942994 C123.60457,135.406452 123.725185,135.863917 123.609643,136.315387 C123.486289,136.756708 123.142703,137.099438 122.578885,137.343579 Z M131.596394,134.798813 C132.257941,134.512355 132.737458,134.058361 133.034943,133.436831 L133.111563,133.263169 L133.51,133.780754 L135.039076,133.118645 L131.234389,128.176211 L129.705313,128.83832 L130.146719,129.411724 C129.173212,129.201788 128.303061,129.262836 127.536268,129.594867 C126.64769,129.979633 126.098064,130.546898 125.88739,131.296662 C125.676717,132.046427 125.856536,132.791738 126.426849,133.532596 C127.007578,134.286985 127.787394,134.788277 128.766297,135.036471 C129.741897,135.272564 130.685263,135.193345 131.596394,134.798813 Z M131.041276,133.679256 C130.513542,133.907772 129.960133,133.946685 129.38105,133.795997 C128.813592,133.644785 128.347571,133.332375 127.982988,132.858767 C127.641842,132.415606 127.52904,131.96829 127.644581,131.516821 C127.767238,131.066781 128.090178,130.728479 128.613401,130.501917 C129.168199,130.261683 129.732535,130.213527 130.30641,130.357449 C130.885493,130.508138 131.35342,130.815212 131.710191,131.278671 C132.066961,131.742129 132.187576,132.199594 132.072035,132.651064 C131.948681,133.092385 131.605094,133.435115 131.041276,133.679256 Z M140.551539,134.317565 L139.926818,124.412279 L138.208299,125.156419 L138.5149,128.812518 L134.311185,126.843919 L132.545305,127.608568 L138.606392,130.349338 L138.812723,135.070495 L140.551539,134.317565 Z M146.096849,130.766186 L145.79464,127.033761 L144.136788,127.223898 L144.82235,130.891813 L146.096849,130.766186 Z M159.145801,123.160501 L158.319813,116.732043 L162.968546,121.02483 L164.585578,120.324635 L156.125582,112.756653 L157.098645,120.454293 L148.825259,115.917786 L153.110741,125.293385 L154.741305,124.58733 L152.2199,119.366617 L159.145801,123.160501 Z M169.605287,118.34048 C170.266834,118.054022 170.74635,117.600028 171.043836,116.978498 L171.120456,116.804836 L171.518893,117.322421 L173.047969,116.660312 L169.243282,111.717878 L167.714206,112.379987 L168.155612,112.953391 C167.182104,112.743455 166.311954,112.804503 165.545161,113.136534 C164.656583,113.521299 164.106957,114.088565 163.896283,114.838329 C163.685609,115.588094 163.865429,116.333405 164.435741,117.074262 C165.016471,117.828652 165.796287,118.329943 166.775189,118.578138 C167.75079,118.814231 168.694156,118.735011 169.605287,118.34048 Z M169.050169,117.220923 C168.522434,117.449438 167.969026,117.488352 167.389943,117.337663 C166.822485,117.186452 166.356464,116.874042 165.991881,116.400434 C165.650735,115.957273 165.537933,115.509957 165.653474,115.058487 C165.77613,114.608447 166.09907,114.270146 166.622294,114.043584 C167.177092,113.803349 167.741428,113.755193 168.315302,113.899116 C168.894386,114.049805 169.362313,114.356878 169.719083,114.820337 C170.075854,115.283796 170.196469,115.74126 170.080927,116.19273 C169.957573,116.634051 169.613987,116.976782 169.050169,117.220923 Z M178.560432,117.859232 L177.935711,107.953945 L176.217192,108.698086 L176.523793,112.354185 L172.320077,110.385586 L170.554198,111.150235 L176.615284,113.891005 L176.821615,118.612161 L178.560432,117.859232 Z M190.826526,109.131116 C191.769231,108.722913 192.372217,108.166371 192.635485,107.461491 C192.898753,106.756611 192.76346,106.057423 192.229605,105.363926 C191.917105,104.957976 191.514071,104.645356 191.020501,104.426065 C190.531442,104.204821 190.012068,104.100447 189.462378,104.112942 C189.896536,103.356617 189.8545,102.641855 189.336271,101.968655 C188.841479,101.325902 188.142648,100.918094 187.239777,100.74523 C186.334302,100.568983 185.448551,100.668359 184.582526,101.043359 C183.71199,101.420312 183.147599,101.948866 182.889352,102.629019 C182.635617,103.307219 182.75354,103.964312 183.243124,104.6003 C183.782186,105.300563 184.591364,105.687653 185.670657,105.761571 C184.998786,106.521597 185.001392,107.341389 185.678475,108.220946 C186.199309,108.897528 186.947339,109.322373 187.922566,109.495479 C188.893282,109.670539 189.861269,109.549085 190.826526,109.131116 Z M187.197901,104.464268 C186.764888,104.651768 186.306481,104.696905 185.822681,104.59968 C185.345995,104.503884 184.978745,104.288532 184.720933,103.953624 C184.48135,103.642396 184.426375,103.305357 184.556009,102.942506 C184.685643,102.579656 184.964711,102.305457 185.393213,102.11991 C185.821715,101.934363 186.277867,101.890203 186.761667,101.987428 C187.245468,102.084654 187.611066,102.293955 187.858462,102.615331 C188.105858,102.936708 188.164739,103.278822 188.035105,103.641672 C187.905471,104.004523 187.626403,104.278721 187.197901,104.464268 Z M189.944275,108.078788 C189.461646,108.287772 188.952228,108.336956 188.41602,108.226339 C187.881718,108.110386 187.475245,107.871424 187.196599,107.509452 C186.925766,107.157629 186.861838,106.781617 187.004817,106.381414 C187.152306,105.979258 187.462855,105.675641 187.936462,105.470563 C188.41458,105.263532 188.920441,105.213633 189.454045,105.320867 C189.987649,105.428101 190.393773,105.662704 190.672419,106.024675 C190.948461,106.383264 191.016295,106.764351 190.87592,107.167937 C190.732941,107.56814 190.422393,107.871757 189.944275,108.078788 Z" id="Shape" fill="#363062" fill-rule="nonzero"></path>
            </g>
            <g id="note" transform="translate(159.000000, 507.000000)" stroke-linecap="round" stroke-linejoin="round">
                <path d="M0,371 L129.184042,6.53399497 C130.513213,2.78401524 134.396091,0.580643093 138.297033,1.36275082 L528.90809,79.6771448 C533.240158,80.5456897 536.047898,84.7616192 535.179353,89.0936869 C535.102199,89.4785122 534.996829,89.857138 534.864099,90.2264968 L409.154313,440.048111 C406.478327,447.494767 398.760886,451.866893 390.997869,450.334195 L14.5,376 L14.5,376" id="Path-21" stroke="#363062" stroke-width="5"></path>
                <path d="M131.5,49.5 L488.096512,121.390619 C496.725123,123.130165 502.309812,131.535216 500.570266,140.163826 C500.427632,140.871328 500.237105,141.568323 500,142.25 C496.562204,152.133663 486.354204,157.960646 476.095581,155.895244 L137.448027,87.7142028 C126.867912,85.5840729 116.334433,91.5702099 112.75,101.75 C109.754058,110.258475 114.222849,119.584647 122.731324,122.580589 C123.456527,122.835943 124.198856,123.039771 124.952772,123.190554 L463.50895,190.90179 C472.054439,192.610888 477.596429,200.923873 475.887331,209.469361 C475.73231,210.244464 475.519267,211.006823 475.25,211.75 C471.65644,221.668225 461.353256,227.470651 451.00895,225.40179 L111.99105,157.59821 C101.646744,155.529349 91.3435597,161.331775 87.75,171.25 C84.8301297,179.308842 88.9960894,188.208847 97.0549313,191.128717 C97.8656113,191.422442 98.6993589,191.648097 99.547519,191.803341 L157.569527,202.42344 C174.575769,205.53619 185.838669,221.845854 182.725919,238.852095 C182.43701,240.430527 182.027162,241.984409 181.5,243.5 L181.5,243.5 L181.5,243.5" id="Path-22" stroke="#4D4874" stroke-width="4"></path>
                <path d="M57,258 L413.514513,329.874087 C422.070674,331.599028 427.608473,339.933508 425.883533,348.489669 C425.728681,349.257776 425.516919,350.013303 425.25,350.75 C421.656666,360.667602 411.352999,366.468558 401.009874,364.397171 L62.4901257,296.602829 C52.1470007,294.531442 41.843334,300.332398 38.25,310.25 C35.27703,318.455397 39.5187503,327.517254 47.7241476,330.490224 C48.461288,330.757304 49.2172831,330.969154 49.9858692,331.124018 L264.948338,374.437352 C281.461577,377.764646 292.150897,393.848576 288.823603,410.361815 C288.505531,411.940393 288.062947,413.491303 287.5,415 L287.5,415 L287.5,415" id="Path-23" stroke="#363062" stroke-width="4"></path>
            </g>
        </g>
        <g id="table" opacity="0.25" transform="translate(32.000000, 447.000000)" stroke="#363062" stroke-linecap="round" stroke-linejoin="round" stroke-width="4">
            <path d="M0,65.5 L71,65.5 M198,65 L251.187038,65.0468196 M266.300807,65.0601239 L336.913422,65.1222829 M354.956806,65.1381662 L432.569259,65.206487 M448.114961,65.2201716 L600.917512,65.3546809 M621.293921,65.3726179 L766,65.5 M1650,65.5 L1792,65 M1980,65 L2005.89836,65.0297 M2031.22031,65.0587389 L2066.04233,65.0986724 M2082.78613,65.117874 L2100.9194,65.138669 M2113.59844,65.1532092 L2260.84098,65.3220653 M2276.53399,65.3400619 L2298.68058,65.3654594 M2318.11086,65.3877418 L2416,65.5" id="Shape"></path>
            <path d="M0,0.5 L89.5,0.5 M182,1 L474.865178,0.749259266 M514.902549,0.714980694 L671.51568,0.580894109 M688.599295,0.566267726 L766,0.5 M1650,0.5 L1833.5,0.5 M1858,0.5 L1948.5,0.5 M1999.5,0.5 L2136,0.5 M2153,0.5 L2197.5,0.5 M2218,0.5 L2363,0.5 M2381,0.5 L2416,0.5" id="Shape"></path>
            <path d="M0,129 L40,129 M228,129 L260.923904,129.401511 M278.219421,129.612432 L310,130 M471,129 L539.5,129 M599,129 L686,129 M700,129 L766,129 M1650,129 L1681,129 M1728.5,129 L1743,129 M2040,129 L2208.5,129 M2239.5,129 L2416,129" id="Shape"></path>
            <path d="M0,193 L14.5,193 M26.5,193 L40,193 M228,193 L290,193 M752,193 L766,193 M1650,193 L1740,193 M2082,193 L2137.5,193 M2174.5,193 L2192.5,193 M2205,193 L2224,193 M2238,193 L2349.5,193 M2365,193 L2416,193" id="Shape"></path>
            <path d="M0,257 L40,257 M228,257 L272,257 M757,257 L766,257 M1650,257 L1655.5,257 M1664,257 L1669.5,257 M1682.5,257 L1757,257 M1998,257 L2008,257 M2069,257 L2114,257 M2295,257 L2312.5,257 M2319,257 L2325,257 M2335,257 L2397,257 M2408.5,257 L2416,257" id="Shape"></path>
            <path d="M0,321 L26.5,321 M35,321 L40,321 M228,321 L236,321 M246,321 L253,321 M732,321 L766,321 M1650,321 L1703,321 M1724,321 L1781,321 M1988,321 L2083,321 M2348,321 L2416,321" id="Shape"></path>
            <path d="M0,385 L40,385 M228,385 L235,385 M711,385 L766,385 M1650,385 L1686,385 M1698,385 L1809.5,385 M1822,385 L1851.5,385 M1861.5,385 L2031,385 M2051.5,385 L2124,385 M2390,385 L2416,385" id="Shape"></path>
            <path d="M0,449 L95,449 M110,449 L141.5,449 M156.5,449 L175,449 M186,449 L195,449 M689,449 L715,449 M740.5,449 L766,449 M1650,449 L1677.5,449 M1697,449 L1860.5,449 M1928,449 L1946,449 M2019.5,449 L2174,449 M2400,449 L2416,449" id="Shape"></path>
            <path d="M0,513 L21.5,513 M39.5,513 L79,513 M94.5,513 L190.5,513 M203.5,513 L219,513 M671,513 L690,513 M706.5,513 L733.5,513 M749.5,513 L766,513 M1650,513 L1805.5,513 M1847.5,513 L2073,513 M2111.5,513 L2271,513 M2285,513 L2416,513" id="Shape"></path>
        </g>
    </g>
</svg>