<?xml version="1.0" encoding="UTF-8"?>
<svg width="2480px" height="1024px" viewBox="0 0 2480 1024" version="1.1" xmlns="http://www.w3.org/2000/svg" xmlns:xlink="http://www.w3.org/1999/xlink">
    <title>cb-banner-dark</title>
    <g id="cb-banner-dark" stroke="none" stroke-width="1" fill="none" fill-rule="evenodd">
        <g id="guides" transform="translate(213.000000, 64.000000)"></g>
        <g id="objects" transform="translate(87.000000, 64.000000)">
            <g id="beer" transform="translate(0.000000, 292.000000)" stroke="#F4EEFF">
                <path d="M57,21.5 L57,36.5 C62.4441667,40.9794859 70.6615159,44.6511628 79.379845,44.6511628 C95.8199491,44.6511628 109.147287,34.6556595 109.147287,22.3255814 C109.147287,9.99550326 95.8199491,-8.52651283e-14 79.379845,-8.52651283e-14 C62.9397408,-8.52651283e-14 49.6124031,9.99550326 49.6124031,22.3255814" id="Path" stroke-width="4" stroke-linecap="round" stroke-linejoin="round"></path>
                <path d="M62.2306601,33.0774161 C66.3580026,36.6973711 72.5623141,39 79.5,39 C91.9264069,39 102,31.6126984 102,22.5 C102,13.3873016 91.9264069,6 79.5,6 C67.0735931,6 57,13.3873016 57,22.5" id="Path" stroke-width="4" stroke-linecap="round" stroke-linejoin="round"></path>
                <path d="M44.4672982,483.205546 C54.9735807,487.068515 66.651148,489 79.5,489 C100.404719,489 118.216937,483.827346 132.936655,473.482038 C139.338558,468.982653 143.145064,461.644851 143.136423,453.819971 L143.017712,346.512353 C143.012827,342.094076 139.427144,338.516317 135.008868,338.521199 C133.494162,338.52288 132.011056,338.95454 130.732035,339.765984 C115.77465,349.255328 98.697305,354 79.5,354 C60.3044268,354 43.228431,349.256184 28.2720126,339.768552 C24.5410854,337.401838 19.5979692,338.507745 17.2312504,342.238669 C16.4195497,343.518243 15.9879533,345.002035 15.9866946,346.517347 L15.8975463,453.826132 C15.8915246,461.084649 19.1708145,467.955948 24.8175351,472.516721 C26.3135065,473.724995 27.1092435,474.361163 27.2047462,474.425223" id="Path" stroke-width="4" stroke-linecap="round" stroke-linejoin="round"></path>
                <path d="M0,461.395349 C0,494.275557 35.5395671,520.930233 79.379845,520.930233 C123.220123,520.930233 158.75969,494.275557 158.75969,461.395349" id="Path" stroke-width="4"></path>
                <path d="" id="Path-19" stroke-width="1.24031008"></path>
                <path d="M49.6124031,21.7054264 C52.7131783,171.782946 3.19744231e-14,176.124031 3.19744231e-14,262.945736 C3.19744231e-14,320.826873 3.19744231e-14,386.976744 3.19744231e-14,461.395349" id="Path-20" stroke-width="4"></path>
                <path d="M158.891315,45.1278325 C156.483244,173.100712 109.242581,181.37443 109.242581,263.565891 C109.242581,321.447028 109.242581,387.596899 109.242581,462.015504" id="Path" stroke-width="4" stroke-linecap="round" stroke-linejoin="round" transform="translate(134.066948, 253.571668) scale(-1, 1) translate(-134.066948, -253.571668) "></path>
            </g>
            <g id="laptop" transform="translate(729.000000, 0.000000)">
                <path d="M560,880 L280,880 C271.163444,880 264,872.836556 264,864 L264,768 C264,759.163444 271.163444,752 280,752 L568,752 C576.836556,752 584,759.163444 584,768 L584,880 C584,888.836556 576.836556,896 568,896 L32,896 C14.326888,896 2.164332e-15,881.673112 0,864 L0,456 C-5.41083001e-16,451.581722 3.581722,448 8,448 L840,448 C844.418278,448 848,444.418278 848,440 L848,32 C848,14.326888 833.673112,-3.24649801e-15 816,0 L32,0 C14.326888,3.24649801e-15 -2.164332e-15,14.326888 0,32 L0,408 C5.41083001e-16,412.418278 3.581722,416 8,416 L800,416 C808.836556,416 816,408.836556 816,400 L816,48 C816,39.163444 808.836556,32 800,32 L48,32 C39.163444,32 32,39.163444 32,48 L32,384 L32,384" id="Path-15" stroke="#E1DCEC" stroke-width="4" stroke-linecap="round" stroke-linejoin="round"></path>
                <path d="M125.622365,672 L40,672 C35.581722,672 32,675.581722 32,680 L32,712 C32,716.418278 35.581722,720 40,720 L136,720 C140.418278,720 144,716.418278 144,712 L144,664 C144,659.581722 140.418278,656 136,656 L40,656 C35.581722,656 32,652.418278 32,648 L32,616 C32,611.581722 35.581722,608 40,608 L168,608 C172.418278,608 176,611.581722 176,616 L176,664 C176,668.418278 172.418278,672 168,672 C163.581722,672 160,675.581722 160,680 L160,712 C160,716.418278 163.581722,720 168,720 L216,720 C220.418278,720 224,716.418278 224,712 L224,664 C224,659.581722 220.418278,656 216,656 L200,656 C195.581722,656 192,652.418278 192,648 L192,616 C192,611.581722 195.581722,608 200,608 L248,608 C252.418278,608 256,611.581722 256,616 L256,664 C256,668.418278 252.418278,672 248,672 C243.581722,672 240,675.581722 240,680 L240,712 C240,716.418278 243.581722,720 248,720 L296,720 C300.418278,720 304,716.418278 304,712 L304,664 C304,659.581722 300.418278,656 296,656 L280,656 C275.581722,656 272,652.418278 272,648 L272,616 C272,611.581722 275.581722,608 280,608 L328,608 C332.418278,608 336,611.581722 336,616 L336,656 C336,660.418278 339.581722,664 344,664 L404,664 C406.209139,664 408,662.209139 408,660 C408,657.790861 406.209139,656 404,656 L360,656 C355.581722,656 352,652.418278 352,648 L352,616 C352,611.581722 355.581722,608 360,608 L408,608 C412.418278,608 416,611.581722 416,616 L416,656 C416,660.418278 419.581722,664 424,664 L484,664 C486.209139,664 488,662.209139 488,660 C488,657.790861 486.209139,656 484,656 L440,656 C435.581722,656 432,652.418278 432,648 L432,616 C432,611.581722 435.581722,608 440,608 L488,608 C492.418278,608 496,611.581722 496,616 L496,664 C496,668.418278 492.418278,672 488,672 L328,672 C323.581722,672 320,675.581722 320,680 L320,712.035635 C320,716.439972 323.559993,720.015893 327.964286,720.035555 L535.964286,720.964126 C540.38252,720.983851 543.980196,717.418154 543.99992,712.99992 C543.999973,712.988015 544,712.976111 544,712.964206 L544,664 C544,659.581722 540.418278,656 536,656 L520,656 C515.581722,656 512,652.418278 512,648 L512,616 C512,611.581722 515.581722,608 520,608 L568,608 C572.418278,608 576,611.581722 576,616 L576,665 C576,669.418278 572.418278,673 568,673 C563.581722,673 560,676.581722 560,681 L560,713 C560,717.418278 563.581722,721 568,721 L616,721 C620.418278,721 624,717.418278 624,713 L624,664 C624,659.581722 620.418278,656 616,656 L600,656 C595.581722,656 592,652.418278 592,648 L592,616 C592,611.581722 595.581722,608 600,608 L648,608 C652.418278,608 656,611.581722 656,616 L656,664 C656,668.418278 652.418278,672 648,672 C643.581722,672 640,675.581722 640,680 L640,713 C640,717.418278 643.581722,721 648,721 L696,721 C700.418278,721 704,717.418278 704,713 L704,664 C704,659.581722 700.418278,656 696,656 L680,656 C675.581722,656 672,652.418278 672,648 L672,616 C672,611.581722 675.581722,608 680,608 L728,608 C732.418278,608 736,611.581722 736,616 L736,656 C736,660.418278 739.581722,664 744,664 L804,664 C806.209139,664 808,665.790861 808,668 C808,670.209139 806.209139,672 804,672 L728,672 C723.581722,672 720,675.581722 720,680 L720,713 C720,717.418278 723.581722,721 728,721 L808,721 C812.418278,721 816,717.418278 816,713 L816,664 C816,659.581722 812.418278,656 808,656 L760,656 C755.581722,656 752,652.418278 752,648 L752,616 C752,611.581722 755.581722,608 760,608 L808,608 C812.418278,608 816,604.418278 816,600 L816,556 C816,553.790861 814.209139,552 812,552 C809.790861,552 808,553.790861 808,556 L808,584 C808,588.418278 804.418278,592 800,592 L728,592 C723.581722,592 720,588.418278 720,584 L720,552 C720,547.581722 723.581722,544 728,544 L808,544 C812.418278,544 816,540.418278 816,536 L816,528 L816,488 C816,483.581722 812.418278,480 808,480 L760,480 C755.581722,480 752,483.581722 752,488 L752,520 C752,524.418278 748.418278,528 744,528 C739.581722,528 736,524.418278 736,520 L736,488 C736,483.581722 732.418278,480 728,480 L680,480 C675.581722,480 672,483.581722 672,488 L672,520 C672,524.418278 675.581722,528 680,528 L696,528 C700.418278,528 704,531.581722 704,536 L704,544 L704,584 C704,588.418278 700.418278,592 696,592 L648,592 C643.581722,592 640,588.418278 640,584 L640,536 C640,531.581722 643.581722,528 648,528 C652.418278,528 656,524.418278 656,520 L656,488 C656,483.581722 652.418278,480 648,480 L600,480 C595.581722,480 592,483.581722 592,488 L592,536 C592,540.418278 595.581722,544 600,544 L616,544 C620.418278,544 624,547.581722 624,552 L624,584 C624,588.418278 620.418278,592 616,592 L568,592 C563.581722,592 560,588.418278 560,584 L560,536 C560,531.581722 563.581722,528 568,528 C572.418278,528 576,524.418278 576,520 L576,488 C576,483.581722 572.418278,480 568,480 L520,480 C515.581722,480 512,483.581722 512,488 L512,536 C512,540.418278 515.581722,544 520,544 L536,544 C540.418278,544 544,547.581722 544,552 L544,584 C544,588.418278 540.418278,592 536,592 L488,592 C483.581722,592 480,588.418278 480,584 L480,536 C480,531.581722 483.581722,528 488,528 C492.418278,528 496,524.418278 496,520 L496,488 C496,483.581722 492.418278,480 488,480 L440,480 C435.581722,480 432,483.581722 432,488 L432,536 C432,540.418278 435.581722,544 440,544 L456,544 C460.418278,544 464,547.581722 464,552 L464,584 C464,588.418278 460.418278,592 456,592 L408,592 C403.581722,592 400,588.418278 400,584 L400,536 C400,531.581722 403.581722,528 408,528 C412.418278,528 416,524.418278 416,520 L416,488 C416,483.581722 412.418278,480 408,480 L360,480 C355.581722,480 352,483.581722 352,488 L352,536 C352,540.418278 355.581722,544 360,544 L376,544 C380.418278,544 384,547.581722 384,552 L384,584 C384,588.418278 380.418278,592 376,592 L328,592 C323.581722,592 320,588.418278 320,584 L320,536 C320,531.581722 323.581722,528 328,528 C332.418278,528 336,524.418278 336,520 L336,488 C336,483.581722 332.418278,480 328,480 L280,480 C275.581722,480 272,483.581722 272,488 L272,536 C272,540.418278 275.581722,544 280,544 L296,544 C300.418278,544 304,547.581722 304,552 L304,584 C304,588.418278 300.418278,592 296,592 L248,592 C243.581722,592 240,588.418278 240,584 L240,536 C240,531.581722 243.581722,528 248,528 C252.418278,528 256,524.418278 256,520 L256,488 C256,483.581722 252.418278,480 248,480 L200,480 C195.581722,480 192,483.581722 192,488 L192,536 C192,540.418278 195.581722,544 200,544 L216,544 C220.418278,544 224,547.581722 224,552 L224,584 C224,588.418278 220.418278,592 216,592 L168,592 C163.581722,592 160,588.418278 160,584 L160,552 C160,547.581722 156.418278,544 152,544 C147.581722,544 144,547.581722 144,552 L144,584 C144,588.418278 140.418278,592 136,592 L40,592 C35.581722,592 32,588.418278 32,584 L32,552 C32,547.581722 35.581722,544 40,544 L112,544 C116.418278,544 120,540.418278 120,536 C120,531.581722 123.581722,528 128,528 L168,528 C172.418278,528 176,524.418278 176,520 L176,488 C176,483.581722 172.418278,480 168,480 L120,480 C115.581722,480 112,483.581722 112,488 L112,520 C112,524.418278 108.418278,528 104,528 L40,528 C35.581722,528 32,524.418278 32,520 L32,488 C32,483.581722 35.581722,480 40,480 L88,480 C92.418278,480 96,483.581722 96,488 L96,518.964988 C96,519.652132 96.08853,520.336414 96.2634037,521.000934" id="Path-16" stroke="#E1DCEC" stroke-width="4" stroke-linecap="round" stroke-linejoin="round"></path>
                <path d="M848,480 L848,864 C848,881.673112 833.673112,896 816,896 L616,896 L616,896" id="Path-17" stroke="#E1DCEC" stroke-width="4" stroke-linecap="round" stroke-linejoin="round"></path>
                <path d="M430.978486,160.087442 L431.088955,160.111851 L431.088955,160.111851 L431.171736,160.132142 L431.171736,160.132142 L446.689981,164.307592 C447.142544,164.431926 447.582133,164.633923 447.987045,164.916516 C449.401968,165.904004 449.972108,167.581539 449.535957,169.065107 L431.024004,238.728821 C430.912061,239.188963 430.705512,239.633767 430.39966,240.037529 C429.134931,241.707127 426.651147,242.042689 424.851974,240.787029 C423.437052,239.799541 422.866912,238.122006 423.303063,236.638438 L440.739907,171.020113 L433.01547,168.941601 L412.042856,247.810192 L413.575528,257.528824 L419.939923,249.636329 C421.329558,247.913014 423.847219,247.647278 425.563275,249.042791 C427.279332,250.438305 427.543949,252.966615 426.154314,254.689931 L414.202568,269.511542 C413.187762,270.770023 411.571392,271.251191 410.104941,270.875727 L410.020509,270.853115 C408.524147,270.466192 407.323843,269.221558 407.066741,267.591414 L404.095814,248.754371 C404.074731,248.620695 404.060478,248.487515 404.052795,248.355192 C403.916072,247.756957 403.929702,247.133279 404.103954,246.540562 L426.300581,163.067485 L426.322013,162.983629 L426.322013,162.983629 L426.34311,162.907503 L426.366825,162.819118 C426.478703,162.358564 426.685342,161.913352 426.99145,161.509252 C427.916558,160.287996 429.493915,159.780508 430.978486,160.087442 Z M454.486598,262.927203 C456.694751,262.927203 458.484812,264.724836 458.484812,266.942329 C458.484812,269.159822 456.694751,270.957455 454.486598,270.957455 L428.498213,270.957455 C426.290061,270.957455 424.5,269.159822 424.5,266.942329 C424.5,264.724836 426.290061,262.927203 428.498213,262.927203 L454.486598,262.927203 Z M471.24866,184.204224 L510.82895,223.951945 C512.39035,225.519949 512.39035,228.062186 510.82895,229.63019 L471.24866,269.377911 C469.68726,270.945916 467.155732,270.945916 465.594333,269.377911 C464.032933,267.809907 464.032933,265.26767 465.594333,263.699666 L502.347636,226.79089 L465.594333,189.882469 C464.032933,188.314465 464.032933,185.772228 465.594333,184.204224 C467.155732,182.636219 469.68726,182.636219 471.24866,184.204224 Z M383.405667,184.204224 C384.967067,185.772228 384.967067,188.314465 383.405667,189.882469 L346.652364,226.791245 L383.405667,263.699666 C384.967067,265.26767 384.967067,267.809907 383.405667,269.377911 C381.844268,270.945916 379.31274,270.945916 377.75134,269.377911 L338.17105,229.63019 C336.60965,228.062186 336.60965,225.519949 338.17105,223.951945 L377.75134,184.204224 C379.31274,182.636219 381.844268,182.636219 383.405667,184.204224 Z" id="Shape" fill="#EEE8F9"></path>
            </g>
            <g id="cup" transform="translate(1705.000000, 448.000000)" stroke="#F4EEFF" stroke-linecap="round" stroke-linejoin="round" stroke-width="4">
                <path d="M17.9196475,145.016949 C40.2379499,173.149668 81.1838209,192 128,192 C198.692448,192 256,149.019336 256,96 C256,42.980664 198.692448,0 128,0 C57.307552,0 2.27373675e-13,42.980664 2.27373675e-13,96" id="Path"></path>
                <path d="M177.482452,176.85117 C163.867282,168.802499 146.68143,164 128,164 C111.23852,164 95.681005,167.866088 82.8262641,174.474158" id="Path"></path>
                <path d="M48,240 C48,273.137085 83.81722,300 128,300 C172.18278,300 208,273.137085 208,240" id="Path"></path>
                <path d="M0,96 C0,160 48,205.5 48,224 C48,236.333333 48,241.666667 48,240" id="Path-18"></path>
                <path d="M208,219.477146 C208.482253,221.128917 208.742547,222.637666 208.742547,224 C208.742547,236.333333 208.742547,241.666667 208.742547,240" id="Path" transform="translate(208.371274, 229.887382) scale(-1, 1) translate(-208.371274, -229.887382) "></path>
                <path d="M208,144.155671 C217.029916,169.376142 230.941102,189.926063 239.535792,204.902508 M247.203553,224 C247.203553,236.333333 247.203553,241.666667 247.203553,240" id="Shape" transform="translate(227.601777, 192.226645) scale(-1, 1) translate(-227.601777, -192.226645) "></path>
                <path d="M208.827169,219.675973 C216.012697,222.468172 223.82746,224 232,224 C267.346224,224 296,195.346224 296,160 C296,136.613748 283.456548,116.157176 264.730439,104.991079" id="Path"></path>
                <path d="M215.664017,205.148538 C220.763125,206.993897 226.264069,208 232,208 C258.509668,208 280,186.509668 280,160 C280,145.007135 273.12609,131.619757 262.357891,122.817487" id="Path"></path>
            </g>
            <g id="phone" transform="translate(2033.000000, 603.000000)">
                <path d="M14.5,92 L14.4834272,95.3060379 C14.4656008,98.8621723 15.6330017,102.322902 17.8012424,105.141615 L137.203778,260.364911 C150.616896,277.801965 174.166771,283.888849 194.349342,275.135198 C244.478621,253.392962 274.362174,240.18123 284,235.5 C284,235.5 284,235.5 284,235.5 C300.100461,227.679776 306.812919,208.288229 298.992696,192.187768 C298.031164,190.208145 296.870492,188.331609 295.528635,186.587226 L167.216721,19.7817372 C158.27166,8.15315829 142.564781,4.09687139 129.107642,9.94010301 L32.930939,51.7010396 C18.7464269,57.8601041 12.2405161,74.3518315 18.3995806,88.5363436 C19.3153818,90.6454615 20.4874938,92.6337419 21.8894401,94.4562722 L144.805518,254.247173 C153.740266,265.862345 169.423067,269.924279 182.872956,264.106853 L285.735625,219.616079 C293.846044,216.108113 297.577068,206.68955 294.069102,198.579132 C293.554613,197.389634 292.897509,196.267052 292.112233,195.23606 L164.622447,27.854309 C155.732829,16.1831014 140.045249,12.052036 126.560343,17.8312817 L121.5,20 L121.5,20 C124.960894,24.5424237 124.084141,31.0303948 119.541718,34.4912891 C118.877906,34.99705 118.155308,35.4205892 117.389693,35.7526632 L58.6103068,61.2473368 C51.4978952,64.3322382 43.1984187,62.1666746 38.5,56 L38.5,56 L38.5,56 C26.5014584,61.1422321 20.9433213,75.0375747 26.0855535,87.0361163 C26.8657351,88.8565403 27.8716278,90.5716874 29.0795819,92.1412331 L147.334193,245.794428 C156.256227,257.387203 171.903735,261.453772 185.341192,255.671917 L288,211.5 L288,211.5" stroke="#EEE8F9" stroke-width="4" stroke-linecap="round" stroke-linejoin="round"></path>
                <path d="M108.812105,122.363869 L106.8873,119.863413 L98.1340158,123.653789 L99.2914667,118.829119 C99.5825873,117.625235 99.8066556,116.579861 99.9636717,115.692999 L100.013527,115.403249 C100.171433,114.456985 100.238344,113.669374 100.214261,113.040417 C100.185242,111.824956 99.8015915,110.737686 99.0633103,109.778607 C97.903154,108.271483 96.1997889,107.324348 93.9532147,106.937203 C91.7167894,106.545664 89.5278851,106.813529 87.386502,107.740797 C83.0367931,109.624323 81.9220025,112.489077 84.0421302,116.335059 L84.1705748,116.562425 L87.7023346,115.033091 C86.4243448,112.775221 86.9727518,111.132114 89.3475559,110.103769 C90.4842142,109.611569 91.6520625,109.476302 92.8511008,109.697966 C94.050139,109.91963 94.9660644,110.441496 95.5988769,111.263564 C96.0017089,111.786871 96.2082732,112.476182 96.2185696,113.331497 L96.2165116,113.568881 C96.213597,114.057294 96.1486689,114.689274 96.0217272,115.464821 L95.9292142,116.004812 C95.8288162,116.567765 95.7047628,117.199599 95.5570542,117.900315 L95.4812285,118.256413 L93.025747,129.199729 L108.812105,122.363869 Z M121.693731,117.166411 C123.906156,116.20838 125.210813,114.633609 125.607702,112.442099 C126.064222,110.011639 125.18506,107.35779 122.970217,104.480553 C120.749513,101.595705 118.121839,99.6939281 115.087194,98.7752237 C112.358274,97.9372623 109.882527,97.9994945 107.659954,98.9619204 C105.437381,99.9243463 104.127649,101.501314 103.73076,103.692825 C103.27424,106.123285 104.127035,108.74288 106.289144,111.551612 C108.562581,114.504966 111.216623,116.440995 114.251268,117.3597 C117.000486,118.188872 119.481307,118.124442 121.693731,117.166411 Z M119.815227,114.75247 C118.414702,115.35893 116.773562,115.222142 114.891809,114.342105 C112.992478,113.439232 111.289883,112.009687 109.784024,110.053471 C108.336758,108.173372 107.58642,106.407595 107.533009,104.756141 C107.473739,103.097075 108.134218,101.968706 109.514446,101.371035 C110.904823,100.76897 112.543032,100.901953 114.429075,101.769984 C116.320976,102.645626 118.008138,104.046332 119.49056,105.972102 C120.972982,107.897872 121.743828,109.69029 121.803098,111.349355 C121.868227,113.016033 121.205604,114.150405 119.815227,114.75247 Z M129.882201,102.233453 C130.470828,101.978564 130.850928,101.610992 131.022503,101.130737 C131.198367,100.638475 131.116377,100.171604 130.776533,99.7301236 C130.442548,99.2962545 129.94739,99.0133695 129.291058,98.8814684 C128.634725,98.7495674 128.01732,98.8088641 127.438842,99.0593585 C126.860364,99.3098529 126.483193,99.6812308 126.307329,100.173492 C126.131466,100.665754 126.204667,101.121207 126.526932,101.539853 C126.878495,101.996557 127.374438,102.289251 128.014763,102.417935 C128.671095,102.549836 129.293575,102.488342 129.882201,102.233453 Z M136.482787,110.808076 C137.071414,110.553187 137.451514,110.185615 137.623089,109.705359 C137.798953,109.213098 137.716963,108.746227 137.377119,108.304746 C137.043134,107.870877 136.547976,107.587992 135.891643,107.456091 C135.235311,107.32419 134.617906,107.383487 134.039428,107.633981 C133.46095,107.884475 133.083779,108.255853 132.907915,108.748115 C132.732052,109.240376 132.808182,109.699636 133.136307,110.125893 C133.48787,110.582597 133.983813,110.875291 134.624138,111.003975 C135.264462,111.132659 135.884012,111.067359 136.482787,110.808076 Z M156.768938,101.597442 L154.844133,99.0969865 L157.340722,98.0159054 L155.477441,95.5953728 L152.980852,96.6764539 L142.187883,82.6556331 L139.758038,105.629617 L151.29715,100.632913 L153.221955,103.133369 L156.768938,101.597442 Z M149.433869,98.2123802 L144.014444,100.559117 L144.889924,92.3094776 L149.433869,98.2123802 Z M177.544752,92.6010308 L175.619947,90.1005749 L166.866663,93.8909509 L168.024114,89.0662807 C168.347581,87.7286317 168.588268,86.5866752 168.746174,85.640411 C168.904081,84.6941469 168.970992,83.9065362 168.946908,83.277579 C168.917889,82.0621179 168.534239,80.9748479 167.795958,80.015769 C166.635802,78.5086449 164.932436,77.5615104 162.685862,77.1743656 C160.449437,76.7828261 158.260533,77.0506907 156.119149,77.9779595 C151.769441,79.8614848 150.65465,82.7262386 152.774778,86.5722209 L152.903222,86.7995869 L156.434982,85.2702526 C155.156992,83.0123835 155.705399,81.3692763 158.080203,80.3409308 C159.216862,79.8487312 160.38471,79.7134636 161.583748,79.9351279 C162.782786,80.1567922 163.698712,80.6786582 164.331524,81.5007259 C164.734356,82.0240329 164.940921,82.713344 164.951217,83.5686594 L164.949159,83.806043 C164.946244,84.2944563 164.881316,84.9264362 164.754375,85.7019828 L164.661862,86.2419745 C164.578197,86.7111014 164.478104,87.2280629 164.361585,87.7928591 L164.213876,88.4935752 L161.758394,99.4368914 L177.544752,92.6010308 Z M106.193803,146.014866 L103.322709,142.285115 L106.834171,140.76457 L105.978702,139.653256 L102.46724,141.173801 L101.018021,139.291164 L104.658034,137.714954 L103.802566,136.60364 L98.5861157,138.862485 L104.617366,146.6975 L106.193803,146.014866 Z M112.910611,143.106331 L110.937955,140.543713 C110.213997,139.603241 110.266988,138.953312 111.096929,138.593929 C111.332766,138.491806 111.61758,138.444696 111.951369,138.452599 L112.122345,138.461135 L112.014537,137.114025 C111.425972,137.107269 110.93097,137.190807 110.529531,137.364639 C110.227324,137.495502 109.998265,137.651074 109.842352,137.831354 C109.714013,137.977141 109.600822,138.180583 109.502777,138.44168 L109.445768,138.605257 L109.105924,138.163776 L107.583614,138.822972 L111.388301,143.765527 L112.910611,143.106331 Z M112.890567,134.786079 C113.16571,134.666935 113.342014,134.493612 113.419478,134.26611 C113.501452,134.036655 113.463012,133.818746 113.304158,133.612383 C113.145304,133.406021 112.914213,133.27379 112.610884,133.21569 C112.304951,133.154208 112.014413,133.183039 111.73927,133.302182 C111.468637,133.419373 111.292333,133.592695 111.210359,133.822151 C111.128384,134.051606 111.16422,134.266132 111.317866,134.465728 C111.479324,134.675474 111.71302,134.811088 112.018952,134.87257 C112.324885,134.934053 112.615423,134.905222 112.890567,134.786079 Z M118.456933,140.704645 L114.652245,135.76209 L113.129935,136.421286 L116.934622,141.363841 L118.456933,140.704645 Z M123.469876,138.723371 C124.1645,138.422583 124.650563,137.965743 124.928065,137.352851 L124.998576,137.18183 L125.397014,137.699428 L126.92609,137.037303 L120.328434,128.466486 L118.799358,129.128612 L122.033733,133.330291 C121.060225,133.12035 120.187819,133.182376 119.416516,133.516368 C118.527937,133.901143 117.981869,134.469137 117.77831,135.22035 C117.567636,135.970133 117.746154,136.71377 118.313862,137.451263 C118.894591,138.205671 119.674407,138.706975 120.65331,138.955176 C121.628911,139.191274 122.567766,139.114006 123.469876,138.723371 Z M122.928289,137.597927 C122.400555,137.826449 121.847146,137.865363 121.268063,137.714671 C120.700605,137.563455 120.234585,137.251038 119.870002,136.777419 C119.528856,136.334246 119.416053,135.88692 119.531595,135.435439 C119.654251,134.985388 119.977191,134.647078 120.500415,134.42051 C121.055212,134.18027 121.619548,134.132113 122.193423,134.276039 C122.772506,134.426732 123.240433,134.733813 123.597204,135.197283 C123.953975,135.660753 124.07459,136.118229 123.959048,136.56971 C123.835694,137.011041 123.492108,137.353781 122.928289,137.597927 Z M131.945799,135.053099 C132.607346,134.766634 133.086862,134.312629 133.384348,133.691084 L133.460968,133.517417 L133.859405,134.035016 L135.388481,133.37289 L131.583794,128.430335 L130.054718,129.092461 L130.496124,129.665878 C129.522616,129.455937 128.652466,129.516986 127.885673,129.849026 C126.997094,130.233801 126.447469,130.80108 126.236795,131.550863 C126.026121,132.300646 126.205941,133.045975 126.776253,133.786851 C127.356983,134.541258 128.136799,135.042563 129.115701,135.290763 C130.091302,135.526862 131.034668,135.44764 131.945799,135.053099 Z M131.390681,133.933515 C130.862946,134.162036 130.309538,134.20095 129.730455,134.050258 C129.162997,133.899043 128.696976,133.586625 128.332393,133.113006 C127.991247,132.669834 127.878445,132.222507 127.993986,131.771026 C128.116642,131.320975 128.439582,130.982666 128.962806,130.756098 C129.517604,130.515858 130.08194,130.467701 130.655814,130.611627 C131.234898,130.762319 131.702824,131.0694 132.059595,131.53287 C132.416366,131.996341 132.536981,132.453816 132.421439,132.905297 C132.298085,133.346629 131.954499,133.689368 131.390681,133.933515 Z M140.900944,134.571839 L140.276223,124.666311 L138.557704,125.410469 L138.864305,129.066658 L134.660589,127.098011 L132.89471,127.862678 L138.955796,130.603515 L139.162127,135.324787 L140.900944,134.571839 Z M146.446254,131.020373 L146.144044,127.287857 L144.486192,127.477998 L145.171755,131.146003 L146.446254,131.020373 Z M159.495206,123.414502 L158.669218,116.985887 L163.317951,121.278779 L164.934983,120.578566 L156.474987,113.0104 L157.44805,120.708228 L149.174664,116.17161 L153.460146,125.547438 L155.090709,124.841366 L152.569305,119.620525 L159.495206,123.414502 Z M169.954692,118.594363 C170.616239,118.307898 171.095755,117.853893 171.393241,117.232347 L171.46986,117.058681 L171.868298,117.576279 L173.397374,116.914154 L169.592686,111.971599 L168.06361,112.633724 L168.505017,113.207142 C167.531509,112.997201 166.661359,113.05825 165.894565,113.39029 C165.005987,113.775065 164.456361,114.342344 164.245688,115.092126 C164.035014,115.841909 164.214834,116.587239 164.785146,117.328114 C165.365875,118.082522 166.145691,118.583826 167.124594,118.832027 C168.100195,119.068125 169.043561,118.988904 169.954692,118.594363 Z M169.399573,117.474778 C168.871839,117.7033 168.31843,117.742214 167.739347,117.591522 C167.171889,117.440306 166.705869,117.127889 166.341286,116.65427 C166.00014,116.211098 165.887338,115.763771 166.002879,115.31229 C166.125535,114.862239 166.448475,114.52393 166.971699,114.297362 C167.526496,114.057121 168.090832,114.008964 168.664707,114.152891 C169.24379,114.303583 169.711717,114.610664 170.068488,115.074134 C170.425259,115.537604 170.545874,115.99508 170.430332,116.446561 C170.306978,116.887893 169.963392,117.230632 169.399573,117.474778 Z M178.909837,118.113103 L178.285116,108.207574 L176.566597,108.951733 L176.873198,112.607922 L172.669482,110.639274 L170.903602,111.403942 L176.964689,114.144779 L177.17102,118.866051 L178.909837,118.113103 Z M191.175931,109.384774 C192.118636,108.976561 192.721622,108.420006 192.98489,107.715108 C193.248158,107.010211 193.112864,106.311005 192.57901,105.617491 C192.26651,105.211532 191.863475,104.898904 191.369906,104.679608 C190.880847,104.458359 190.361472,104.353982 189.811783,104.366477 C190.245941,103.610133 190.203905,102.895354 189.685676,102.222138 C189.190884,101.579369 188.492053,101.17155 187.589182,100.998682 C186.683706,100.822431 185.797956,100.92181 184.931931,101.296819 C184.061395,101.673781 183.497004,102.202347 183.238757,102.882517 C182.985021,103.560734 183.102945,104.217844 183.592528,104.853847 C184.131591,105.554127 184.940769,105.941226 186.020062,106.015146 C185.348191,106.775191 185.350797,107.595003 186.02788,108.474581 C186.548713,109.15118 187.296744,109.576035 188.27197,109.749146 C189.242687,109.92421 190.210674,109.802753 191.175931,109.384774 Z M187.547305,104.717812 C187.114293,104.905316 186.655886,104.950455 186.172085,104.853227 C185.695399,104.757429 185.32815,104.542071 185.070338,104.207155 C184.830754,103.895919 184.77578,103.558872 184.905414,103.196013 C185.035048,102.833153 185.314116,102.558948 185.742618,102.373396 C186.17112,102.187845 186.627271,102.143683 187.111072,102.240911 C187.594873,102.338139 187.960471,102.547445 188.207867,102.86883 C188.455263,103.190214 188.514144,103.532336 188.38451,103.895195 C188.254876,104.258055 187.975807,104.53226 187.547305,104.717812 Z M190.29368,108.33242 C189.811051,108.541409 189.301632,108.590594 188.765425,108.479975 C188.231123,108.364019 187.82465,108.125051 187.546004,107.76307 C187.27517,107.411239 187.211243,107.035217 187.354222,106.635004 C187.501711,106.232839 187.812259,105.929214 188.285867,105.724131 C188.763985,105.517095 189.269846,105.467195 189.80345,105.574431 C190.337053,105.681668 190.743178,105.916277 191.021824,106.278257 C191.297866,106.636854 191.365699,107.017951 191.225325,107.421547 C191.082346,107.821759 190.771798,108.125383 190.29368,108.33242 Z" id="Shape" fill="#EEE8F9" fill-rule="nonzero"></path>
            </g>
            <g id="note" transform="translate(159.000000, 507.000000)" stroke="#F4EEFF" stroke-linecap="round" stroke-linejoin="round">
                <path d="M0,371 L129.184042,6.53399497 C130.513213,2.78401524 134.396091,0.580643093 138.297033,1.36275082 L528.90809,79.6771448 C533.240158,80.5456897 536.047898,84.7616192 535.179353,89.0936869 C535.102199,89.4785122 534.996829,89.857138 534.864099,90.2264968 L409.154313,440.048111 C406.478327,447.494767 398.760886,451.866893 390.997869,450.334195 L14.5,376 L14.5,376" id="Path-21" stroke-width="5"></path>
                <path d="M131.5,49.5 L488.096512,121.390619 C496.725123,123.130165 502.309812,131.535216 500.570266,140.163826 C500.427632,140.871328 500.237105,141.568323 500,142.25 C496.562204,152.133663 486.354204,157.960646 476.095581,155.895244 L137.448027,87.7142028 C126.867912,85.5840729 116.334433,91.5702099 112.75,101.75 C109.754058,110.258475 114.222849,119.584647 122.731324,122.580589 C123.456527,122.835943 124.198856,123.039771 124.952772,123.190554 L463.50895,190.90179 C472.054439,192.610888 477.596429,200.923873 475.887331,209.469361 C475.73231,210.244464 475.519267,211.006823 475.25,211.75 C471.65644,221.668225 461.353256,227.470651 451.00895,225.40179 L111.99105,157.59821 C101.646744,155.529349 91.3435597,161.331775 87.75,171.25 C84.8301297,179.308842 88.9960894,188.208847 97.0549313,191.128717 C97.8656113,191.422442 98.6993589,191.648097 99.547519,191.803341 L157.569527,202.42344 C174.575769,205.53619 185.838669,221.845854 182.725919,238.852095 C182.43701,240.430527 182.027162,241.984409 181.5,243.5 L181.5,243.5 L181.5,243.5" id="Path-22" stroke-width="4"></path>
                <path d="M57,258 L413.514513,329.874087 C422.070674,331.599028 427.608473,339.933508 425.883533,348.489669 C425.728681,349.257776 425.516919,350.013303 425.25,350.75 C421.656666,360.667602 411.352999,366.468558 401.009874,364.397171 L62.4901257,296.602829 C52.1470007,294.531442 41.843334,300.332398 38.25,310.25 C35.27703,318.455397 39.5187503,327.517254 47.7241476,330.490224 C48.461288,330.757304 49.2172831,330.969154 49.9858692,331.124018 L264.948338,374.437352 C281.461577,377.764646 292.150897,393.848576 288.823603,410.361815 C288.505531,411.940393 288.062947,413.491303 287.5,415 L287.5,415 L287.5,415" id="Path-23" stroke-width="4"></path>
            </g>
        </g>
        <g id="table" opacity="0.25" transform="translate(32.000000, 447.000000)" stroke="#EEE8F9" stroke-linecap="round" stroke-linejoin="round" stroke-width="4">
            <path d="M0,65.5 L71,65.5 M198,65 L251.187038,65.0468196 M266.300807,65.0601239 L336.913422,65.1222829 M354.956806,65.1381662 L432.569259,65.206487 M448.114961,65.2201716 L600.917512,65.3546809 M621.293921,65.3726179 L766,65.5 M1650,65.5 L1792,65 M1980,65 L2005.89836,65.0297 M2031.22031,65.0587389 L2066.04233,65.0986724 M2082.78613,65.117874 L2100.9194,65.138669 M2113.59844,65.1532092 L2260.84098,65.3220653 M2276.53399,65.3400619 L2298.68058,65.3654594 M2318.11086,65.3877418 L2416,65.5" id="Shape"></path>
            <path d="M0,0.5 L89.5,0.5 M182,1 L474.865178,0.749259266 M514.902549,0.714980694 L671.51568,0.580894109 M688.599295,0.566267726 L766,0.5 M1650,0.5 L1833.5,0.5 M1858,0.5 L1948.5,0.5 M1999.5,0.5 L2136,0.5 M2153,0.5 L2197.5,0.5 M2218,0.5 L2363,0.5 M2381,0.5 L2416,0.5" id="Shape"></path>
            <path d="M0,129 L40,129 M228,129 L260.923904,129.401511 M278.219421,129.612432 L310,130 M471,129 L539.5,129 M599,129 L686,129 M700,129 L766,129 M1650,129 L1681,129 M1728.5,129 L1743,129 M2040,129 L2208.5,129 M2239.5,129 L2416,129" id="Shape"></path>
            <path d="M0,193 L14.5,193 M26.5,193 L40,193 M228,193 L290,193 M752,193 L766,193 M1650,193 L1740,193 M2082,193 L2137.5,193 M2174.5,193 L2192.5,193 M2205,193 L2224,193 M2238,193 L2349.5,193 M2365,193 L2416,193" id="Shape"></path>
            <path d="M0,257 L40,257 M228,257 L272,257 M757,257 L766,257 M1650,257 L1655.5,257 M1664,257 L1669.5,257 M1682.5,257 L1757,257 M1998,257 L2008,257 M2069,257 L2114,257 M2295,257 L2312.5,257 M2319,257 L2325,257 M2335,257 L2397,257 M2408.5,257 L2416,257" id="Shape"></path>
            <path d="M0,321 L26.5,321 M35,321 L40,321 M228,321 L236,321 M246,321 L253,321 M732,321 L766,321 M1650,321 L1703,321 M1724,321 L1781,321 M1988,321 L2083,321 M2348,321 L2416,321" id="Shape"></path>
            <path d="M0,385 L40,385 M228,385 L235,385 M711,385 L766,385 M1650,385 L1686,385 M1698,385 L1809.5,385 M1822,385 L1851.5,385 M1861.5,385 L2031,385 M2051.5,385 L2124,385 M2390,385 L2416,385" id="Shape"></path>
            <path d="M0,449 L95,449 M110,449 L141.5,449 M156.5,449 L175,449 M186,449 L195,449 M689,449 L715,449 M740.5,449 L766,449 M1650,449 L1677.5,449 M1697,449 L1860.5,449 M1928,449 L1946,449 M2019.5,449 L2174,449 M2400,449 L2416,449" id="Shape"></path>
            <path d="M0,513 L21.5,513 M39.5,513 L79,513 M94.5,513 L190.5,513 M203.5,513 L219,513 M671,513 L690,513 M706.5,513 L733.5,513 M749.5,513 L766,513 M1650,513 L1805.5,513 M1847.5,513 L2073,513 M2111.5,513 L2271,513 M2285,513 L2416,513" id="Shape"></path>
        </g>
    </g>
</svg>