<?xml version="1.0" encoding="UTF-8"?>
<svg width="2480px" height="1024px" viewBox="0 0 2480 1024" version="1.1" xmlns="http://www.w3.org/2000/svg" xmlns:xlink="http://www.w3.org/1999/xlink">
    <title>cb-publish-dark</title>
    <g id="cb-publish-dark" stroke="none" stroke-width="1" fill="none" fill-rule="evenodd">
        <g id="user" transform="translate(244.000000, 64.000000)">
            <g id="laptop">
                <path d="M280,440 L140,440 C135.581722,440 132,436.418278 132,432 L132,384 C132,379.581722 135.581722,376 140,376 L284,376 C288.418278,376 292,379.581722 292,384 L292,440 C292,444.418278 288.418278,448 284,448 L16,448 C7.163444,448 1.082166e-15,440.836556 0,432 L0,228 C-2.705415e-16,225.790861 1.790861,224 4,224 L420,224 C422.209139,224 424,222.209139 424,220 L424,16 C424,7.163444 416.836556,-1.623249e-15 408,0 L16,0 C7.163444,1.623249e-15 -1.082166e-15,7.163444 0,16 L0,204 C2.705415e-16,206.209139 1.790861,208 4,208 L400,208 C404.418278,208 408,204.418278 408,200 L408,24 C408,19.581722 404.418278,16 400,16 L24,16 C19.581722,16 16,19.581722 16,24 L16,192 L16,192" id="Path-15" stroke="#EEE8F9" stroke-width="2" stroke-linecap="round" stroke-linejoin="round"></path>
                <path d="M62.8111826,336 L20,336 C17.790861,336 16,337.790861 16,340 L16,356 C16,358.209139 17.790861,360 20,360 L68,360 C70.209139,360 72,358.209139 72,356 L72,332 C72,329.790861 70.209139,328 68,328 L20,328 C17.790861,328 16,326.209139 16,324 L16,308 C16,305.790861 17.790861,304 20,304 L84,304 C86.209139,304 88,305.790861 88,308 L88,332 C88,334.209139 86.209139,336 84,336 C81.790861,336 80,337.790861 80,340 L80,356 C80,358.209139 81.790861,360 84,360 L108,360 C110.209139,360 112,358.209139 112,356 L112,332 C112,329.790861 110.209139,328 108,328 L100,328 C97.790861,328 96,326.209139 96,324 L96,308 C96,305.790861 97.790861,304 100,304 L124,304 C126.209139,304 128,305.790861 128,308 L128,332 C128,334.209139 126.209139,336 124,336 C121.790861,336 120,337.790861 120,340 L120,356 C120,358.209139 121.790861,360 124,360 L148,360 C150.209139,360 152,358.209139 152,356 L152,332 C152,329.790861 150.209139,328 148,328 L140,328 C137.790861,328 136,326.209139 136,324 L136,308 C136,305.790861 137.790861,304 140,304 L164,304 C166.209139,304 168,305.790861 168,308 L168,328 C168,330.209139 169.790861,332 172,332 L202,332 C203.104569,332 204,331.104569 204,330 C204,328.895431 203.104569,328 202,328 L180,328 C177.790861,328 176,326.209139 176,324 L176,308 C176,305.790861 177.790861,304 180,304 L204,304 C206.209139,304 208,305.790861 208,308 L208,328 C208,330.209139 209.790861,332 212,332 L242,332 C243.104569,332 244,331.104569 244,330 C244,328.895431 243.104569,328 242,328 L220,328 C217.790861,328 216,326.209139 216,324 L216,308 C216,305.790861 217.790861,304 220,304 L244,304 C246.209139,304 248,305.790861 248,308 L248,332 C248,334.209139 246.209139,336 244,336 L164,336 C161.790861,336 160,337.790861 160,340 L160,356.017817 C160,358.219986 161.779996,360.007946 163.982143,360.017777 L267.982143,360.482063 C270.19126,360.491925 271.990098,358.709077 271.99996,356.49996 C271.999987,356.494008 272,356.488055 272,356.482103 L272,332 C272,329.790861 270.209139,328 268,328 L260,328 C257.790861,328 256,326.209139 256,324 L256,308 C256,305.790861 257.790861,304 260,304 L284,304 C286.209139,304 288,305.790861 288,308 L288,332.5 C288,334.709139 286.209139,336.5 284,336.5 C281.790861,336.5 280,338.290861 280,340.5 L280,356.5 C280,358.709139 281.790861,360.5 284,360.5 L308,360.5 C310.209139,360.5 312,358.709139 312,356.5 L312,332 C312,329.790861 310.209139,328 308,328 L300,328 C297.790861,328 296,326.209139 296,324 L296,308 C296,305.790861 297.790861,304 300,304 L324,304 C326.209139,304 328,305.790861 328,308 L328,332 C328,334.209139 326.209139,336 324,336 C321.790861,336 320,337.790861 320,340 L320,356.5 C320,358.709139 321.790861,360.5 324,360.5 L348,360.5 C350.209139,360.5 352,358.709139 352,356.5 L352,332 C352,329.790861 350.209139,328 348,328 L340,328 C337.790861,328 336,326.209139 336,324 L336,308 C336,305.790861 337.790861,304 340,304 L364,304 C366.209139,304 368,305.790861 368,308 L368,328 C368,330.209139 369.790861,332 372,332 L402,332 C403.104569,332 404,332.895431 404,334 C404,335.104569 403.104569,336 402,336 L364,336 C361.790861,336 360,337.790861 360,340 L360,356.5 C360,358.709139 361.790861,360.5 364,360.5 L404,360.5 C406.209139,360.5 408,358.709139 408,356.5 L408,332 C408,329.790861 406.209139,328 404,328 L380,328 C377.790861,328 376,326.209139 376,324 L376,308 C376,305.790861 377.790861,304 380,304 L404,304 C406.209139,304 408,302.209139 408,300 L408,278 C408,276.895431 407.104569,276 406,276 C404.895431,276 404,276.895431 404,278 L404,292 C404,294.209139 402.209139,296 400,296 L364,296 C361.790861,296 360,294.209139 360,292 L360,276 C360,273.790861 361.790861,272 364,272 L404,272 C406.209139,272 408,270.209139 408,268 L408,264 L408,244 C408,241.790861 406.209139,240 404,240 L380,240 C377.790861,240 376,241.790861 376,244 L376,260 C376,262.209139 374.209139,264 372,264 C369.790861,264 368,262.209139 368,260 L368,244 C368,241.790861 366.209139,240 364,240 L340,240 C337.790861,240 336,241.790861 336,244 L336,260 C336,262.209139 337.790861,264 340,264 L348,264 C350.209139,264 352,265.790861 352,268 L352,272 L352,292 C352,294.209139 350.209139,296 348,296 L324,296 C321.790861,296 320,294.209139 320,292 L320,268 C320,265.790861 321.790861,264 324,264 C326.209139,264 328,262.209139 328,260 L328,244 C328,241.790861 326.209139,240 324,240 L300,240 C297.790861,240 296,241.790861 296,244 L296,268 C296,270.209139 297.790861,272 300,272 L308,272 C310.209139,272 312,273.790861 312,276 L312,292 C312,294.209139 310.209139,296 308,296 L284,296 C281.790861,296 280,294.209139 280,292 L280,268 C280,265.790861 281.790861,264 284,264 C286.209139,264 288,262.209139 288,260 L288,244 C288,241.790861 286.209139,240 284,240 L260,240 C257.790861,240 256,241.790861 256,244 L256,268 C256,270.209139 257.790861,272 260,272 L268,272 C270.209139,272 272,273.790861 272,276 L272,292 C272,294.209139 270.209139,296 268,296 L244,296 C241.790861,296 240,294.209139 240,292 L240,268 C240,265.790861 241.790861,264 244,264 C246.209139,264 248,262.209139 248,260 L248,244 C248,241.790861 246.209139,240 244,240 L220,240 C217.790861,240 216,241.790861 216,244 L216,268 C216,270.209139 217.790861,272 220,272 L228,272 C230.209139,272 232,273.790861 232,276 L232,292 C232,294.209139 230.209139,296 228,296 L204,296 C201.790861,296 200,294.209139 200,292 L200,268 C200,265.790861 201.790861,264 204,264 C206.209139,264 208,262.209139 208,260 L208,244 C208,241.790861 206.209139,240 204,240 L180,240 C177.790861,240 176,241.790861 176,244 L176,268 C176,270.209139 177.790861,272 180,272 L188,272 C190.209139,272 192,273.790861 192,276 L192,292 C192,294.209139 190.209139,296 188,296 L164,296 C161.790861,296 160,294.209139 160,292 L160,268 C160,265.790861 161.790861,264 164,264 C166.209139,264 168,262.209139 168,260 L168,244 C168,241.790861 166.209139,240 164,240 L140,240 C137.790861,240 136,241.790861 136,244 L136,268 C136,270.209139 137.790861,272 140,272 L148,272 C150.209139,272 152,273.790861 152,276 L152,292 C152,294.209139 150.209139,296 148,296 L124,296 C121.790861,296 120,294.209139 120,292 L120,268 C120,265.790861 121.790861,264 124,264 C126.209139,264 128,262.209139 128,260 L128,244 C128,241.790861 126.209139,240 124,240 L100,240 C97.790861,240 96,241.790861 96,244 L96,268 C96,270.209139 97.790861,272 100,272 L108,272 C110.209139,272 112,273.790861 112,276 L112,292 C112,294.209139 110.209139,296 108,296 L84,296 C81.790861,296 80,294.209139 80,292 L80,276 C80,273.790861 78.209139,272 76,272 C73.790861,272 72,273.790861 72,276 L72,292 C72,294.209139 70.209139,296 68,296 L20,296 C17.790861,296 16,294.209139 16,292 L16,276 C16,273.790861 17.790861,272 20,272 L56,272 C58.209139,272 60,270.209139 60,268 C60,265.790861 61.790861,264 64,264 L84,264 C86.209139,264 88,262.209139 88,260 L88,244 C88,241.790861 86.209139,240 84,240 L60,240 C57.790861,240 56,241.790861 56,244 L56,260 C56,262.209139 54.209139,264 52,264 L20,264 C17.790861,264 16,262.209139 16,260 L16,244 C16,241.790861 17.790861,240 20,240 L44,240 C46.209139,240 48,241.790861 48,244 L48,259.482494 C48,259.826066 48.044265,260.168207 48.1317019,260.500467" id="Path-16" stroke="#EEE8F9" stroke-width="2" stroke-linecap="round" stroke-linejoin="round"></path>
                <path d="M424,240 L424,432 C424,440.836556 416.836556,448 408,448 L324,448 C315.163444,448 308,455.163444 308,464 L308,784 C308,839.228475 352.771525,884 408,884 L855.5,884 L855.5,884" id="Path-17" stroke="#EEE8F9" stroke-width="2" stroke-linecap="round" stroke-linejoin="round"></path>
                <path d="M215.489243,80.0437212 L215.544478,80.0559255 L215.544478,80.0559255 L215.585868,80.0660711 L215.585868,80.0660711 L223.34499,82.1537959 C223.571272,82.215963 223.791066,82.3169617 223.993523,82.458258 C224.700984,82.952002 224.986054,83.7907695 224.767978,84.5325536 L215.512002,119.36441 C215.45603,119.594481 215.352756,119.816884 215.19983,120.018764 C214.567465,120.853563 213.325574,121.021345 212.425987,120.393515 C211.718526,119.899771 211.433456,119.061003 211.651532,118.319219 L220.369954,85.5100567 L216.507735,84.4708007 L206.021428,123.905096 L206.787764,128.764412 L209.969962,124.818165 C210.664779,123.956507 211.923609,123.823639 212.781638,124.521396 C213.639666,125.219152 213.771974,126.483308 213.077157,127.344965 L207.101284,134.755771 C206.593881,135.385011 205.785696,135.625595 205.05247,135.437864 L205.010255,135.426558 C204.262073,135.233096 203.661922,134.610779 203.533371,133.795707 L202.047907,124.377186 C202.037366,124.310347 202.030239,124.243758 202.026398,124.177596 C201.958036,123.878479 201.964851,123.56664 202.051977,123.270281 L213.150291,81.5337426 L213.161006,81.4918144 L213.161006,81.4918144 L213.171555,81.4537516 L213.183412,81.409559 C213.239352,81.1792822 213.342671,80.9566762 213.495725,80.754626 C213.958279,80.1439979 214.746957,79.8902538 215.489243,80.0437212 Z M227.243299,131.463601 C228.347375,131.463601 229.242406,132.362418 229.242406,133.471165 C229.242406,134.579911 228.347375,135.478728 227.243299,135.478728 L214.249107,135.478728 C213.14503,135.478728 212.25,134.579911 212.25,133.471165 C212.25,132.362418 213.14503,131.463601 214.249107,131.463601 L227.243299,131.463601 Z M235.62433,92.1021118 L255.414475,111.975972 C256.195175,112.759974 256.195175,114.031093 255.414475,114.815095 L235.62433,134.688956 C234.84363,135.472958 233.577866,135.472958 232.797166,134.688956 C232.016467,133.904954 232.016467,132.633835 232.797166,131.849833 L251.173818,113.395445 L232.797166,94.9412347 C232.016467,94.1572326 232.016467,92.8861139 232.797166,92.1021118 C233.577866,91.3181096 234.84363,91.3181096 235.62433,92.1021118 Z M191.702834,92.1021118 C192.483533,92.8861139 192.483533,94.1572326 191.702834,94.9412347 L173.326182,113.395622 L191.702834,131.849833 C192.483533,132.633835 192.483533,133.904954 191.702834,134.688956 C190.922134,135.472958 189.65637,135.472958 188.87567,134.688956 L169.085525,114.815095 C168.304825,114.031093 168.304825,112.759974 169.085525,111.975972 L188.87567,92.1021118 C189.65637,91.3181096 190.922134,91.3181096 191.702834,92.1021118 Z" id="Shape" fill="#EEE8F9"></path>
            </g>
            <g id="cup" transform="translate(464.000000, 122.000000)" stroke="#EEE8F9" stroke-linecap="round" stroke-linejoin="round" stroke-width="2">
                <path d="M8.95982373,72.5084743 C20.1189749,86.5748339 40.5919105,96 64,96 C99.346224,96 128,74.509668 128,48 C128,21.490332 99.346224,0 64,0 C28.653776,0 1.13686838e-13,21.490332 1.13686838e-13,48" id="Path"></path>
                <path d="M88.741226,88.425585 C81.9336412,84.4012497 73.3407152,82 64,82 C55.6192601,82 47.8405025,83.9330442 41.413132,87.2370788" id="Path"></path>
                <path d="M24,120 C24,136.568542 41.90861,150 64,150 C86.09139,150 104,136.568542 104,120" id="Path"></path>
                <path d="M0,48 C0,80 24,102.75 24,112 C24,118.166667 24,120.833333 24,120" id="Path-18"></path>
                <path d="M104,109.738573 C104.241126,110.564458 104.371274,111.318833 104.371274,112 C104.371274,118.166667 104.371274,120.833333 104.371274,120" id="Path" transform="translate(104.185637, 114.943691) scale(-1, 1) translate(-104.185637, -114.943691) "></path>
                <path d="M104,72.0778355 C108.514958,84.6880708 115.470551,94.9630314 119.767896,102.451254 M123.601777,112 C123.601777,118.166667 123.601777,120.833333 123.601777,120" id="Shape" transform="translate(113.800888, 96.113323) scale(-1, 1) translate(-113.800888, -96.113323) "></path>
                <path d="M104.413584,109.837987 C108.006348,111.234086 111.91373,112 116,112 C133.673112,112 148,97.673112 148,80 C148,68.3068739 141.728274,58.0785878 132.36522,52.4955395" id="Path"></path>
                <path d="M107.832008,102.574269 C110.381562,103.496948 113.132034,104 116,104 C129.254834,104 140,93.254834 140,80 C140,72.5035673 136.563045,65.8098784 131.178945,61.4087435" id="Path"></path>
            </g>
            <g id="phone" transform="translate(456.000000, 303.000000)">
                <path d="M7.25,46 L7.24171362,47.6530189 C7.23280039,49.4310862 7.81650086,51.1614511 8.90062119,52.5708075 L68.6018885,130.182455 C75.3084473,138.900983 87.0833851,141.944425 97.174671,137.567599 C122.239311,126.696481 137.181087,120.090615 142,117.75 C142,117.75 142,117.75 142,117.75 C150.050239,113.839884 153.406472,104.144101 149.496356,96.0938617 C149.015589,95.1040489 148.435253,94.16578 147.764308,93.2936 L83.6083605,9.89086861 C79.1358301,4.07657914 71.2823905,2.04843569 64.5538208,4.97005151 L16.4654695,25.8505198 C9.37321344,28.9300521 6.12025805,37.1759157 9.19979029,44.2681718 C9.65769089,45.3227308 10.2437469,46.316871 10.9447201,47.2281361 L72.4027588,127.123586 C76.8701328,132.931173 84.7115337,134.962139 91.436478,132.053426 L142.867812,109.80804 C146.923022,108.054056 148.788534,103.344775 147.034551,99.2895658 C146.777307,98.6948171 146.448754,98.1335259 146.056116,97.6180301 L82.3112233,13.9271545 C77.8664145,8.09155068 70.0226247,6.026018 63.2801714,8.91564085 L60.75,10 L60.75,10 C62.4804471,12.2712119 62.0420707,15.5151974 59.7708588,17.2456445 C59.4389532,17.498525 59.0776541,17.7102946 58.6948466,17.8763316 L29.3051534,30.6236684 C25.7489476,32.1661191 21.5992094,31.0833373 19.25,28 L19.25,28 L19.25,28 C13.2507292,30.5711161 10.4716607,37.5187874 13.0427767,43.5180582 C13.4328676,44.4282701 13.9358139,45.2858437 14.539791,46.0706165 L73.6670963,122.897214 C78.1281134,128.693601 85.9518673,130.726886 92.6705962,127.835959 L144,105.75 L144,105.75" stroke="#EEE8F9" stroke-width="2" stroke-linecap="round" stroke-linejoin="round"></path>
                <path d="M52.6329241,61.7470853 L45.8477679,52.9329088 L43.0162708,54.158983 L43,55.8253466 L45.0322842,54.9453418 L50.8594327,62.5150296 L52.6329241,61.7470853 Z M60.0099584,58.7430245 C61.0857243,58.2772042 61.7855307,57.5910644 62.1093773,56.6846052 C62.4353687,55.7721429 62.2878175,54.9124996 61.6667238,54.1056751 C61.0807863,53.34452 60.2347527,52.8431464 59.1286231,52.6015544 C58.0115597,52.3545481 56.9760375,52.4375879 56.0220564,52.8506738 C55.961164,52.877041 55.8803666,52.9171017 55.7796643,52.9708558 L55.5769027,53.0824022 L55.5769027,53.0824022 L55.4178423,53.1731986 L56.0204501,49.091263 L54.1563748,48.9241527 L53.2673285,54.8883882 C53.1016849,56.0003593 53.2869295,56.9045734 53.8230623,57.6010303 C54.4207186,58.3774086 55.3310719,58.8788399 56.5541223,59.1053243 C57.7923959,59.3252169 58.9443412,59.2044503 60.0099584,58.7430245 Z M59.0554831,57.5426756 C58.4313359,57.8129392 57.77909,57.8797094 57.0987453,57.742986 C56.4184006,57.6062627 55.9009822,57.3076516 55.54649,56.8471527 C55.1919978,56.3866538 55.1059006,55.9012752 55.2881984,55.3910166 C55.4704962,54.8807581 55.8711815,54.4915957 56.4902544,54.2235293 C57.1042529,53.9576601 57.7554265,53.8938915 58.4437752,54.0322234 C59.1241199,54.1689467 59.644468,54.4713636 60.0048196,54.939474 C60.347593,55.3847498 60.4267585,55.8655184 60.242316,56.38178 C60.0600182,56.8920385 59.6644072,57.2790037 59.0554831,57.5426756 Z M64.0813586,51.2866161 C64.375672,51.1591747 64.5657222,50.9753931 64.6515094,50.7352715 C64.7394413,50.4891468 64.6984463,50.2557169 64.5285244,50.034982 C64.3615323,49.8180527 64.113953,49.6766137 63.7857868,49.6106648 C63.4576205,49.5447159 63.1489179,49.5743635 62.859679,49.6996076 C62.57044,49.8248517 62.3818546,50.0105362 62.2939227,50.2566609 C62.2059908,50.5027856 62.2425913,50.7305067 62.4037241,50.9398244 C62.5795053,51.1681709 62.8274771,51.3145144 63.1476393,51.3788548 C63.4758055,51.4448037 63.7870453,51.4140575 64.0813586,51.2866161 Z M67.3816516,55.5738224 C67.6759649,55.446381 67.8660152,55.2625995 67.9518024,55.0224778 C68.0397343,54.7763531 67.9987393,54.5429233 67.8288174,54.3221883 C67.6618252,54.1052591 67.414246,53.96382 67.0860797,53.8978711 C66.7579135,53.8319222 66.4492109,53.8615698 66.1599719,53.9868139 C65.870733,54.1120581 65.6821476,54.2977425 65.5942157,54.5438672 C65.5062838,54.7899919 65.5443491,55.0196159 65.7084116,55.2327394 C65.8841928,55.4610859 66.1321646,55.6074294 66.4523268,55.6717698 C66.772489,55.7361102 67.0822639,55.7034611 67.3816516,55.5738224 Z M78.118428,50.7115384 L77.1560256,49.4613411 L72.7793836,51.3564827 L73.358109,48.9442066 C73.5036693,48.3422793 73.6157035,47.8196055 73.6942115,47.3761852 L73.7191392,47.2313137 C73.7980923,46.7581932 73.8315479,46.3643975 73.8195061,46.0499266 C73.8049965,45.442211 73.6131715,44.8985893 73.2440308,44.4190615 C72.6639527,43.665518 71.8122701,43.1919623 70.6889831,42.9983946 C69.5707704,42.8026297 68.4763182,42.9365587 67.4056267,43.4001818 C65.2307722,44.3419214 64.6733769,45.7742632 65.7334408,47.6972073 L65.7976631,47.8108875 L67.563543,47.0462391 C66.9245481,45.9173322 67.1987516,45.0957986 68.3861536,44.5816385 C68.9544828,44.3355447 69.5384069,44.2679126 70.1379261,44.378742 C70.7374452,44.4895714 71.1954079,44.7504981 71.5118141,45.1615218 C71.7132301,45.4231689 71.8165123,45.7678161 71.8216605,46.1954633 L71.8206315,46.3141522 C71.8191742,46.5583529 71.7867101,46.8743351 71.7232393,47.2620989 L71.6769828,47.5320881 C71.6267838,47.8135573 71.5647571,48.1294667 71.4909028,48.4798162 L71.45299,48.6578609 L70.2252492,54.1293851 L78.118428,50.7115384 Z M84.5592414,48.1128732 C85.6654536,47.6338693 86.317782,46.8465032 86.5162268,45.7507749 C86.7444868,44.5355746 86.3049059,43.2086828 85.197484,41.7700996 C84.0871324,40.3277106 82.7732954,39.3768456 81.2559729,38.9175046 C79.8915125,38.4985342 78.653639,38.5296495 77.5423525,39.0108507 C76.431066,39.4920519 75.7762004,40.2805166 75.5777556,41.3762449 C75.3494956,42.5914452 75.775893,43.901211 76.8569477,45.3055422 C77.9936664,46.7821832 79.320687,47.7501742 80.8380095,48.2095151 C82.2126187,48.6240911 83.4530293,48.5918771 84.5592414,48.1128732 Z M83.6199893,46.9059324 C82.9197265,47.209155 82.0991569,47.1407624 81.1582804,46.7007545 C80.2086148,46.2493293 79.3573171,45.5345745 78.6043875,44.5564901 C77.8807546,43.6164635 77.5055856,42.7335968 77.4788802,41.9078899 C77.4492452,41.0783772 77.7794846,40.5142068 78.4695986,40.2153787 C79.164787,39.9143533 79.9838918,39.9808431 80.926913,40.4148479 C81.8728639,40.8526585 82.7164448,41.5529945 83.4576557,42.5158557 C84.1988667,43.478717 84.5842897,44.374904 84.6139247,45.2044166 C84.6464894,46.0377351 84.3151776,46.604907 83.6199893,46.9059324 Z M52.9221989,72.8801559 L51.486652,71.0153258 L53.2423832,70.2550719 L52.8146488,69.6994286 L51.0589176,70.4596826 L50.3343083,69.5183874 L52.1543148,68.7303014 L51.7265804,68.1746582 L49.1183555,69.3040527 L52.1339805,73.2214645 L52.9221989,72.8801559 Z M56.2806033,71.4259241 L55.2942752,70.1446463 C54.932296,69.6744216 54.9587917,69.3494655 55.3737622,69.169778 C55.4916808,69.1187177 55.6340874,69.0951634 55.800982,69.099115 L55.8864699,69.1033829 L55.8325661,68.4298442 C55.5382836,68.4264663 55.2907827,68.4682344 55.0900632,68.5551485 C54.9389599,68.6205781 54.82443,68.698362 54.7464736,68.7884999 C54.6823043,68.8613915 54.6257084,68.9631101 54.5766861,69.0936556 L54.5481814,69.1754421 L54.3782596,68.9547071 L53.6171044,69.2842969 L55.5194482,71.755514 L56.2806033,71.4259241 Z M56.270581,67.2658996 C56.4081528,67.2063293 56.4963046,67.11967 56.5350365,67.0059218 C56.5760238,66.891197 56.5568038,66.7822452 56.4773768,66.6790664 C56.3979497,66.5758875 56.282404,66.5097737 56.1307397,66.4807247 C55.9777733,66.4499843 55.8325042,66.4643992 55.6949325,66.5239696 C55.559616,66.5825633 55.4714642,66.6692226 55.4304769,66.7839474 C55.3894897,66.8986722 55.4074076,67.0059325 55.4842305,67.1057284 C55.5649597,67.2105987 55.6818074,67.278404 55.8347738,67.3091444 C55.9877402,67.3398848 56.1330093,67.3254699 56.270581,67.2658996 Z M59.053764,70.2251103 L57.1514203,67.7538933 L56.3902651,68.0834831 L58.2926089,70.5547002 L59.053764,70.2251103 Z M61.5602356,69.2344978 C61.9075479,69.0841072 62.1505794,68.8556928 62.2893301,68.5492545 L62.3245858,68.463746 L62.5238045,68.7225387 L63.2883426,68.391484 L59.9895144,64.1061806 L59.2249764,64.4372353 L60.8421639,66.5380235 C60.3554102,66.4330556 59.9192073,66.4640677 59.5335554,66.6310599 C59.0892663,66.8234427 58.8162321,67.1074327 58.7144526,67.4830298 C58.6091158,67.8579121 58.6983745,68.2297219 58.9822287,68.5984593 C59.2725933,68.9756539 59.6625013,69.2262999 60.1519526,69.3503971 C60.639753,69.4684434 61.1091807,69.4298103 61.5602356,69.2344978 Z M61.2894423,68.6717895 C61.0255752,68.7860473 60.7488708,68.8055041 60.4593293,68.7301598 C60.1756004,68.6545539 59.9425901,68.498349 59.7602984,68.2615452 C59.5897255,68.0399645 59.5333244,67.8163067 59.5910951,67.5905718 C59.6524232,67.3655518 59.8138931,67.1964012 60.075505,67.0831199 C60.3529037,66.9630028 60.6350718,66.9389248 60.9220092,67.0108862 C61.2115507,67.0862304 61.4455142,67.2397673 61.6238997,67.4714968 C61.8022851,67.7032262 61.8625924,67.9319584 61.8048217,68.1576933 C61.7431447,68.3783538 61.5713516,68.5497192 61.2894423,68.6717895 Z M65.798197,67.3994067 C66.1289706,67.2561775 66.3687289,67.0291804 66.5174717,66.7184155 L66.5557814,66.6315845 L66.7550002,66.8903772 L67.5195382,66.5593226 L65.6171945,64.0881055 L64.8526564,64.4191602 L65.0733595,64.705862 C64.5866058,64.6008941 64.1515306,64.631418 63.768134,64.7974336 C63.3238449,64.9898164 63.0490319,65.2734489 62.9436952,65.6483312 C62.8383584,66.0232134 62.9282681,66.395869 63.2134243,66.7662978 C63.5037889,67.1434925 63.8936969,67.3941384 64.3831483,67.5182357 C64.8709487,67.636282 65.3426316,67.5966723 65.798197,67.3994067 Z M65.5206379,66.839628 C65.2567708,66.9538859 64.9800665,66.9733426 64.6905249,66.8979984 C64.406796,66.8223924 64.1737857,66.6661876 63.991494,66.4293837 C63.8209211,66.207803 63.76452,65.9841452 63.8222907,65.7584103 C63.8836188,65.5333904 64.0450888,65.3642397 64.3067006,65.2509585 C64.5840994,65.1308413 64.8662675,65.1067634 65.1532048,65.1787247 C65.4427464,65.254069 65.6767099,65.4076058 65.8550953,65.6393353 C66.0334807,65.8710647 66.0937881,66.0997969 66.0360173,66.3255318 C65.9743404,66.5461923 65.8025472,66.7175577 65.5206379,66.839628 Z M70.2757696,67.1587826 L69.9634091,62.2061394 L69.1041495,62.5782097 L69.2574501,64.4062592 L67.1555924,63.4219597 L66.2726524,63.8042839 L69.3031959,65.1746691 L69.4063613,67.5352474 L70.2757696,67.1587826 Z M73.0484244,65.3830928 L72.8973199,63.5168804 L72.0683938,63.6119488 L72.4111749,65.4459065 L73.0484244,65.3830928 Z M79.5729004,61.5802504 L79.1599067,58.3660214 L81.484273,60.512415 L82.2927889,60.1623173 L78.0627912,56.3783266 L78.5493227,60.2271464 L74.4126294,57.958893 L76.5553706,62.6466923 L77.3706524,62.293665 L76.1099501,59.6833085 L79.5729004,61.5802504 Z M84.8026434,59.17024 C85.133417,59.0270108 85.3731752,58.8000138 85.5219181,58.4892488 L85.5602278,58.4024178 L85.7594465,58.6612106 L86.5239846,58.3301559 L84.6216408,55.8589389 L83.8571028,56.1899936 L84.0778059,56.4766953 C83.5910522,56.3717274 83.155977,56.4022513 82.7725803,56.5682669 C82.3282913,56.7606497 82.0534783,57.0442823 81.9481415,57.4191645 C81.8428047,57.7940468 81.9327145,58.1667023 82.2178707,58.5371311 C82.5082353,58.9143258 82.8981433,59.1649717 83.3875947,59.289069 C83.8753951,59.4071153 84.347078,59.3675056 84.8026434,59.17024 Z M84.5250843,58.6104614 C84.2612172,58.7247192 83.9845128,58.744176 83.6949713,58.6688317 C83.4112424,58.5932258 83.1782321,58.4370209 82.9959404,58.2002171 C82.8253675,57.9786364 82.7689664,57.7549786 82.8267371,57.5292437 C82.8880652,57.3042237 83.0495352,57.1350731 83.311147,57.0217918 C83.5885458,56.9016746 83.8707138,56.8775967 84.1576512,56.9495581 C84.4471928,57.0249023 84.6811563,57.1784392 84.8595417,57.4101686 C85.0379271,57.6418981 85.0982344,57.8706302 85.0404637,58.0963651 C84.9787867,58.3170256 84.8069936,58.4883911 84.5250843,58.6104614 Z M89.280216,58.9296159 L88.9678555,53.9769727 L88.1085959,54.349043 L88.2618964,56.1770925 L86.1600387,55.192793 L85.2770988,55.5751173 L88.3076422,56.9455024 L88.4108077,59.3060807 L89.280216,58.9296159 Z M95.4132632,54.5655581 C95.8846155,54.3614566 96.1861087,54.0831857 96.3177425,53.7307457 C96.4493764,53.3783056 96.3817298,53.0287113 96.1148027,52.6819628 C95.9585527,52.4789881 95.7570353,52.3226781 95.5102505,52.2130327 C95.2657209,52.1024107 95.0060338,52.0502235 94.7311891,52.056471 C94.948268,51.6783085 94.9272501,51.3209274 94.6681356,50.9843277 C94.4207397,50.6629511 94.071324,50.4590468 93.6198885,50.3726148 C93.1671509,50.2844914 92.7242757,50.3341797 92.291263,50.5216797 C91.855995,50.7101562 91.5737994,50.9744328 91.4446762,51.3145094 C91.3178083,51.6536094 91.3767702,51.9821562 91.6215619,52.3001499 C91.8910931,52.6502813 92.2956821,52.8438265 92.8353287,52.8807856 C92.499393,53.2607985 92.500696,53.6706943 92.8392377,54.1104728 C93.0996544,54.448764 93.4736694,54.6611863 93.9612828,54.7477397 C94.446641,54.8352697 94.9306344,54.7745425 95.4132632,54.5655581 Z M93.5989503,52.232134 C93.3824439,52.325884 93.1532406,52.3484527 92.9113403,52.2998399 C92.6729973,52.2519421 92.4893727,52.1442661 92.3604664,51.9768119 C92.2406748,51.821198 92.2131874,51.6526784 92.2780044,51.4712532 C92.3428214,51.2898279 92.4823555,51.1527286 92.6966065,51.0599551 C92.9108576,50.9671817 93.1389333,50.9451014 93.3808336,50.9937141 C93.622734,51.0423268 93.8055331,51.1469774 93.929231,51.3076657 C94.0529289,51.468354 94.0823694,51.6394108 94.0175524,51.820836 C93.9527354,52.0022613 93.8132014,52.1393606 93.5989503,52.232134 Z M94.9721374,54.0393939 C94.730823,54.1438861 94.4761139,54.168478 94.20801,54.1131695 C93.9408592,54.055193 93.7376224,53.9357119 93.5982995,53.7547261 C93.4628828,53.5788147 93.4309192,53.3908083 93.5024085,53.190707 C93.5761531,52.989629 93.7314273,52.8378205 93.9682311,52.7352814 C94.2072902,52.6317658 94.4602207,52.6068165 94.7270225,52.6604335 C94.9938244,52.7140505 95.1968867,52.8313519 95.3362097,53.0123377 C95.4742305,53.191632 95.5081473,53.3821756 95.43796,53.5839684 C95.3664707,53.7840698 95.2111965,53.9358783 94.9721374,54.0393939 Z" id="Shape" fill="#EEE8F9" fill-rule="nonzero"></path>
            </g>
        </g>
        <path d="M1942,530.5 C1969.66667,522.166667 1997.16667,506.166667 2024.5,482.5 C2046.27489,463.646135 2064.34771,439.820932 2078.71848,411.024392 C2079.32643,409.80615 2078.8317,408.325726 2077.61346,407.71777 C2076.52481,407.174483 2075.20259,407.506677 2074.5,408.5 L2060.62541,428.115805 C2060.20848,428.705248 2059.78464,429.289763 2059.35395,429.869228 L2035.94295,461.367661 C2033.70435,464.3796 2030.57609,466.612153 2027,467.75 L2023.95214,468.719774 C2022.3177,469.239823 2020.69812,469.805477 2019.09531,470.416074 L2011,473.5 L2011,473.5 L2007.55547,471.662915 C2004.86662,470.228867 2002.4048,468.404804 2000.25,466.25 C1998.16906,464.16906 1997,461.3467 1997,458.403806 L1997,453.324555 C1997,449.135584 1996.32467,444.974007 1995,441 C1993.70178,437.105336 1993.70178,432.894664 1995,429 C1996.33126,425.006229 1997.97565,421.123757 1999.91785,417.388748 L2002.65892,412.11746 C2003.21959,411.039259 2003.80156,409.972273 2004.4045,408.91713 L2010.77124,397.775337 C2012.55942,394.646013 2013.5,391.104203 2013.5,387.5 L2013.5,385.816084 C2013.5,383.321037 2014.19235,380.874928 2015.5,378.75 C2016.80765,376.625072 2017.5,374.178963 2017.5,371.683916 L2017.5,366.926635 C2017.5,363.283077 2019.52242,359.940636 2022.75,358.25 C2026.21679,356.43406 2029.29667,353.96021 2031.81756,350.966651 L2033.74552,348.677189 C2035.20154,346.948174 2036,344.760413 2036,342.5 C2036,340.233481 2036.76648,338.03357 2038.17488,336.257758 L2044.06121,328.835865 C2046.33622,325.967376 2048.09225,322.723256 2049.25,319.25 L2049.47316,318.580529 C2050.27596,316.17213 2052.87915,314.870534 2055.28755,315.673334 C2055.35898,315.697145 2055.42982,315.722708 2055.5,315.75 L2056.73798,316.231438 C2058.7046,316.996235 2060,318.889903 2060,321 L2060,323 C2060,323.828427 2060.67157,324.5 2061.5,324.5 C2062.47218,324.5 2063.41663,324.175952 2064.18403,323.579089 L2071.36303,317.995423 C2071.78767,317.665147 2072.2152,317.338603 2072.64556,317.015827 L2076,314.5 C2078.51806,312.611456 2080,309.647573 2080,306.5 L2080,300.301541 C2080,295.570504 2081.58422,290.975715 2084.5,287.25 C2087.4539,283.475567 2089.42624,279.027835 2090.24058,274.304623 L2090.65047,271.927301 C2091.21579,268.648426 2091.5,265.327253 2091.5,262 C2091.5,258.702719 2090.81425,255.441475 2089.48631,252.423425 L2087.57274,248.074419 C2086.53833,245.723484 2084.97313,243.644278 2083,242 C2082.22397,241.353309 2081.07063,241.458158 2080.42394,242.234187 C2080.15001,242.562897 2080,242.97724 2080,243.405125 L2080,246.114835 C2080,249.672261 2079.32119,253.197013 2078,256.5 L2077.84297,256.892566 C2077.2227,258.44324 2075.46281,259.197483 2073.91213,258.577213 C2073.46433,258.398093 2073.06587,258.114465 2072.75,257.75 C2070.65388,255.3314 2069.5,252.238165 2069.5,249.037642 L2069.5,242 L2069.5,233.930011 C2069.5,230.991826 2069.92094,228.068794 2070.75,225.25 C2071.56966,222.463143 2071.662,219.51281 2071.01822,216.68015 L2070.27171,213.395507 C2069.78941,211.273385 2068.28118,209.531224 2066.25,208.75 C2064.21174,207.966052 2061.91977,208.220151 2060.10272,209.43152 L2059.25,210 C2057.12037,211.419751 2056.41119,214.22113 2057.60874,216.483178 L2058.94725,219.011477 C2059.29731,219.672702 2059.04506,220.492509 2058.38384,220.842569 C2058.18856,220.945953 2057.97096,221 2057.75,221 C2056.36577,221 2055.09492,221.765153 2054.44725,222.988523 L2053.04617,225.635006 C2051.77615,228.033945 2051.85346,230.922436 2053.25,233.25 C2054.7315,235.719172 2056.74283,237.82855 2059.13873,239.425823 L2059.25,239.5 C2061.59279,241.061862 2063,243.691253 2063,246.506939 L2063,251.5 L2063,257.75 C2063,261.819698 2064.24105,265.792627 2066.55756,269.138701 L2067.55433,270.578474 C2067.88846,271.06111 2067.76807,271.723232 2067.28544,272.057364 C2066.89274,272.329233 2066.36692,272.305768 2066,272 L2063.95466,270.295551 C2061.57132,268.309433 2058.212,267.993334 2055.5,269.5 C2052.59502,271.113879 2049.2108,271.64216 2045.95215,270.99043 L2042.17718,270.235436 C2040.51228,269.902456 2038.89268,270.982189 2038.5597,272.647087 C2038.52,272.845602 2038.5,273.047554 2038.5,273.25 C2038.5,275.321068 2040.17893,277 2042.25,277 L2056.81802,277 C2057.54594,277 2058.13604,277.590097 2058.13604,278.318019 C2058.13604,278.66758 2057.99718,279.002823 2057.75,279.25 C2056.48528,280.51472 2056.4219,282.544822 2057.60527,283.885969 L2061.70814,288.535895 C2061.76286,288.597906 2061.75694,288.692532 2061.69493,288.747247 C2061.63953,288.79613 2061.55676,288.797299 2061.5,288.75 C2060.53078,287.94232 2059.30907,287.5 2058.04744,287.5 L2052.24342,287.5 C2049.10169,287.5 2045.98051,286.993502 2043,286 L2041.68198,285.56066 C2039.64459,284.881531 2037.42087,285.039566 2035.5,286 C2033.6614,286.919299 2032.5,288.798487 2032.5,290.854102 L2032.5,294.283009 C2032.5,297.217386 2030.98835,299.944783 2028.5,301.5 L2028.00922,301.806739 C2026.00565,303.05897 2025.25085,305.608958 2026.25,307.75 L2026.53127,308.352725 C2027.45119,310.323973 2027.34609,312.620995 2026.25,314.5 C2025.10391,316.464733 2024.5,318.698532 2024.5,320.973111 L2024.5,331.5 L2024.5,339.480798 C2024.5,343.541157 2022.42557,347.320092 2019,349.5 L2014.55458,352.328906 C2013.86583,352.767199 2013.06638,353 2012.25,353 C2011.44964,353 2010.68206,353.317942 2010.11612,353.883883 L2008.5,355.5 C2007.52699,356.473014 2005.94942,356.473014 2004.9764,355.5 C2004.77446,355.298058 2004.60874,355.062901 2004.48649,354.804804 L1999.14043,343.518689 C1997.73107,340.543377 1997,337.292229 1997,334 C1997,330.867584 1998.53311,327.933489 2001.10453,326.144678 L2003.12871,324.736547 C2006.70018,322.252045 2010.00786,319.408366 2013,316.25 C2015.69328,313.407089 2016.28802,309.169267 2014.48131,305.694829 L2014.22947,305.210518 C2012.24504,301.394302 2008.30133,299 2004,299 L2000.60555,299 C1999.53984,299 1998.67592,298.136074 1998.67592,297.070368 C1998.67592,296.68941 1998.78868,296.316976 1999,296 L2000.16795,294.248075 C2000.71049,293.434267 2001,292.478076 2001,291.5 C2001,290.505132 2001.14253,289.515394 2001.42325,288.560952 L2002.77373,283.969318 C2003.23836,282.389567 2003.04969,280.689442 2002.25,279.25 C2001.78451,278.41211 2000.7279,278.110224 1999.89001,278.575718 C1999.69508,278.684016 1999.52284,278.828868 1999.38272,279.002349 L1993.17043,286.69375 C1992.64921,287.339068 1991.70355,287.439671 1991.05823,286.918452 C1990.70519,286.633302 1990.5,286.203817 1990.5,285.75 L1990.5,284 C1990.5,282.619288 1989.38071,281.5 1988,281.5 C1986.61929,281.5 1985.5,280.380712 1985.5,279 L1985.5,273.25 C1985.5,271.178932 1983.82107,269.5 1981.75,269.5 C1979.67893,269.5 1978,271.178932 1978,273.25 L1978,277 L1978,280.75 C1978,283.212589 1977.39764,285.637799 1976.24542,287.814205 L1974.78669,290.569583 C1974.61019,290.902974 1974.19684,291.030158 1973.86345,290.853657 C1973.63985,290.73528 1973.5,290.503002 1973.5,290.25 C1973.5,288.464946 1972.92103,286.728043 1971.85,285.3 L1971.1,284.3 C1969.73687,282.48249 1969,280.271887 1969,278 L1969,277.863406 C1969,275.698111 1969.80149,273.609451 1971.25,272 L1971.66035,271.544059 C1972.84468,270.228134 1973.5,268.520397 1973.5,266.75 C1973.5,265.113951 1972.43676,263.667736 1970.87518,263.179744 L1969.5,262.75 C1967.12029,262.006341 1965.5,259.802435 1965.5,257.309236 L1965.5,253.096194 C1965.5,252.594033 1965.90708,252.186951 1966.40924,252.186951 C1966.77769,252.186951 1967.10971,252.409305 1967.25,252.75 L1967.97039,254.499519 C1968.43656,255.63165 1969.73224,256.171517 1970.86437,255.705345 C1970.99936,255.649761 1971.12853,255.580979 1971.25,255.5 C1972.43488,254.710083 1974.03576,255.03026 1974.82568,256.215136 C1974.84836,256.249166 1974.87024,256.28373 1974.89128,256.318801 L1975.96628,258.110462 C1977.27863,260.297724 1979.33013,261.943377 1981.75,262.75 L1981.9742,262.824734 C1984.28592,263.595306 1986.36086,264.946943 1988,266.75 L1988.15769,266.923457 C1989.56977,268.476743 1991.79072,269.003571 1993.75,268.25 C1994.98275,267.775864 1996.36646,268.390845 1996.8406,269.623598 C1996.94596,269.897557 1997,270.188573 1997,270.482097 L1997,271.25 C1997,273.044925 1998.45507,274.5 2000.25,274.5 C2002.33094,274.5 2004.32665,273.67335 2005.7981,272.201903 L2006,272 C2007.51665,270.483354 2007.98352,268.208792 2007.18694,266.217339 L2004.58278,259.706951 C2003.95874,258.146861 2004.55918,256.364491 2006,255.5 C2007.21456,254.771266 2007.60839,253.195917 2006.87966,251.98136 C2006.8234,251.887593 2006.7612,251.79752 2006.69344,251.711693 L2004.75,249.25 C2002.2702,246.108919 2000.37524,242.54764 1999.15554,238.736063 L1999,238.25 C1998.82496,237.703007 1999.12649,237.117686 1999.67348,236.942648 C2000.1025,236.805363 2000.57113,236.9599 2000.83433,237.325453 L2004.36682,242.231693 C2005.30817,243.539127 2007.05902,243.97049 2008.5,243.25 C2010.16282,242.418591 2011.74189,241.429313 2013.21545,240.295807 L2014.52766,239.286415 C2016.40178,237.844785 2017.5,235.61445 2017.5,233.25 L2017.5,229.5 L2017.5,226 L2017.5,223.5 C2017.5,221.878531 2016.96634,220.302132 2015.98137,219.014105 L2012.69787,214.720298 C2011.65894,213.361687 2011.48512,211.529762 2012.25,210 C2012.96816,208.563679 2012.52575,206.818022 2011.21018,205.897124 L2011,205.75 C2009.43316,204.653211 2008.5,202.860934 2008.5,200.948361 L2008.5,200.5 C2008.5,198.24789 2007.66058,196.076636 2006.14565,194.41021 L2004.68913,192.808042 C2003.89649,191.936137 2003.08322,191.083215 2002.25,190.25 C2002.0546,190.0546 2001.73779,190.0546 2001.54239,190.25 C2001.41953,190.372862 2001.36921,190.550667 2001.40945,190.719695 L2002.25,194.25 C2002.61375,195.77776 2001.67014,197.311134 2000.14238,197.674886 C1999.58407,197.807815 1998.99862,197.768698 1998.46296,197.562677 L1995.96725,196.602787 C1992.38205,195.223865 1989.2091,192.950916 1986.75,190 L1985.26339,188.216072 C1983.75524,186.406288 1982.16581,184.66581 1980.5,183 L1980.37829,182.878287 C1979.13211,181.632109 1977.11165,181.632109 1975.86548,182.878287 C1975.82592,182.917839 1975.78742,182.958424 1975.75,183 C1974.49816,184.390929 1974.5832,186.526185 1975.94167,187.813164 L1980.9709,192.577695 C1982.3133,193.849439 1983.42303,195.346069 1984.25,197 C1985.08286,198.665727 1985.99435,200.290967 1986.98139,201.870227 L1988.7775,204.744006 C1989.84905,206.458473 1991.72822,207.5 1993.75,207.5 L1994.5,207.5 C1995.88071,207.5 1997,208.619288 1997,210 C1997,211.629269 1997.48788,213.221212 1998.40077,214.570709 L2006.93389,227.184877 C2007.69226,228.305946 2007.39823,229.829532 2006.27716,230.587901 C2006.18842,230.647935 2006.09583,230.702084 2006,230.75 C2004.48335,231.508323 2002.66072,231.289836 2001.36627,230.194537 L1996.60709,226.167538 C1995.04276,224.843878 1992.70159,225.038976 1991.37793,226.603301 C1990.81106,227.273237 1990.5,228.122415 1990.5,229 L1990.5,229.71131 C1990.5,231.990471 1988.65237,233.838096 1986.37321,233.838096 C1985.62526,233.838096 1984.89137,233.63482 1984.25,233.25 L1982.12355,231.974131 C1979.4259,230.355538 1977.22196,228.030378 1975.75,225.25 C1974.27245,222.459066 1973.5,219.349077 1973.5,216.191154 L1973.5,214.25 C1973.5,209.811006 1972.46649,205.432974 1970.48131,201.462616 L1968.85501,198.210012 C1966.62204,193.744082 1964.75635,189.103782 1963.27641,184.335089 L1961.07471,177.240727 C1961.0249,177.080243 1960.97554,176.919622 1960.92661,176.758868 L1958.83625,169.890549 C1958.0558,167.326203 1959.16376,164.564136 1961.5,163.25 C1964.15955,161.754003 1966.65743,159.987246 1968.95387,157.977866 L1971.23444,155.982361 C1972.52905,154.849585 1974.46429,154.857144 1975.75,156 C1977.05488,157.159895 1977.34941,159.084321 1976.45116,160.581396 L1975.75,161.75 C1975.04643,162.922619 1975.42667,164.443571 1976.59929,165.147142 C1976.98411,165.378034 1977.42444,165.5 1977.87321,165.5 L1985.5,165.5 L1988,165.5 C1988.73893,165.5 1989.33796,164.900975 1989.33796,164.162041 C1989.33796,163.897894 1989.25977,163.639658 1989.11325,163.419874 L1985.76579,158.39868 C1985.5886,158.132895 1985.41002,157.868035 1985.23008,157.60411 L1980.85875,151.192837 C1978.95436,148.399735 1976.89748,145.713722 1974.69744,143.147018 L1970.7233,138.510519 C1969.57467,137.170451 1968.46484,135.797606 1967.39519,134.393689 L1965,131.25 C1962.37913,127.810102 1958.90271,125.116929 1954.91703,123.43875 L1945.20922,119.351252 C1944.49544,119.050713 1944.16044,118.228443 1944.46098,117.514662 C1944.60903,117.16306 1944.89393,116.88695 1945.25,116.75 C1947.38061,115.930535 1949.68657,115.674496 1951.94504,116.006624 L1960.40096,117.250141 C1961.17474,117.363933 1961.89427,116.828903 1962.00806,116.055118 C1962.08074,115.560921 1961.88768,115.064989 1961.5,114.75 L1959.5295,113.14897 C1958.17677,112.049879 1956.79309,110.98945 1955.38011,109.968969 L1952.22604,107.691028 C1950.07862,106.140114 1947.12306,106.376935 1945.25,108.25 C1943.32317,110.176831 1940.35724,110.603951 1937.96502,109.299103 L1933.75,107 C1928.31284,104.034277 1922.30455,102.265041 1916.12783,101.81087 L1896.18443,100.344443 C1893.29037,100.131645 1890.73561,98.3756699 1889.5,95.75 C1888.79903,94.2604474 1889.43831,92.4846813 1890.92786,91.7837154 C1891.32489,91.5968773 1891.75828,91.5 1892.19707,91.5 L1896.25,91.5 C1897.05455,91.5 1897.70676,90.847787 1897.70676,90.0432416 C1897.70676,89.4206005 1897.31104,88.8667928 1896.72198,88.6650615 L1868.5,79 L1868.5,79 L1849.94894,80.011876 C1843.99707,80.3365236 1838.09083,81.2388362 1832.31352,82.7060904 L1816.06485,86.8327361 C1811.6942,87.9427433 1807.41107,89.3725909 1803.2501,91.1107163 L1771.63117,104.318624 C1770.64433,104.730849 1769.50624,104.506237 1768.75,103.75 C1768.18045,103.18045 1768.18045,102.257026 1768.75,101.687475 C1768.81577,101.621705 1768.88768,101.562377 1768.96475,101.510303 L1783.43773,91.7312634 C1784.06899,91.3047359 1784.23496,90.4472292 1783.80843,89.8159685 C1783.61797,89.5340774 1783.33005,89.3325121 1783,89.25 C1782.43244,89.1081092 1782.08736,88.5329831 1782.22925,87.9654199 C1782.30862,87.6479353 1782.53028,87.384961 1782.82975,87.2529925 L1809.5,75.5 L1809.5,75.5 L1828.5,71 L1852.66591,64.2629056 C1788.32411,67.2541908 1730.60177,95.5810964 1689.24741,139.495109 C1663.53811,166.795705 1644.15486,200.120558 1633.43998,237.127353 C1627.29401,258.354189 1624,280.792416 1624,304 C1624,376.196963 1655.87883,440.948225 1706.32816,484.945451 L1711.00008,484.973237 C1713.47058,484.98793 1715.48523,482.997105 1715.49992,480.526604 C1715.49997,480.517736 1715.5,480.508868 1715.5,480.5 C1715.5,477.602988 1714.42766,474.808509 1712.48966,472.655176 L1709.20186,469.002071 C1707.42439,467.027099 1705.21701,465.486805 1702.75,464.5 C1700.30232,463.520928 1698.19002,461.854862 1696.66769,459.7026 L1690.53716,451.0353 C1686.5253,445.363352 1683.16881,439.255227 1680.53189,432.827731 L1679.65996,430.702411 C1677.56793,425.603081 1674.64124,420.887771 1671,416.75 L1667.34249,412.593733 C1666.11444,411.198232 1664.92898,409.765831 1663.78772,408.298504 L1656.75,399.25 C1650.98663,391.839956 1646.91603,383.257613 1644.82426,374.106129 L1642.31302,363.119451 C1640.77588,356.394486 1640,349.51797 1640,342.619569 L1640,293.210038 C1640,292.294594 1639.25789,291.552479 1638.34244,291.552479 C1637.60417,291.552479 1636.9549,292.040737 1636.75,292.75 L1636.34478,294.15268 C1634.45767,300.685001 1633.5,307.450557 1633.5,314.25 C1633.5,314.555107 1633.25266,314.802445 1632.94756,314.802445 C1632.66543,314.802445 1632.42863,314.589868 1632.39831,314.309378 L1631.5,306 C1630.18569,293.842653 1631.7943,281.547218 1636.19193,270.137163 L1641.96011,255.171064 C1645.94473,244.832602 1651.99833,235.4166 1659.75,227.5 L1664.89975,222.240678 C1669.28703,217.760055 1673.17643,212.817712 1676.5,207.5 L1677.83547,205.363241 C1680.27505,201.459918 1683.00413,197.745185 1685.99971,194.250338 L1712.84514,162.930665 C1717.9277,157.001022 1722.23453,150.448341 1725.66175,143.430707 L1728.90402,136.791777 C1730.14873,134.243082 1729.57849,131.18003 1727.5,129.25 L1725.64879,127.531015 C1724.5974,126.554731 1724,125.184759 1724,123.75 C1724,123.071579 1724.54997,122.52161 1725.22839,122.52161 C1725.46394,122.52161 1725.69452,122.589331 1725.89265,122.716705 L1727.5,123.75 C1729.30733,124.911854 1731.71432,124.388593 1732.87618,122.581266 C1732.92329,122.507987 1732.96792,122.433146 1733.01,122.356871 L1737.06769,115.002311 C1738.25977,112.841661 1740.53231,111.5 1743,111.5 C1745.54982,111.5 1747.98363,110.434405 1749.71312,108.560786 L1750.79559,107.388111 C1751.2716,106.872436 1752.07552,106.840279 1752.59119,107.316287 C1752.85179,107.556839 1753,107.895351 1753,108.25 C1753,109.565478 1754.06641,110.631884 1755.38188,110.631884 C1755.62521,110.631884 1755.86711,110.594597 1756.09914,110.521323 L1757.97048,109.930374 C1759.80386,109.351412 1761.75945,110.368318 1762.33841,112.201697 C1762.4455,112.540826 1762.5,112.894363 1762.5,113.25 C1762.5,114.746964 1763.71353,115.960494 1765.21049,115.960494 C1765.69558,115.960494 1766.17178,115.830313 1766.5894,115.583536 L1769.19537,114.043647 C1770.55197,113.242015 1772.30157,113.691912 1773.1032,115.048518 C1773.36297,115.488122 1773.5,115.989383 1773.5,116.5 C1773.5,119.76985 1772.59781,122.976306 1770.89275,125.766409 L1765.00418,135.402248 C1763.33639,138.131362 1761.49801,140.75249 1759.5,143.25 C1757.62577,145.592792 1757.0464,148.717272 1757.95609,151.576277 L1758.25,152.5 C1759.39536,156.099708 1759.54687,159.942001 1758.6885,163.620718 L1757.35211,169.348095 C1756.78591,171.774685 1756.5,174.258229 1756.5,176.75 C1756.5,179.226008 1756.01493,181.678033 1755.07219,183.967543 L1754.75,184.75 C1754.32579,185.780231 1754.81706,186.959291 1755.84729,187.383504 C1756.31506,187.576115 1756.83812,187.585954 1757.31281,187.411071 L1759.68497,186.537116 C1760.76904,186.137722 1761.97163,186.692761 1762.37102,187.776832 C1762.45633,188.008393 1762.5,188.253223 1762.5,188.5 C1762.5,190.427385 1763.23361,192.282512 1764.55182,193.688612 L1766.58029,195.852314 C1768.76212,198.179596 1771.80992,199.5 1775,199.5 C1778.1626,199.5 1781.15609,198.07189 1783.14599,195.613776 L1785.10437,193.194603 C1785.53041,192.668313 1786.30243,192.587047 1786.82872,193.013092 C1787.19547,193.309978 1787.35929,193.790982 1787.25,194.25 C1786.42092,197.732121 1785.09837,201.077857 1783.32246,204.185698 L1783,204.75 C1782.38357,205.828747 1782.75836,207.202957 1783.8371,207.819384 C1784.40476,208.143758 1785.08545,208.205136 1785.70197,207.987539 L1792.99229,205.414486 C1794.5583,204.861776 1796.27587,205.683219 1796.82858,207.24923 C1796.94203,207.570691 1797,207.909105 1797,208.25 C1797,210.796839 1795.39394,213.066846 1792.99229,213.914486 L1792.75,214 C1789.93715,214.99277 1786.97596,215.5 1783.99306,215.5 L1780.07946,215.5 C1777.72126,215.5 1775.39115,214.988222 1773.25,214 C1772.54577,213.67497 1771.71139,213.982374 1771.38636,214.686606 C1771.22259,215.041442 1771.21408,215.448473 1771.36288,215.809844 L1771.88181,217.070118 C1772.48032,218.523628 1771.7872,220.187115 1770.33369,220.785619 C1769.98993,220.927168 1769.62176,221 1769.25,221 L1768.71652,221 C1766.34947,221 1764.09225,220.001472 1762.5,218.25 L1761.84985,217.534835 C1761.45488,217.100363 1760.78248,217.068344 1760.348,217.463319 C1760.12636,217.664813 1760,217.950458 1760,218.25 C1760,219.945843 1759.0757,221.506873 1757.58877,222.32229 L1750.48709,226.216755 C1746.60456,228.345887 1743.53333,231.696975 1741.75,235.75 L1740.91301,237.652254 C1739.65146,240.519402 1739,243.617584 1739,246.75 C1739,249.844536 1739.93362,252.867084 1741.67882,255.422555 L1748.31326,265.137276 C1751.24717,269.433362 1751.87801,274.898476 1750,279.75 L1748.88444,282.631852 C1747.66307,285.787079 1747.52779,289.259315 1748.5,292.5 C1749.07823,294.427447 1751.10949,295.521201 1753.03694,294.942967 C1753.44754,294.819787 1753.83318,294.625115 1754.17612,294.367908 L1755,293.75 C1758.14757,291.38932 1760,287.684466 1760,283.75 L1760,283.5 C1760,279.733093 1762.6874,276.502333 1766.39133,275.81642 L1767.10867,275.68358 C1770.8126,274.997667 1773.5,271.766907 1773.5,268 C1773.5,263.815426 1775.04894,259.778957 1777.84827,256.668588 L1779.32242,255.030647 C1781.36808,252.757685 1782.5,249.807958 1782.5,246.75 C1782.5,245.332497 1783.64911,244.183383 1785.06662,244.183383 C1785.56634,244.183383 1786.05519,244.329264 1786.47319,244.603125 L1794.69973,249.992928 C1796.13517,250.933387 1797,252.533916 1797,254.25 C1797,256.066643 1796.65336,257.8666 1795.97868,259.553311 L1792.20702,268.982451 C1791.53763,270.655924 1792.33626,272.556774 1794,273.25 C1795.90498,274.043742 1798.06103,273.969484 1799.90689,273.046556 L1804.54033,270.729837 C1806.04778,269.976112 1807,268.435382 1807,266.75 C1807,266.571685 1807.14455,266.427132 1807.32287,266.427132 C1807.47238,266.427132 1807.60233,266.529775 1807.63696,266.675217 L1808.43983,270.0473 C1809.14617,273.013932 1809.70457,276.01385 1810.11297,279.035942 L1811.00458,285.633919 C1811.65286,290.43114 1813.74371,294.91808 1817,298.5 L1818.53312,300.186436 C1819.6782,301.44602 1819.58537,303.395383 1818.32579,304.540459 C1817.94921,304.8828 1817.49373,305.126567 1817,305.25 C1816.14627,305.463433 1815.6272,306.32854 1815.84064,307.182271 C1815.96825,307.692726 1816.33964,308.107272 1816.83305,308.290017 L1822.68675,310.458057 C1824.37763,311.084307 1825.5,312.696877 1825.5,314.5 C1825.5,316.156854 1824.15685,317.5 1822.5,317.5 L1815.71652,317.5 C1813.48776,317.5 1811.49961,318.901082 1810.75,321 C1810.02649,323.025831 1807.95593,324.242656 1805.83405,323.889008 L1794.66496,322.027494 C1790.6072,321.3512 1786.44919,321.598154 1782.5,322.75 C1782.02661,322.888071 1781.75479,323.383756 1781.89286,323.857143 C1782.00397,324.238095 1782.35317,324.5 1782.75,324.5 L1788.75,324.5 C1789.99264,324.5 1791,325.507359 1791,326.75 C1791,328.128949 1790.22091,329.389546 1788.98754,330.006231 L1788.5,330.25 C1787.11158,330.94421 1786.53431,332.622061 1787.2017,334.023572 L1789.44985,338.74469 C1790.46433,340.875103 1792.03667,342.691115 1794,344 C1794.81785,344.545231 1795.03885,345.650225 1794.49361,346.468072 C1794.27655,346.793674 1793.95822,347.038658 1793.58789,347.165112 L1782.42886,350.97551 C1781.15431,351.410722 1779.76828,350.730304 1779.33307,349.455754 C1779.1123,348.809233 1779.17286,348.099755 1779.5,347.5 L1780.34517,345.95053 C1781.05164,344.655331 1780.57438,343.032656 1779.27918,342.326184 C1778.88679,342.112152 1778.44697,342 1778,342 L1777.10555,342 C1774.75455,342 1772.45615,342.695899 1770.5,344 C1768.50539,345.329739 1766.37809,346.448763 1764.15233,347.339068 L1763.01755,347.79298 C1761.19505,348.521979 1760,350.287112 1760,352.25 C1760,354.044925 1758.54493,355.5 1756.75,355.5 L1749.75,355.5 C1748.23122,355.5 1747,356.731217 1747,358.25 C1747,359.859722 1745.88892,361.256402 1744.32042,361.618364 L1739.60275,362.707058 C1736.32316,363.463886 1734,366.384218 1734,369.75 C1734,373.160426 1731.75682,376.164646 1728.48691,377.133508 L1723.34922,378.655786 C1721.45024,379.218449 1719.53358,379.719642 1717.60224,380.158583 L1715,380.75 C1711.78295,381.481148 1709.5,384.341165 1709.5,387.640257 L1709.5,406.399695 C1709.5,407.514756 1708.59606,408.418691 1707.481,408.418691 C1707.03573,408.418691 1706.60294,408.271491 1706.25,408 C1704.20081,406.4237 1703,403.98502 1703,401.399695 L1703,387.153882 C1703,384.12491 1700.93853,381.484634 1698,380.75 L1695.74398,380.185994 C1693.94846,379.737115 1692.3087,378.808696 1691,377.5 C1689.66769,376.167688 1688.26266,374.91013 1686.79137,373.733096 L1685.25,372.5 C1682.76192,370.509539 1680.56069,368.184966 1678.70869,365.592173 L1674.98743,360.382401 C1672.79888,357.318425 1669.26533,355.5 1665.5,355.5 C1661.97376,355.5 1658.90003,357.899899 1658.04479,361.320855 L1656.70711,366.67157 C1655.26117,372.455304 1655.36218,378.517647 1657,384.25 L1657.11985,384.669489 C1658.68289,390.140126 1661.55981,395.145632 1665.5,399.25 L1668.63414,402.514729 C1670.34785,404.299842 1673.0076,404.796454 1675.25,403.75 L1676.0462,403.378438 C1677.88611,402.519815 1680.03704,402.659933 1681.75,403.75 C1683.38892,404.79295 1684.16757,406.774324 1683.67721,408.654046 L1683,411.25 C1682.03661,414.943 1682.52107,418.864567 1684.35424,422.212085 L1690.83858,434.053067 C1692.25668,436.642639 1693,439.547562 1693,442.5 C1693,445.390149 1694.10471,448.170995 1696.08799,450.273271 L1712.51024,467.680851 C1716.01403,471.39487 1720.89407,473.5 1726,473.5 L1726.09431,473.5 C1731.24211,473.5 1736.26751,475.069818 1740.5,478 C1744.82535,480.994473 1749.39978,483.612095 1754.17292,485.824036 L1761.66828,489.297495 C1765.54651,491.094725 1769.5936,492.502464 1773.75,493.5 L1774.74101,493.737843 C1778.12174,494.549219 1781.07145,496.607181 1783,499.5 C1784.87423,502.311351 1788.0295,504 1791.40833,504 L1792.41061,504 C1795.24558,504 1797.86012,505.529111 1799.25,508 C1800.67334,510.530388 1803.16211,512.283774 1806.02393,512.772378 L1814.06421,514.145109 C1819.28353,515.036213 1824.22499,517.125952 1828.5,520.25 L1830.56853,521.76162 C1832.16481,522.928129 1832.5132,525.167808 1831.34669,526.764084 C1831.05352,527.165274 1830.68003,527.501036 1830.25,527.75 C1829.26858,528.318192 1828.93359,529.574402 1829.50178,530.555825 C1829.79947,531.070019 1830.3053,531.430057 1830.88862,531.542959 L1833.25,532 C1838.3732,532.991587 1843.63483,533.035029 1848.77371,532.128169 L1854.25006,531.161755 C1856.69679,530.729978 1859.21635,531.021291 1861.5,532 C1863.80926,532.989684 1866.29548,533.5 1868.80789,533.5 L1897.02347,533.5 C1898.29482,533.5 1899.32546,534.530634 1899.32546,535.801985 C1899.32546,536.592967 1898.91936,537.328554 1898.25,537.75 C1894.04886,540.395164 1891.5,545.012005 1891.5,549.976528 L1891.5,848 C1891.5,903.228475 1846.72847,948 1791.5,948 C1659,948 1526.5,948 1394,948 C1280,948 1216.16667,930.333333 1202.5,895" id="world" stroke="#EEE8F9" stroke-width="2" stroke-linecap="round" stroke-linejoin="round"></path>
        <g id="ci" transform="translate(1039.999511, 548.000000)" stroke="#EEE8F9" stroke-linecap="round" stroke-width="2">
            <path d="M151.997516,373.528387 C137.612372,369.557831 123.94949,363.846475 111.249755,356.635205 L96.6197654,371.263869 C83.0680456,363.069138 70.2790365,353.121749 58.5789894,341.421702 C46.8786944,329.721407 36.9311316,316.932104 28.7363011,303.380064 L43.3650209,288.750271 C36.1537542,276.050455 30.4424186,262.387485 26.471903,248.002252 L5.79729179,248.000978 C2.00932877,232.623915 0,216.546854 0,200.000489 C0,183.453773 2.00941393,167.376381 5.7975326,151.999022 L26.471903,151.997748 C30.4424186,137.612515 36.1537542,123.949545 43.3650209,111.249729 L28.7361308,96.6197654 C36.930862,83.0680456 46.8782511,70.2790365 58.5782981,58.5789894 C70.2785932,46.8786944 83.0678964,36.9311316 96.6199357,28.7363011 L111.249755,43.3647949 C123.94949,36.1535246 137.612372,30.4421689 151.997516,26.4716132 L151.999022,5.7975326 C167.376381,2.00941393 183.453773,0 200.000489,0 C216.546854,0 232.623915,2.00932877 248.000978,5.79729179 L248.002463,26.4713375 C262.387973,30.4419045 276.051193,36.1533577 288.751223,43.3647949 L303.380064,28.7363011 C316.932104,36.9311316 329.721407,46.8786944 341.421702,58.5789894 C353.121749,70.2790365 363.069138,83.0680456 371.263869,96.6197654 L356.635957,111.249729 C363.847223,123.949545 369.558559,137.612515 373.529075,151.997748 L394.202467,151.999022 C397.990586,167.376381 400,183.453773 400,200.000489 C400,216.546854 397.990671,232.623915 394.202708,248.000978 L373.529075,248.002252 C369.558559,262.387485 363.847223,276.050455 356.635957,288.750271 L371.263699,303.380064 C363.068868,316.932104 353.121306,329.721407 341.421011,341.421702 C329.720964,353.121749 316.931954,363.069138 303.380235,371.263869 L288.751223,356.635205 C276.051193,363.846642 262.387973,369.558095 248.002463,373.528663 L248.000978,394.202708 C232.623915,397.990671 216.546854,400 200.000489,400 L58.5004888,400" id="Path" stroke-linejoin="round"></path>
            <path d="M162.633119,347.242292 C174.569577,350.347422 187.092043,352 200.000489,352 C281.738632,352 348.000489,285.738143 348.000489,204 C348.000489,122.261857 281.738632,56 200.000489,56 C118.262346,56 52.0004888,122.261857 52.0004888,204 C52.0004888,257.51351 80.4019669,304.393499 122.953562,330.388606 C122.953562,330.388606 122.953562,330.388606 122.953562,330.388606 C129.254509,334.237905 137.372843,333.265301 142.586191,328.03653 L184.000489,286.5 L184.000489,286.5" id="Path" stroke-linejoin="round"></path>
            <path d="M140.402509,278.793939 L81.2065495,219.59798 C78.0823552,216.473785 78.0823552,211.408466 81.2065495,208.284271 L103.833967,185.656854 C106.958161,182.53266 112.023481,182.53266 115.147675,185.656854 L160.402509,230.911688 C163.526703,234.035883 168.592023,234.035883 171.716218,230.911688 L284.853303,117.774603 L284.853303,117.774603 C287.977497,114.650409 293.042817,114.650409 296.167011,117.774603 L318.794428,140.40202 C321.918622,143.526215 321.918622,148.591534 318.794428,151.715729 L174.716218,295.793939" id="Path"></path>
        </g>
    </g>
</svg>