<?xml version="1.0" encoding="UTF-8"?>
<svg width="1839px" height="1024px" viewBox="0 0 1839 1024" version="1.1" xmlns="http://www.w3.org/2000/svg" xmlns:xlink="http://www.w3.org/1999/xlink">
    <!-- Generator: Sketch 63.1 (92452) - https://sketch.com -->
    <title>figure1</title>
    <desc>Created with Sketch.</desc>
    <g id="figure1" stroke="none" stroke-width="1" fill="none" fill-rule="evenodd">
        <path d="M1331.80022,756.56261 C1336.83357,812.56848 1333.47229,855.5683 1321.65334,885.604963 C1315.12627,902.192873 1305.23447,919.454931 1293.46528,936.225212 L1292.37049,937.773166 L1293.33913,936.779373 L1295.20295,934.853435 L1296.90564,933.078552 C1324.45774,904.207531 1339.36567,881.087526 1345.37699,853.909033 C1345.57982,852.991982 1346.39323,852.339117 1347.33296,852.339117 C1358.89145,852.339117 1369.88207,858.701619 1380.39647,870.427721 C1388.88468,879.894118 1396.87332,892.608578 1404.6413,908.208548 L1405.13683,909.208206 C1409.00125,917.039235 1412.54938,925.000397 1416.36689,934.219901 L1417.11301,936.031391 L1416.83751,935.005992 C1405.7577,893.948068 1394.20162,863.322934 1380.95175,836.466503 L1380.51908,835.592077 C1378.40514,831.332108 1376.3029,827.266155 1373.92765,822.811782 L1366.03595,808.215972 L1365.07838,806.415523 L1364.42698,805.175312 C1360.61007,797.865764 1358.42263,792.882167 1356.91515,787.798449 C1355.52868,783.122818 1354.84492,778.583218 1354.84492,773.759052 C1354.84492,771.668966 1357.64675,770.977054 1358.62076,772.826609 C1369.18995,792.896552 1389.91238,805.537104 1412.56718,805.787888 L1413.25427,805.79169 L1433.18359,805.790689 L1447.35013,774.734046 L1443.46595,772.9222 L1430.78438,800.618667 C1430.34594,801.576209 1429.24685,802.022769 1428.27415,801.66567 L1428.12929,801.606041 C1427.1712,801.167845 1426.72439,800.069388 1427.08169,799.097249 L1427.14135,798.952474 L1440.66287,769.422386 C1441.10363,768.459797 1442.21126,768.014461 1443.18634,768.380275 L1443.33151,768.441268 L1450.84346,771.944838 C1451.79226,772.387357 1452.23236,773.478975 1451.87818,774.445566 L1451.81906,774.58952 L1436.29435,808.624198 C1435.99054,809.290249 1435.34965,809.733574 1434.62753,809.789724 L1434.47164,809.79577 L1413.25427,809.79577 C1392.01783,809.795789 1372.30224,799.565472 1360.04874,782.689682 L1359.64355,782.124576 C1359.8866,783.385278 1360.18387,784.637559 1360.53746,785.901125 L1360.75639,786.660705 L1360.98163,787.401853 L1361.22458,788.163451 C1362.80364,792.997357 1365.16667,798.070944 1369.25058,805.731908 L1376.24479,818.653684 C1379.15061,824.056234 1381.62047,828.799644 1384.10829,833.813028 C1398.38381,862.580683 1410.69625,895.553423 1422.51631,940.781848 C1424.34439,947.776825 1426.14161,955.010075 1427.90775,962.492127 C1428.45689,964.81849 1425.2011,965.976546 1424.1562,963.826519 L1423.86249,963.210672 L1423.50182,962.4262 C1422.83867,960.958379 1422.05183,959.085534 1421.0351,956.57389 L1415.53066,942.777729 L1414.58347,940.433085 L1413.61751,938.063807 C1409.46204,927.921752 1405.68228,919.365924 1401.54369,910.979301 C1384.94362,877.340201 1367.60874,857.553845 1349.0577,856.396939 L1348.91949,856.389244 L1348.89802,856.483946 C1342.39419,884.054573 1326.93386,907.564238 1298.95699,936.728169 L1295.12302,940.688424 L1293.16002,942.68959 C1289.0858,946.823178 1284.68748,951.162301 1277.68112,957.990428 L1273.07679,962.47033 L1272.18361,963.478856 L1271.61354,964.108664 C1271.2,964.560745 1270.85908,964.921488 1270.61187,965.168395 L1270.52034,965.258783 C1270.27847,965.494607 1270.14473,965.612374 1269.91088,965.748503 L1269.83708,965.802097 C1269.6654,965.920402 1269.54855,965.928781 1268.55538,966 L1268.12448,965.841781 C1267.52327,965.608166 1267.44618,965.473474 1266.98366,964.665321 L1266.9129,964.262494 C1266.85594,963.915568 1266.86835,963.855458 1266.92213,963.59498 L1267.03205,963.245235 C1267.0501,963.193787 1267.06445,963.160235 1267.08266,963.12411 L1267.21621,962.888669 L1267.24081,962.850261 C1267.34585,962.68909 1267.51412,962.467804 1267.75628,962.169837 L1268.17626,961.663307 L1268.31305,961.516368 L1270.17394,959.706778 L1270.58756,959.232633 C1274.38408,954.863217 1279.09482,949.027602 1283.9319,942.555563 C1298.27522,923.364118 1310.40999,903.237978 1317.92491,884.139567 C1329.47649,854.782381 1332.7925,812.361833 1327.80991,756.920816 C1327.71094,755.819554 1328.52397,754.846617 1329.62586,754.747701 C1330.72776,754.648785 1331.70125,755.461348 1331.80022,756.56261 Z M1269.20722,521 C1303.24162,521 1336.08998,535.484603 1361.00792,560.053542 C1384.88607,583.597249 1399.1277,614.216186 1399.41015,643.731893 L1399.41443,644.625962 L1399.40957,644.775713 C1399.27982,646.739062 1396.60896,647.361831 1395.64702,645.574245 C1386.65102,628.856904 1365.79847,622.593336 1349.07155,631.584175 C1343.13433,634.775468 1338.26658,639.640434 1335.07345,645.574245 C1334.31739,646.979254 1332.30107,646.979254 1331.545,645.574245 C1322.63897,629.024077 1302.11233,622.719653 1285.47256,631.319022 L1284.96953,631.584175 L1284.44845,631.870088 C1279.09295,634.869084 1274.64129,639.24464 1271.55219,644.53832 L1271.25752,645.053463 L1271.21109,645.140355 L1271.21028,687.843727 L1283.53943,724.811333 L1283.6971,725.271596 C1289.01332,740.389721 1305.50357,748.502972 1320.77132,743.416638 C1331.94245,739.695062 1339.80576,729.684332 1340.79337,717.98438 L1340.87346,716.912654 C1342.49779,695.630513 1350.10611,684.791509 1367.15686,685.98313 C1376.2371,686.617718 1382.39703,690.803456 1385.77915,698.075747 C1388.6048,704.151522 1389.44483,712.187672 1388.73667,722.30904 C1387.21768,744.019092 1379.62885,755.09033 1362.40586,753.886672 C1361.30223,753.809543 1360.47012,752.852857 1360.54729,751.749854 C1360.62446,750.646851 1361.5817,749.815217 1362.68533,749.892346 C1377.1324,750.902005 1383.35512,741.823768 1384.74005,722.02973 C1386.15775,701.767245 1381.1382,690.974097 1366.87739,689.977456 C1353.00243,689.007781 1346.71334,697.342858 1345.01018,715.538914 L1344.91161,716.665284 L1344.78822,718.289316 C1343.67785,731.59553 1334.7401,742.983719 1322.03825,747.215242 C1304.69237,752.993887 1285.95759,743.776323 1279.91777,726.60044 L1279.73865,726.07753 L1267.30682,688.80343 L1267.26204,688.648646 C1267.23638,688.544424 1267.21915,688.438307 1267.21051,688.331324 L1267.20403,688.170329 L1267.20403,644.625962 L1267.21382,644.428229 C1267.23986,644.166033 1267.3175,643.910874 1267.44299,643.677679 C1270.9143,637.226916 1276.15822,631.907538 1282.55104,628.342914 L1283.07188,628.057748 L1283.63351,627.761703 C1300.91135,618.832581 1321.9426,624.295486 1332.80051,639.967182 L1333.12641,640.445203 L1333.3107,640.724065 L1333.72361,640.10972 C1337.05387,635.269822 1341.46152,631.244692 1346.61851,628.362199 L1347.17389,628.057748 L1347.73553,627.761703 C1363.89866,619.408654 1383.34652,623.650499 1394.6777,637.062551 L1395.01857,637.47178 L1395.13688,637.618256 L1395.07523,636.860378 C1392.84218,610.618969 1379.47855,583.89016 1358.19422,562.903945 C1334.00099,539.049569 1302.14846,525.00408 1269.20722,525.00408 C1236.59539,525.00408 1205.0506,538.770064 1180.9483,562.191261 L1180.22021,562.903945 L1179.5214,563.597871 C1158.8523,584.268751 1145.81041,610.379295 1143.40872,636.08165 L1143.33921,636.860378 L1143.27894,637.612473 L1143.61104,637.205979 C1146.5416,633.688302 1150.08213,630.699841 1154.08143,628.393654 L1154.65587,628.068856 L1155.22185,627.761095 C1172.82309,618.374282 1194.50839,623.856059 1205.63335,640.017429 L1205.96722,640.510432 L1207.87314,643.512581 C1208.47855,644.466346 1208.19623,645.730325 1207.24251,646.335798 C1206.30114,646.933424 1205.05456,646.666989 1204.43975,645.736758 C1204.43975,645.736758 1204.43975,645.736758 1204.43975,645.736758 L1204.355,645.596989 L1204.12213,645.177361 L1203.83767,644.674408 C1194.3335,628.183998 1173.31295,622.305849 1156.59904,631.570439 C1150.7412,634.817458 1145.9402,639.678231 1142.76741,645.574245 C1141.78142,647.40652 1139,646.706418 1139,644.625962 C1139,614.835472 1153.28716,583.835064 1177.40651,560.053542 C1202.32446,535.484603 1235.17281,521 1269.20722,521 Z M1269.95424,704.703684 C1271.05228,704.838812 1271.83281,705.837981 1271.6976,706.935389 C1270.4215,717.292969 1260.98572,724.655553 1250.62219,723.380179 C1242.16035,722.338833 1235.45904,715.771412 1234.22671,707.370668 L1234.16877,706.942687 C1234.02953,705.845783 1234.80638,704.843756 1235.90392,704.704596 C1236.95156,704.571762 1237.91271,705.273151 1238.11902,706.291211 L1238.14329,706.438746 L1238.15111,706.500333 C1239.00901,713.25874 1244.34643,718.573539 1251.11182,719.406114 C1259.27927,720.41123 1266.71556,714.60881 1267.72126,706.446045 C1267.85646,705.348637 1268.8562,704.568555 1269.95424,704.703684 Z" id="dude" fill="#363062" fill-rule="nonzero"></path>
        <path d="M1436,767 C1425.25912,770.67451 1419.12548,781.966335 1421.88964,792.976688 L1422.64865,796 L1422.64865,796" id="light" stroke="#363062" stroke-dasharray="2,2"></path>
        <path d="M1106.80435,900 C1108.53249,900 1109.94024,901.365811 1109.99815,903.072432 L1110,903.181818 L1110,926.818182 C1110,928.538842 1108.62825,929.940499 1106.91421,929.998155 L1106.80435,930 L1092.19565,930 C1090.46751,930 1089.05976,928.634189 1089.00185,926.927568 L1089,926.818182 L1089,911.136364 L1089.91304,911.136364 L1089.91304,926.818182 C1089.91304,928.040343 1090.88192,929.03719 1092.09664,929.088809 L1092.19565,929.090909 L1106.80435,929.090909 C1108.03182,929.090909 1109.033,928.126224 1109.08485,926.916768 L1109.08696,926.818182 L1109.08696,903.181818 C1109.08696,901.959657 1108.11808,900.96281 1106.90336,900.911191 L1106.80435,900.909091 L1092.19565,900.909091 L1092.19565,900 L1106.80435,900 Z M1103.83696,918.636364 C1104.59335,918.636364 1105.20652,919.246884 1105.20652,920 C1105.20652,920.726219 1104.63636,921.319846 1103.91743,921.361322 L1103.83696,921.363636 L1095.7337,921.363636 C1095.41853,921.363636 1095.16304,921.61802 1095.16304,921.931818 C1095.16304,922.226004 1095.38759,922.46797 1095.67535,922.497067 L1095.7337,922.5 L1103.83696,922.5 C1104.59335,922.5 1105.20652,923.110521 1105.20652,923.863636 C1105.20652,924.589855 1104.63636,925.183482 1103.91743,925.224958 L1103.83696,925.227273 L1095.7337,925.227273 C1095.43823,925.227273 1095.19521,925.450852 1095.16599,925.737361 L1095.16304,925.795455 L1095.16304,926.818182 C1095.16304,927.06922 1094.95865,927.272727 1094.70652,927.272727 C1094.4724,927.272727 1094.27944,927.097254 1094.25307,926.871191 L1094.25,926.818182 L1094.25,925.795455 C1094.25,925.007713 1094.86925,924.363979 1095.6495,924.32052 L1095.7337,924.318182 L1103.83696,924.318182 C1104.08909,924.318182 1104.29348,924.114675 1104.29348,923.863636 C1104.29348,923.630529 1104.11724,923.438406 1103.8902,923.412149 L1103.83696,923.409091 L1095.7337,923.409091 C1094.91427,923.409091 1094.25,922.747693 1094.25,921.931818 C1094.25,921.144077 1094.86925,920.500343 1095.6495,920.456884 L1095.7337,920.454545 L1103.83696,920.454545 C1104.08909,920.454545 1104.29348,920.251039 1104.29348,920 C1104.29348,919.766893 1104.11724,919.574769 1103.8902,919.548513 L1103.83696,919.545455 L1094.70652,919.545455 C1094.45439,919.545455 1094.25,919.341948 1094.25,919.090909 C1094.25,918.857802 1094.42624,918.665679 1094.65328,918.639422 L1094.70652,918.636364 L1103.83696,918.636364 Z M1100.13234,906.120945 C1100.2899,906.198367 1100.42118,906.319149 1100.51107,906.468241 L1100.54702,906.533827 L1101.57398,908.606364 L1103.87155,908.938787 C1104.34789,909.007703 1104.68458,909.431163 1104.65113,909.901655 L1104.64381,909.969155 C1104.61906,910.138742 1104.54678,910.297313 1104.43608,910.42704 L1104.37758,910.489417 L1102.71528,912.102273 L1103.26409,915.288477 L1102.36418,915.442155 L1101.73426,911.785331 L1103.74026,909.838429 L1100.96804,909.437345 L1099.72826,906.93616 L1098.48848,909.437345 L1095.71626,909.838429 L1097.72226,911.785331 L1097.24871,914.5344 L1099.51582,913.347668 L1099.9407,914.152332 L1097.67359,915.339065 C1097.22725,915.572702 1096.6752,915.401842 1096.44055,914.957437 C1096.36045,914.805754 1096.32532,914.635164 1096.3383,914.465428 L1096.34881,914.380723 L1096.74078,912.102273 L1095.07895,910.489417 C1094.73686,910.157406 1094.71222,909.623365 1095.00985,909.262372 L1095.06244,909.203873 C1095.18258,909.081159 1095.33467,908.995176 1095.50081,908.95501 L1095.58497,908.938787 L1097.88209,908.606364 L1098.9095,906.533827 C1099.13267,906.083597 1099.68015,905.898743 1100.13234,906.120945 Z M1035.46479,850.000926 C1036.8281,850.000926 1037.94008,851.086712 1037.99766,852.447996 L1038,852.558958 L1038,869.441968 C1038,870.817552 1036.9239,871.939537 1035.57476,871.997637 L1035.46479,872 L1004.53521,872 C1003.1719,872 1002.05992,870.914214 1002.00234,869.55293 L1002,869.441968 L1002,850.512533 C1002,850.110633 1002.43363,849.87296 1002.7639,850.071216 L1002.81032,850.102533 L1020.06186,863.094468 L1032.53938,853.629948 C1032.746,853.473222 1033.03274,853.499891 1033.20798,853.682558 L1033.24936,853.731459 C1033.40469,853.939936 1033.37826,854.229255 1033.19722,854.406074 L1033.14875,854.447823 L1020.36784,864.142619 C1020.20588,864.265466 1019.98913,864.278102 1019.81588,864.180353 L1019.75987,864.143681 L1003.01408,851.532676 L1003.01408,869.441968 C1003.01408,870.259352 1003.64734,870.9275 1004.44583,870.974182 L1004.53521,870.976787 L1035.46479,870.976787 C1036.27488,870.976787 1036.93707,870.337832 1036.98333,869.53215 L1036.98592,869.441968 L1036.98592,852.558958 C1036.98592,851.741574 1036.35266,851.073427 1035.55417,851.026744 L1035.46479,851.024139 L1008.44328,851.024139 C1008.16325,851.024139 1007.93624,850.795085 1007.93624,850.512533 C1007.93624,850.250163 1008.13198,850.033921 1008.38415,850.004368 L1008.44328,850.000926 L1035.46479,850.000926 Z M1584.67391,814 C1587.55415,814 1589.9004,816.276351 1589.99691,819.12072 L1590,819.30303 L1590,858.69697 C1590,861.564736 1587.71375,863.900832 1584.85702,863.996925 L1584.67391,864 L1560.32609,864 C1557.44585,864 1555.0996,861.723649 1555.00309,858.87928 L1555,858.69697 L1555,832.560606 L1556.52174,832.560606 L1556.52174,858.69697 C1556.52174,860.733905 1558.13654,862.395317 1560.16106,862.481349 L1560.32609,862.484848 L1584.67391,862.484848 C1586.7197,862.484848 1588.38834,860.87704 1588.47475,858.86128 L1588.47826,858.69697 L1588.47826,819.30303 C1588.47826,817.266095 1586.86346,815.604683 1584.83894,815.518651 L1584.67391,815.515152 L1560.32609,815.515152 L1560.32609,814 L1584.67391,814 Z M1579.72826,845.060606 C1580.98891,845.060606 1582.01087,846.078141 1582.01087,847.333333 C1582.01087,848.543698 1581.0606,849.533076 1579.86238,849.602203 L1579.72826,849.606061 L1566.22283,849.606061 C1565.69756,849.606061 1565.27174,850.030033 1565.27174,850.55303 C1565.27174,851.04334 1565.64599,851.446617 1566.12558,851.495111 L1566.22283,851.5 L1579.72826,851.5 C1580.98891,851.5 1582.01087,852.517535 1582.01087,853.772727 C1582.01087,854.983092 1581.0606,855.97247 1579.86238,856.041596 L1579.72826,856.045455 L1566.22283,856.045455 C1565.73038,856.045455 1565.32535,856.418087 1565.27665,856.895602 L1565.27174,856.992424 L1565.27174,858.69697 C1565.27174,859.115367 1564.93109,859.454545 1564.51087,859.454545 C1564.12067,859.454545 1563.79907,859.162091 1563.75512,858.785319 L1563.75,858.69697 L1563.75,856.992424 C1563.75,855.679522 1564.78209,854.606632 1566.0825,854.534201 L1566.22283,854.530303 L1579.72826,854.530303 C1580.14848,854.530303 1580.48913,854.191125 1580.48913,853.772727 C1580.48913,853.384215 1580.1954,853.06401 1579.81699,853.020248 L1579.72826,853.015152 L1566.22283,853.015152 C1564.85712,853.015152 1563.75,851.912822 1563.75,850.55303 C1563.75,849.240128 1564.78209,848.167238 1566.0825,848.094807 L1566.22283,848.090909 L1579.72826,848.090909 C1580.14848,848.090909 1580.48913,847.751731 1580.48913,847.333333 C1580.48913,846.944821 1580.1954,846.624616 1579.81699,846.580854 L1579.72826,846.575758 L1564.51087,846.575758 C1564.09065,846.575758 1563.75,846.236579 1563.75,845.818182 C1563.75,845.42967 1564.04373,845.109464 1564.42214,845.065703 L1564.51087,845.060606 L1579.72826,845.060606 Z M1573.5539,824.201575 C1573.8165,824.330612 1574.0353,824.531915 1574.18512,824.780402 L1574.24503,824.889712 L1575.95663,828.343939 L1579.78592,828.897978 C1580.57982,829.012838 1581.14096,829.718604 1581.08522,830.502758 L1581.07302,830.615258 C1581.03177,830.897904 1580.9113,831.162188 1580.7268,831.378399 L1580.62929,831.482361 L1577.8588,834.170455 L1578.77348,839.480796 L1577.27364,839.736925 L1576.22377,833.642218 L1579.5671,830.397382 L1574.94673,829.728909 L1572.88043,825.560266 L1570.81414,829.728909 L1566.19377,830.397382 L1569.5371,833.642218 L1568.74785,838.224 L1572.52637,836.246113 L1573.2345,837.587221 L1569.45598,839.565108 C1568.71208,839.954503 1567.792,839.669736 1567.40091,838.929062 C1567.26742,838.676256 1567.20887,838.391939 1567.23049,838.109046 L1567.24801,837.967871 L1567.9013,834.170455 L1565.13158,831.482361 C1564.56143,830.92901 1564.52037,830.038942 1565.01642,829.437287 L1565.10407,829.339789 C1565.3043,829.135264 1565.55779,828.991961 1565.83468,828.925016 L1565.97495,828.897978 L1569.80348,828.343939 L1571.51584,824.889712 C1571.88778,824.139328 1572.80026,823.831238 1573.5539,824.201575 Z M1163,747 C1166.78545,747 1169.8691,750.004783 1169.99594,753.75935 L1170,754 L1170,806 C1170,809.785452 1166.99522,812.869099 1163.24065,812.995941 L1163,813 L1131,813 C1127.21455,813 1124.1309,809.995217 1124.00406,806.24065 L1124,806 L1124,771.5 L1126,771.5 L1126,806 C1126,808.688755 1128.12231,810.881818 1130.78311,810.99538 L1131,811 L1163,811 C1165.68875,811 1167.88182,808.877693 1167.99538,806.21689 L1168,806 L1168,754 C1168,751.311245 1165.87769,749.118182 1163.21689,749.00462 L1163,749 L1131,749 L1131,747 L1163,747 Z M1156.5,788 C1158.15685,788 1159.5,789.343146 1159.5,791 C1159.5,792.597681 1158.25108,793.903661 1156.67627,793.994907 L1156.5,794 L1138.75,794 C1138.05964,794 1137.5,794.559644 1137.5,795.25 C1137.5,795.897209 1137.99187,796.429534 1138.62219,796.493546 L1138.75,796.5 L1156.5,796.5 C1158.15685,796.5 1159.5,797.843146 1159.5,799.5 C1159.5,801.097681 1158.25108,802.403661 1156.67627,802.494907 L1156.5,802.5 L1138.75,802.5 C1138.10279,802.5 1137.57047,802.991875 1137.50645,803.622195 L1137.5,803.75 L1137.5,806 C1137.5,806.552285 1137.05228,807 1136.5,807 C1135.98716,807 1135.56449,806.61396 1135.50673,806.116621 L1135.5,806 L1135.5,803.75 C1135.5,802.016969 1136.85645,800.600754 1138.56558,800.505145 L1138.75,800.5 L1156.5,800.5 C1157.05228,800.5 1157.5,800.052285 1157.5,799.5 C1157.5,798.987164 1157.11396,798.564493 1156.61662,798.506728 L1156.5,798.5 L1138.75,798.5 C1136.95507,798.5 1135.5,797.044925 1135.5,795.25 C1135.5,793.516969 1136.85645,792.100754 1138.56558,792.005145 L1138.75,792 L1156.5,792 C1157.05228,792 1157.5,791.552285 1157.5,791 C1157.5,790.487164 1157.11396,790.064493 1156.61662,790.006728 L1156.5,790 L1136.5,790 C1135.94772,790 1135.5,789.552285 1135.5,789 C1135.5,788.487164 1135.88604,788.064493 1136.38338,788.006728 L1136.5,788 L1156.5,788 Z M1148.38513,760.466079 C1148.73025,760.636407 1149.01782,760.902128 1149.21473,761.230131 L1149.29347,761.37442 L1151.543,765.934 L1156.57579,766.66533 C1157.61919,766.816946 1158.35669,767.748558 1158.28344,768.783641 L1158.2674,768.932141 C1158.21319,769.305233 1158.05485,769.654088 1157.81237,769.939487 L1157.68421,770.076717 L1154.043,773.625 L1155.24514,780.63465 L1153.27392,780.97274 L1151.89409,772.927728 L1156.28819,768.644544 L1150.2157,767.76216 L1147.5,762.259551 L1144.7843,767.76216 L1138.71181,768.644544 L1143.10591,772.927728 L1142.0686,778.97568 L1147.03466,776.364869 L1147.96534,778.135131 L1142.99928,780.745943 C1142.02159,781.259944 1140.81234,780.884051 1140.29834,779.906362 C1140.1229,779.572658 1140.04595,779.19736 1140.07436,778.823941 L1140.09738,778.63759 L1140.956,773.625 L1137.31579,770.076717 C1136.56645,769.346294 1136.51249,768.171403 1137.16444,767.377219 L1137.27964,767.248521 C1137.5428,766.978549 1137.87595,766.789388 1138.23987,766.701022 L1138.42421,766.66533 L1143.456,765.934 L1145.70653,761.37442 C1146.19537,760.383913 1147.39462,759.977235 1148.38513,760.466079 Z M1501.20951,708.11006 L1501.28301,708.158459 L1528.59794,728.236905 L1548.35403,713.60992 C1548.68117,713.367707 1549.13517,713.408922 1549.41264,713.691226 L1549.47815,713.7668 C1549.72409,714.088992 1549.68224,714.536121 1549.39559,714.809387 L1549.31886,714.873909 L1529.08241,729.856775 C1528.82598,730.04663 1528.48279,730.066157 1528.20847,729.915091 L1528.1198,729.858417 L1501.60563,710.368681 L1501.60563,738.046678 C1501.60563,739.309907 1502.60829,740.342499 1503.87257,740.414645 L1504.01408,740.418671 L1552.98592,740.418671 C1554.26856,740.418671 1555.31702,739.431195 1555.39028,738.186051 L1555.39437,738.046678 L1555.39437,711.954753 C1555.39437,710.691524 1554.39171,709.658932 1553.12743,709.586787 L1552.98592,709.58276 L1510.20186,709.58276 C1509.75848,709.58276 1509.39904,709.228768 1509.39904,708.792096 C1509.39904,708.386615 1509.70896,708.052424 1510.10824,708.006751 L1510.20186,708.001432 L1552.98592,708.001432 C1555.14449,708.001432 1556.90512,709.679464 1556.99629,711.783267 L1557,711.954753 L1557,738.046678 C1557,740.172581 1555.29618,741.906558 1553.16004,741.996348 L1552.98592,742 L1504.01408,742 C1501.85551,742 1500.09488,740.321968 1500.00371,738.218165 L1500,738.046678 L1500,708.792096 C1500,708.170979 1500.68658,707.803665 1501.20951,708.11006 Z M1031.50658,682.1392 L1031.59813,682.200413 L1065.622,707.594811 L1090.23045,689.095198 C1090.63795,688.788856 1091.20346,688.840984 1091.54907,689.19803 L1091.63068,689.293613 C1091.93702,689.701108 1091.88489,690.266619 1091.52785,690.612235 L1091.43226,690.693839 L1066.22545,709.643555 C1065.90605,709.883677 1065.47857,709.908374 1065.13687,709.717311 L1065.02642,709.645632 L1032,684.995811 L1032,720.001811 C1032,721.599491 1033.24892,722.905471 1034.82373,722.996718 L1035,723.001811 L1096,723.001811 C1097.59768,723.001811 1098.90366,721.752891 1098.99491,720.178083 L1099,720.001811 L1099,687.001811 C1099,685.40413 1097.75108,684.09815 1096.17627,684.006903 L1096,684.001811 L1042.70758,684.001811 C1042.1553,684.001811 1041.70758,683.554095 1041.70758,683.001811 C1041.70758,682.488975 1042.09362,682.066303 1042.59096,682.008538 L1042.70758,682.001811 L1096,682.001811 C1098.68875,682.001811 1100.88182,684.124117 1100.99538,686.784921 L1101,687.001811 L1101,720.001811 C1101,722.690565 1098.87769,724.883629 1096.21689,724.997191 L1096,725.001811 L1035,725.001811 C1032.31125,725.001811 1030.11818,722.879504 1030.00462,720.2187 L1030,720.001811 L1030,683.001811 C1030,682.216247 1030.85522,681.751684 1031.50658,682.1392 Z M1479,627 C1482.78545,627 1485.8691,630.004783 1485.99594,633.75935 L1486,634 L1486,686 C1486,689.785452 1482.99522,692.869099 1479.24065,692.995941 L1479,693 L1447,693 C1443.21455,693 1440.1309,689.995217 1440.00406,686.24065 L1440,686 L1440,651.5 L1442,651.5 L1442,686 C1442,688.688755 1444.12231,690.881818 1446.78311,690.99538 L1447,691 L1479,691 C1481.68875,691 1483.88182,688.877693 1483.99538,686.21689 L1484,686 L1484,634 C1484,631.311245 1481.87769,629.118182 1479.21689,629.00462 L1479,629 L1447,629 L1447,627 L1479,627 Z M1472.5,668 C1474.15685,668 1475.5,669.343146 1475.5,671 C1475.5,672.597681 1474.25108,673.903661 1472.67627,673.994907 L1472.5,674 L1454.75,674 C1454.05964,674 1453.5,674.559644 1453.5,675.25 C1453.5,675.897209 1453.99187,676.429534 1454.62219,676.493546 L1454.75,676.5 L1472.5,676.5 C1474.15685,676.5 1475.5,677.843146 1475.5,679.5 C1475.5,681.097681 1474.25108,682.403661 1472.67627,682.494907 L1472.5,682.5 L1454.75,682.5 C1454.10279,682.5 1453.57047,682.991875 1453.50645,683.622195 L1453.5,683.75 L1453.5,686 C1453.5,686.552285 1453.05228,687 1452.5,687 C1451.98716,687 1451.56449,686.61396 1451.50673,686.116621 L1451.5,686 L1451.5,683.75 C1451.5,682.016969 1452.85645,680.600754 1454.56558,680.505145 L1454.75,680.5 L1472.5,680.5 C1473.05228,680.5 1473.5,680.052285 1473.5,679.5 C1473.5,678.987164 1473.11396,678.564493 1472.61662,678.506728 L1472.5,678.5 L1454.75,678.5 C1452.95507,678.5 1451.5,677.044925 1451.5,675.25 C1451.5,673.516969 1452.85645,672.100754 1454.56558,672.005145 L1454.75,672 L1472.5,672 C1473.05228,672 1473.5,671.552285 1473.5,671 C1473.5,670.487164 1473.11396,670.064493 1472.61662,670.006728 L1472.5,670 L1452.5,670 C1451.94772,670 1451.5,669.552285 1451.5,669 C1451.5,668.487164 1451.88604,668.064493 1452.38338,668.006728 L1452.5,668 L1472.5,668 Z M1464.38513,640.466079 C1464.73025,640.636407 1465.01782,640.902128 1465.21473,641.230131 L1465.29347,641.37442 L1467.543,645.934 L1472.57579,646.66533 C1473.61919,646.816946 1474.35669,647.748558 1474.28344,648.783641 L1474.2674,648.932141 C1474.21319,649.305233 1474.05485,649.654088 1473.81237,649.939487 L1473.68421,650.076717 L1470.043,653.625 L1471.24514,660.63465 L1469.27392,660.97274 L1467.89409,652.927728 L1472.28819,648.644544 L1466.2157,647.76216 L1463.5,642.259551 L1460.7843,647.76216 L1454.71181,648.644544 L1459.10591,652.927728 L1458.0686,658.97568 L1463.03466,656.364869 L1463.96534,658.135131 L1458.99928,660.745943 C1458.02159,661.259944 1456.81234,660.884051 1456.29834,659.906362 C1456.1229,659.572658 1456.04595,659.19736 1456.07436,658.823941 L1456.09738,658.63759 L1456.956,653.625 L1453.31579,650.076717 C1452.56645,649.346294 1452.51249,648.171403 1453.16444,647.377219 L1453.27964,647.248521 C1453.5428,646.978549 1453.87595,646.789388 1454.23987,646.701022 L1454.42421,646.66533 L1459.456,645.934 L1461.70653,641.37442 C1462.19537,640.383913 1463.39462,639.977235 1464.38513,640.466079 Z M1032.67391,555 C1035.55415,555 1037.9004,557.276351 1037.99691,560.12072 L1038,560.30303 L1038,599.69697 C1038,602.564736 1035.71375,604.900832 1032.85702,604.996925 L1032.67391,605 L1008.32609,605 C1005.44585,605 1003.0996,602.723649 1003.00309,599.87928 L1003,599.69697 L1003,573.560606 L1004.52174,573.560606 L1004.52174,599.69697 C1004.52174,601.733905 1006.13654,603.395317 1008.16106,603.481349 L1008.32609,603.484848 L1032.67391,603.484848 C1034.7197,603.484848 1036.38834,601.87704 1036.47475,599.86128 L1036.47826,599.69697 L1036.47826,560.30303 C1036.47826,558.266095 1034.86346,556.604683 1032.83894,556.518651 L1032.67391,556.515152 L1008.32609,556.515152 L1008.32609,555 L1032.67391,555 Z M1027.72826,586.060606 C1028.98891,586.060606 1030.01087,587.078141 1030.01087,588.333333 C1030.01087,589.543698 1029.0606,590.533076 1027.86238,590.602203 L1027.72826,590.606061 L1014.22283,590.606061 C1013.69756,590.606061 1013.27174,591.030033 1013.27174,591.55303 C1013.27174,592.04334 1013.64599,592.446617 1014.12558,592.495111 L1014.22283,592.5 L1027.72826,592.5 C1028.98891,592.5 1030.01087,593.517535 1030.01087,594.772727 C1030.01087,595.983092 1029.0606,596.97247 1027.86238,597.041596 L1027.72826,597.045455 L1014.22283,597.045455 C1013.73038,597.045455 1013.32535,597.418087 1013.27665,597.895602 L1013.27174,597.992424 L1013.27174,599.69697 C1013.27174,600.115367 1012.93109,600.454545 1012.51087,600.454545 C1012.12067,600.454545 1011.79907,600.162091 1011.75512,599.785319 L1011.75,599.69697 L1011.75,597.992424 C1011.75,596.679522 1012.78209,595.606632 1014.0825,595.534201 L1014.22283,595.530303 L1027.72826,595.530303 C1028.14848,595.530303 1028.48913,595.191125 1028.48913,594.772727 C1028.48913,594.384215 1028.1954,594.06401 1027.81699,594.020248 L1027.72826,594.015152 L1014.22283,594.015152 C1012.85712,594.015152 1011.75,592.912822 1011.75,591.55303 C1011.75,590.240128 1012.78209,589.167238 1014.0825,589.094807 L1014.22283,589.090909 L1027.72826,589.090909 C1028.14848,589.090909 1028.48913,588.751731 1028.48913,588.333333 C1028.48913,587.944821 1028.1954,587.624616 1027.81699,587.580854 L1027.72826,587.575758 L1012.51087,587.575758 C1012.09065,587.575758 1011.75,587.236579 1011.75,586.818182 C1011.75,586.42967 1012.04373,586.109464 1012.42214,586.065703 L1012.51087,586.060606 L1027.72826,586.060606 Z M1021.5539,565.201575 C1021.8165,565.330612 1022.0353,565.531915 1022.18512,565.780402 L1022.24503,565.889712 L1023.95663,569.343939 L1027.78592,569.897978 C1028.57982,570.012838 1029.14096,570.718604 1029.08522,571.502758 L1029.07302,571.615258 C1029.03177,571.897904 1028.9113,572.162188 1028.7268,572.378399 L1028.62929,572.482361 L1025.8588,575.170455 L1026.77348,580.480796 L1025.27364,580.736925 L1024.22377,574.642218 L1027.5671,571.397382 L1022.94673,570.728909 L1020.88043,566.560266 L1018.81414,570.728909 L1014.19377,571.397382 L1017.5371,574.642218 L1016.74785,579.224 L1020.52637,577.246113 L1021.2345,578.587221 L1017.45598,580.565108 C1016.71208,580.954503 1015.792,580.669736 1015.40091,579.929062 C1015.26742,579.676256 1015.20887,579.391939 1015.23049,579.109046 L1015.24801,578.967871 L1015.9013,575.170455 L1013.13158,572.482361 C1012.56143,571.92901 1012.52037,571.038942 1013.01642,570.437287 L1013.10407,570.339789 C1013.3043,570.135264 1013.55779,569.991961 1013.83468,569.925016 L1013.97495,569.897978 L1017.80348,569.343939 L1019.51584,565.889712 C1019.88778,565.139328 1020.80026,564.831238 1021.5539,565.201575 Z M1501.46479,548.000926 C1502.8281,548.000926 1503.94008,549.086712 1503.99766,550.447996 L1504,550.558958 L1504,567.441968 C1504,568.817552 1502.9239,569.939537 1501.57476,569.997637 L1501.46479,570 L1470.53521,570 C1469.1719,570 1468.05992,568.914214 1468.00234,567.55293 L1468,567.441968 L1468,548.512533 C1468,548.110633 1468.43363,547.87296 1468.7639,548.071216 L1468.81032,548.102533 L1486.06186,561.094468 L1498.53938,551.629948 C1498.746,551.473222 1499.03274,551.499891 1499.20798,551.682558 L1499.24936,551.731459 C1499.40469,551.939936 1499.37826,552.229255 1499.19722,552.406074 L1499.14875,552.447823 L1486.36784,562.142619 C1486.20588,562.265466 1485.98913,562.278102 1485.81588,562.180353 L1485.75987,562.143681 L1469.01408,549.532676 L1469.01408,567.441968 C1469.01408,568.259352 1469.64734,568.9275 1470.44583,568.974182 L1470.53521,568.976787 L1501.46479,568.976787 C1502.27488,568.976787 1502.93707,568.337832 1502.98333,567.53215 L1502.98592,567.441968 L1502.98592,550.558958 C1502.98592,549.741574 1502.35266,549.073427 1501.55417,549.026744 L1501.46479,549.024139 L1474.44328,549.024139 C1474.16325,549.024139 1473.93624,548.795085 1473.93624,548.512533 C1473.93624,548.250163 1474.13198,548.033921 1474.38415,548.004368 L1474.44328,548.000926 L1501.46479,548.000926 Z M1107.20951,473.11006 L1107.28301,473.158459 L1134.59794,493.236905 L1154.35403,478.60992 C1154.68117,478.367707 1155.13517,478.408922 1155.41264,478.691226 L1155.47815,478.7668 C1155.72409,479.088992 1155.68224,479.536121 1155.39559,479.809387 L1155.31886,479.873909 L1135.08241,494.856775 C1134.82598,495.04663 1134.48279,495.066157 1134.20847,494.915091 L1134.1198,494.858417 L1107.60563,475.368681 L1107.60563,503.046678 C1107.60563,504.309907 1108.60829,505.342499 1109.87257,505.414645 L1110.01408,505.418671 L1158.98592,505.418671 C1160.26856,505.418671 1161.31702,504.431195 1161.39028,503.186051 L1161.39437,503.046678 L1161.39437,476.954753 C1161.39437,475.691524 1160.39171,474.658932 1159.12743,474.586787 L1158.98592,474.58276 L1116.20186,474.58276 C1115.75848,474.58276 1115.39904,474.228768 1115.39904,473.792096 C1115.39904,473.386615 1115.70896,473.052424 1116.10824,473.006751 L1116.20186,473.001432 L1158.98592,473.001432 C1161.14449,473.001432 1162.90512,474.679464 1162.99629,476.783267 L1163,476.954753 L1163,503.046678 C1163,505.172581 1161.29618,506.906558 1159.16004,506.996348 L1158.98592,507 L1110.01408,507 C1107.85551,507 1106.09488,505.321968 1106.00371,503.218165 L1106,503.046678 L1106,473.792096 C1106,473.170979 1106.68658,472.803665 1107.20951,473.11006 Z M1392.50658,447.1392 L1392.59813,447.200413 L1426.622,472.594811 L1451.23045,454.095198 C1451.63795,453.788856 1452.20346,453.840984 1452.54907,454.19803 L1452.63068,454.293613 C1452.93702,454.701108 1452.88489,455.266619 1452.52785,455.612235 L1452.43226,455.693839 L1427.22545,474.643555 C1426.90605,474.883677 1426.47857,474.908374 1426.13687,474.717311 L1426.02642,474.645632 L1393,449.995811 L1393,485.001811 C1393,486.599491 1394.24892,487.905471 1395.82373,487.996718 L1396,488.001811 L1457,488.001811 C1458.59768,488.001811 1459.90366,486.752891 1459.99491,485.178083 L1460,485.001811 L1460,452.001811 C1460,450.40413 1458.75108,449.09815 1457.17627,449.006903 L1457,449.001811 L1403.70758,449.001811 C1403.1553,449.001811 1402.70758,448.554095 1402.70758,448.001811 C1402.70758,447.488975 1403.09362,447.066303 1403.59096,447.008538 L1403.70758,447.001811 L1457,447.001811 C1459.68875,447.001811 1461.88182,449.124117 1461.99538,451.784921 L1462,452.001811 L1462,485.001811 C1462,487.690565 1459.87769,489.883629 1457.21689,489.997191 L1457,490.001811 L1396,490.001811 C1393.31125,490.001811 1391.11818,487.879504 1391.00462,485.2187 L1391,485.001811 L1391,448.001811 C1391,447.216247 1391.85522,446.751684 1392.50658,447.1392 Z M1553.67391,420 C1556.55415,420 1558.9004,422.276351 1558.99691,425.12072 L1559,425.30303 L1559,464.69697 C1559,467.564736 1556.71375,469.900832 1553.85702,469.996925 L1553.67391,470 L1529.32609,470 C1526.44585,470 1524.0996,467.723649 1524.00309,464.87928 L1524,464.69697 L1524,438.560606 L1525.52174,438.560606 L1525.52174,464.69697 C1525.52174,466.733905 1527.13654,468.395317 1529.16106,468.481349 L1529.32609,468.484848 L1553.67391,468.484848 C1555.7197,468.484848 1557.38834,466.87704 1557.47475,464.86128 L1557.47826,464.69697 L1557.47826,425.30303 C1557.47826,423.266095 1555.86346,421.604683 1553.83894,421.518651 L1553.67391,421.515152 L1529.32609,421.515152 L1529.32609,420 L1553.67391,420 Z M1548.72826,451.060606 C1549.98891,451.060606 1551.01087,452.078141 1551.01087,453.333333 C1551.01087,454.543698 1550.0606,455.533076 1548.86238,455.602203 L1548.72826,455.606061 L1535.22283,455.606061 C1534.69756,455.606061 1534.27174,456.030033 1534.27174,456.55303 C1534.27174,457.04334 1534.64599,457.446617 1535.12558,457.495111 L1535.22283,457.5 L1548.72826,457.5 C1549.98891,457.5 1551.01087,458.517535 1551.01087,459.772727 C1551.01087,460.983092 1550.0606,461.97247 1548.86238,462.041596 L1548.72826,462.045455 L1535.22283,462.045455 C1534.73038,462.045455 1534.32535,462.418087 1534.27665,462.895602 L1534.27174,462.992424 L1534.27174,464.69697 C1534.27174,465.115367 1533.93109,465.454545 1533.51087,465.454545 C1533.12067,465.454545 1532.79907,465.162091 1532.75512,464.785319 L1532.75,464.69697 L1532.75,462.992424 C1532.75,461.679522 1533.78209,460.606632 1535.0825,460.534201 L1535.22283,460.530303 L1548.72826,460.530303 C1549.14848,460.530303 1549.48913,460.191125 1549.48913,459.772727 C1549.48913,459.384215 1549.1954,459.06401 1548.81699,459.020248 L1548.72826,459.015152 L1535.22283,459.015152 C1533.85712,459.015152 1532.75,457.912822 1532.75,456.55303 C1532.75,455.240128 1533.78209,454.167238 1535.0825,454.094807 L1535.22283,454.090909 L1548.72826,454.090909 C1549.14848,454.090909 1549.48913,453.751731 1549.48913,453.333333 C1549.48913,452.944821 1549.1954,452.624616 1548.81699,452.580854 L1548.72826,452.575758 L1533.51087,452.575758 C1533.09065,452.575758 1532.75,452.236579 1532.75,451.818182 C1532.75,451.42967 1533.04373,451.109464 1533.42214,451.065703 L1533.51087,451.060606 L1548.72826,451.060606 Z M1542.5539,430.201575 C1542.8165,430.330612 1543.0353,430.531915 1543.18512,430.780402 L1543.24503,430.889712 L1544.95663,434.343939 L1548.78592,434.897978 C1549.57982,435.012838 1550.14096,435.718604 1550.08522,436.502758 L1550.07302,436.615258 C1550.03177,436.897904 1549.9113,437.162188 1549.7268,437.378399 L1549.62929,437.482361 L1546.8588,440.170455 L1547.77348,445.480796 L1546.27364,445.736925 L1545.22377,439.642218 L1548.5671,436.397382 L1543.94673,435.728909 L1541.88043,431.560266 L1539.81414,435.728909 L1535.19377,436.397382 L1538.5371,439.642218 L1537.74785,444.224 L1541.52637,442.246113 L1542.2345,443.587221 L1538.45598,445.565108 C1537.71208,445.954503 1536.792,445.669736 1536.40091,444.929062 C1536.26742,444.676256 1536.20887,444.391939 1536.23049,444.109046 L1536.24801,443.967871 L1536.9013,440.170455 L1534.13158,437.482361 C1533.56143,436.92901 1533.52037,436.038942 1534.01642,435.437287 L1534.10407,435.339789 C1534.3043,435.135264 1534.55779,434.991961 1534.83468,434.925016 L1534.97495,434.897978 L1538.80348,434.343939 L1540.51584,430.889712 C1540.88778,430.139328 1541.80026,429.831238 1542.5539,430.201575 Z M1288.46479,404.000926 C1289.8281,404.000926 1290.94008,405.086712 1290.99766,406.447996 L1291,406.558958 L1291,423.441968 C1291,424.817552 1289.9239,425.939537 1288.57476,425.997637 L1288.46479,426 L1257.53521,426 C1256.1719,426 1255.05992,424.914214 1255.00234,423.55293 L1255,423.441968 L1255,404.512533 C1255,404.110633 1255.43363,403.87296 1255.7639,404.071216 L1255.81032,404.102533 L1273.06186,417.094468 L1285.53938,407.629948 C1285.746,407.473222 1286.03274,407.499891 1286.20798,407.682558 L1286.24936,407.731459 C1286.40469,407.939936 1286.37826,408.229255 1286.19722,408.406074 L1286.14875,408.447823 L1273.36784,418.142619 C1273.20588,418.265466 1272.98913,418.278102 1272.81588,418.180353 L1272.75987,418.143681 L1256.01408,405.532676 L1256.01408,423.441968 C1256.01408,424.259352 1256.64734,424.9275 1257.44583,424.974182 L1257.53521,424.976787 L1288.46479,424.976787 C1289.27488,424.976787 1289.93707,424.337832 1289.98333,423.53215 L1289.98592,423.441968 L1289.98592,406.558958 C1289.98592,405.741574 1289.35266,405.073427 1288.55417,405.026744 L1288.46479,405.024139 L1261.44328,405.024139 C1261.16325,405.024139 1260.93624,404.795085 1260.93624,404.512533 C1260.93624,404.250163 1261.13198,404.033921 1261.38415,404.004368 L1261.44328,404.000926 L1288.46479,404.000926 Z M1074.23944,404.000632 C1075.18618,404.000632 1075.95839,404.74094 1075.99837,405.669088 L1076,405.744744 L1076,417.255887 C1076,418.193786 1075.25271,418.958775 1074.31581,418.998389 L1074.23944,419 L1052.76056,419 C1051.81382,419 1051.04161,418.259692 1051.00163,417.331543 L1051,417.255887 L1051,404.349454 C1051,404.075432 1051.30113,403.913382 1051.53049,404.048556 L1051.56272,404.069909 L1063.54296,412.928046 L1072.20791,406.474965 C1072.35139,406.368106 1072.55051,406.386289 1072.67221,406.510835 L1072.70094,406.544177 C1072.80881,406.68632 1072.79046,406.883583 1072.66473,407.004141 L1072.63108,407.032607 L1063.75544,413.642695 C1063.64297,413.726454 1063.49245,413.735069 1063.37214,413.668422 L1063.33325,413.643419 L1051.70423,405.045006 L1051.70423,417.255887 C1051.70423,417.813194 1052.14399,418.26875 1052.6985,418.300579 L1052.76056,418.302355 L1074.23944,418.302355 C1074.802,418.302355 1075.26185,417.866704 1075.29398,417.317375 L1075.29577,417.255887 L1075.29577,405.744744 C1075.29577,405.187437 1074.85601,404.731882 1074.3015,404.700053 L1074.23944,404.698277 L1055.4745,404.698277 C1055.28003,404.698277 1055.12239,404.542103 1055.12239,404.349454 C1055.12239,404.170565 1055.25832,404.023128 1055.43344,404.002978 L1055.4745,404.000632 L1074.23944,404.000632 Z M1182.67391,368 C1185.55415,368 1187.9004,370.276351 1187.99691,373.12072 L1188,373.30303 L1188,412.69697 C1188,415.564736 1185.71375,417.900832 1182.85702,417.996925 L1182.67391,418 L1158.32609,418 C1155.44585,418 1153.0996,415.723649 1153.00309,412.87928 L1153,412.69697 L1153,386.560606 L1154.52174,386.560606 L1154.52174,412.69697 C1154.52174,414.733905 1156.13654,416.395317 1158.16106,416.481349 L1158.32609,416.484848 L1182.67391,416.484848 C1184.7197,416.484848 1186.38834,414.87704 1186.47475,412.86128 L1186.47826,412.69697 L1186.47826,373.30303 C1186.47826,371.266095 1184.86346,369.604683 1182.83894,369.518651 L1182.67391,369.515152 L1158.32609,369.515152 L1158.32609,368 L1182.67391,368 Z M1398,349 C1401.78545,349 1404.8691,352.004783 1404.99594,355.75935 L1405,356 L1405,408 C1405,411.785452 1401.99522,414.869099 1398.24065,414.995941 L1398,415 L1366,415 C1362.21455,415 1359.1309,411.995217 1359.00406,408.24065 L1359,408 L1359,373.5 L1361,373.5 L1361,408 C1361,410.688755 1363.12231,412.881818 1365.78311,412.99538 L1366,413 L1398,413 C1400.68875,413 1402.88182,410.877693 1402.99538,408.21689 L1403,408 L1403,356 C1403,353.311245 1400.87769,351.118182 1398.21689,351.00462 L1398,351 L1366,351 L1366,349 L1398,349 Z M1177.72826,399.060606 C1178.98891,399.060606 1180.01087,400.078141 1180.01087,401.333333 C1180.01087,402.543698 1179.0606,403.533076 1177.86238,403.602203 L1177.72826,403.606061 L1164.22283,403.606061 C1163.69756,403.606061 1163.27174,404.030033 1163.27174,404.55303 C1163.27174,405.04334 1163.64599,405.446617 1164.12558,405.495111 L1164.22283,405.5 L1177.72826,405.5 C1178.98891,405.5 1180.01087,406.517535 1180.01087,407.772727 C1180.01087,408.983092 1179.0606,409.97247 1177.86238,410.041596 L1177.72826,410.045455 L1164.22283,410.045455 C1163.73038,410.045455 1163.32535,410.418087 1163.27665,410.895602 L1163.27174,410.992424 L1163.27174,412.69697 C1163.27174,413.115367 1162.93109,413.454545 1162.51087,413.454545 C1162.12067,413.454545 1161.79907,413.162091 1161.75512,412.785319 L1161.75,412.69697 L1161.75,410.992424 C1161.75,409.679522 1162.78209,408.606632 1164.0825,408.534201 L1164.22283,408.530303 L1177.72826,408.530303 C1178.14848,408.530303 1178.48913,408.191125 1178.48913,407.772727 C1178.48913,407.384215 1178.1954,407.06401 1177.81699,407.020248 L1177.72826,407.015152 L1164.22283,407.015152 C1162.85712,407.015152 1161.75,405.912822 1161.75,404.55303 C1161.75,403.240128 1162.78209,402.167238 1164.0825,402.094807 L1164.22283,402.090909 L1177.72826,402.090909 C1178.14848,402.090909 1178.48913,401.751731 1178.48913,401.333333 C1178.48913,400.944821 1178.1954,400.624616 1177.81699,400.580854 L1177.72826,400.575758 L1162.51087,400.575758 C1162.09065,400.575758 1161.75,400.236579 1161.75,399.818182 C1161.75,399.42967 1162.04373,399.109464 1162.42214,399.065703 L1162.51087,399.060606 L1177.72826,399.060606 Z M1391.5,390 C1393.15685,390 1394.5,391.343146 1394.5,393 C1394.5,394.597681 1393.25108,395.903661 1391.67627,395.994907 L1391.5,396 L1373.75,396 C1373.05964,396 1372.5,396.559644 1372.5,397.25 C1372.5,397.897209 1372.99187,398.429534 1373.62219,398.493546 L1373.75,398.5 L1391.5,398.5 C1393.15685,398.5 1394.5,399.843146 1394.5,401.5 C1394.5,403.097681 1393.25108,404.403661 1391.67627,404.494907 L1391.5,404.5 L1373.75,404.5 C1373.10279,404.5 1372.57047,404.991875 1372.50645,405.622195 L1372.5,405.75 L1372.5,408 C1372.5,408.552285 1372.05228,409 1371.5,409 C1370.98716,409 1370.56449,408.61396 1370.50673,408.116621 L1370.5,408 L1370.5,405.75 C1370.5,404.016969 1371.85645,402.600754 1373.56558,402.505145 L1373.75,402.5 L1391.5,402.5 C1392.05228,402.5 1392.5,402.052285 1392.5,401.5 C1392.5,400.987164 1392.11396,400.564493 1391.61662,400.506728 L1391.5,400.5 L1373.75,400.5 C1371.95507,400.5 1370.5,399.044925 1370.5,397.25 C1370.5,395.516969 1371.85645,394.100754 1373.56558,394.005145 L1373.75,394 L1391.5,394 C1392.05228,394 1392.5,393.552285 1392.5,393 C1392.5,392.487164 1392.11396,392.064493 1391.61662,392.006728 L1391.5,392 L1371.5,392 C1370.94772,392 1370.5,391.552285 1370.5,391 C1370.5,390.487164 1370.88604,390.064493 1371.38338,390.006728 L1371.5,390 L1391.5,390 Z M1171.5539,378.201575 C1171.8165,378.330612 1172.0353,378.531915 1172.18512,378.780402 L1172.24503,378.889712 L1173.95663,382.343939 L1177.78592,382.897978 C1178.57982,383.012838 1179.14096,383.718604 1179.08522,384.502758 L1179.07302,384.615258 C1179.03177,384.897904 1178.9113,385.162188 1178.7268,385.378399 L1178.62929,385.482361 L1175.8588,388.170455 L1176.77348,393.480796 L1175.27364,393.736925 L1174.22377,387.642218 L1177.5671,384.397382 L1172.94673,383.728909 L1170.88043,379.560266 L1168.81414,383.728909 L1164.19377,384.397382 L1167.5371,387.642218 L1166.74785,392.224 L1170.52637,390.246113 L1171.2345,391.587221 L1167.45598,393.565108 C1166.71208,393.954503 1165.792,393.669736 1165.40091,392.929062 C1165.26742,392.676256 1165.20887,392.391939 1165.23049,392.109046 L1165.24801,391.967871 L1165.9013,388.170455 L1163.13158,385.482361 C1162.56143,384.92901 1162.52037,384.038942 1163.01642,383.437287 L1163.10407,383.339789 C1163.3043,383.135264 1163.55779,382.991961 1163.83468,382.925016 L1163.97495,382.897978 L1167.80348,382.343939 L1169.51584,378.889712 C1169.88778,378.139328 1170.80026,377.831238 1171.5539,378.201575 Z M1383.38513,362.466079 C1383.73025,362.636407 1384.01782,362.902128 1384.21473,363.230131 L1384.29347,363.37442 L1386.543,367.934 L1391.57579,368.66533 C1392.61919,368.816946 1393.35669,369.748558 1393.28344,370.783641 L1393.2674,370.932141 C1393.21319,371.305233 1393.05485,371.654088 1392.81237,371.939487 L1392.68421,372.076717 L1389.043,375.625 L1390.24514,382.63465 L1388.27392,382.97274 L1386.89409,374.927728 L1391.28819,370.644544 L1385.2157,369.76216 L1382.5,364.259551 L1379.7843,369.76216 L1373.71181,370.644544 L1378.10591,374.927728 L1377.0686,380.97568 L1382.03466,378.364869 L1382.96534,380.135131 L1377.99928,382.745943 C1377.02159,383.259944 1375.81234,382.884051 1375.29834,381.906362 C1375.1229,381.572658 1375.04595,381.19736 1375.07436,380.823941 L1375.09738,380.63759 L1375.956,375.625 L1372.31579,372.076717 C1371.56645,371.346294 1371.51249,370.171403 1372.16444,369.377219 L1372.27964,369.248521 C1372.5428,368.978549 1372.87595,368.789388 1373.23987,368.701022 L1373.42421,368.66533 L1378.456,367.934 L1380.70653,363.37442 C1381.19537,362.383913 1382.39462,361.977235 1383.38513,362.466079 Z" id="spam" fill="#A6B1E1" fill-rule="nonzero"></path>
        <path d="M1086,967 L1558.4486,967 C1561.51455,967 1564,969.485447 1564,972.551402 C1564,975.617356 1561.51455,978.102804 1558.4486,978.102804 L1274.49069,978.102804 C1271.5641,978.102804 1269.19162,980.475276 1269.19162,983.401869 C1269.19162,986.328462 1271.5641,988.700935 1274.49069,988.700935 L1417.3051,988.700935 C1420.09233,988.700935 1422.35183,990.960432 1422.35183,993.747664 C1422.35183,996.534895 1420.09233,998.794393 1417.3051,998.794393 L1377.48728,998.794393 C1365.22346,998.794393 1355.28168,1008.73618 1355.28168,1021 L1355.28168,1021 L1355.28168,1021" id="ground" stroke="#424874" stroke-width="5" stroke-linecap="round" stroke-linejoin="round"></path>
        <path d="M1483,893 C1483.55228,893 1484,893.447715 1484,894 L1484,924 C1484,924.552285 1483.55228,925 1483,925 C1482.44772,925 1482,924.552285 1482,924 L1482,894 C1482,893.447715 1482.44772,893 1483,893 Z M1517,831 C1517.55228,831 1518,831.447715 1518,832 L1518,862 C1518,862.552285 1517.55228,863 1517,863 C1516.44772,863 1516,862.552285 1516,862 L1516,832 C1516,831.447715 1516.44772,831 1517,831 Z M1114,831 C1114.55228,831 1115,831.447715 1115,832 L1115,862 C1115,862.552285 1114.55228,863 1114,863 C1113.44772,863 1113,862.552285 1113,862 L1113,832 C1113,831.447715 1113.44772,831 1114,831 Z M1466,809 C1466.55228,809 1467,809.447715 1467,810 L1467,840 C1467,840.552285 1466.55228,841 1466,841 C1465.44772,841 1465,840.552285 1465,840 L1465,810 C1465,809.447715 1465.44772,809 1466,809 Z M1048,796 C1048.55228,796 1049,796.447715 1049,797 L1049,827 C1049,827.552285 1048.55228,828 1048,828 C1047.44772,828 1047,827.552285 1047,827 L1047,797 C1047,796.447715 1047.44772,796 1048,796 Z M1089,790 C1089.55228,790 1090,790.447715 1090,791 L1090,821 C1090,821.552285 1089.55228,822 1089,822 C1088.44772,822 1088,821.552285 1088,821 L1088,791 C1088,790.447715 1088.44772,790 1089,790 Z M983,790 C983.552285,790 984,790.447715 984,791 L984,821 C984,821.552285 983.552285,822 983,822 C982.447715,822 982,821.552285 982,821 L982,791 C982,790.447715 982.447715,790 983,790 Z M1065,774 C1065.55228,774 1066,774.447715 1066,775 L1066,805 C1066,805.552285 1065.55228,806 1065,806 C1064.44772,806 1064,805.552285 1064,805 L1064,775 C1064,774.447715 1064.44772,774 1065,774 Z M1500,767 C1500.55228,767 1501,767.447715 1501,768 L1501,798 C1501,798.552285 1500.55228,799 1500,799 C1499.44772,799 1499,798.552285 1499,798 L1499,768 C1499,767.447715 1499.44772,767 1500,767 Z M1541,758 C1541.55228,758 1542,758.447715 1542,759 L1542,789 C1542,789.552285 1541.55228,790 1541,790 C1540.44772,790 1540,789.552285 1540,789 L1540,759 C1540,758.447715 1540.44772,758 1541,758 Z M1482,751 C1482.55228,751 1483,751.447715 1483,752 L1483,782 C1483,782.552285 1482.55228,783 1482,783 C1481.44772,783 1481,782.552285 1481,782 L1481,752 C1481,751.447715 1481.44772,751 1482,751 Z M1031,735 C1031.55228,735 1032,735.447715 1032,736 L1032,766 C1032,766.552285 1031.55228,767 1031,767 C1030.44772,767 1030,766.552285 1030,766 L1030,736 C1030,735.447715 1030.44772,735 1031,735 Z M1009,722 C1009.55228,722 1010,722.447715 1010,723 L1010,753 C1010,753.552285 1009.55228,754 1009,754 C1008.44772,754 1008,753.552285 1008,753 L1008,723 C1008,722.447715 1008.44772,722 1009,722 Z M1464,715 C1464.55228,715 1465,715.447715 1465,716 L1465,746 C1465,746.552285 1464.55228,747 1464,747 C1463.44772,747 1463,746.552285 1463,746 L1463,716 C1463,715.447715 1463.44772,715 1464,715 Z M1127,660 C1127.55228,660 1128,660.447715 1128,661 L1128,691 C1128,691.552285 1127.55228,692 1127,692 C1126.44772,692 1126,691.552285 1126,691 L1126,661 C1126,660.447715 1126.44772,660 1127,660 Z M998,650 C998.552285,650 999,650.447715 999,651 L999,681 C999,681.552285 998.552285,682 998,682 C997.447715,682 997,681.552285 997,681 L997,651 C997,650.447715 997.447715,650 998,650 Z M1530,637 C1530.55228,637 1531,637.447715 1531,638 L1531,668 C1531,668.552285 1530.55228,669 1530,669 C1529.44772,669 1529,668.552285 1529,668 L1529,638 C1529,637.447715 1529.44772,637 1530,637 Z M1067,611 C1067.55228,611 1068,611.447715 1068,612 L1068,642 C1068,642.552285 1067.55228,643 1067,643 C1066.44772,643 1066,642.552285 1066,642 L1066,612 C1066,611.447715 1066.44772,611 1067,611 Z M1100,611 C1100.55228,611 1101,611.447715 1101,612 L1101,642 C1101,642.552285 1100.55228,643 1100,643 C1099.44772,643 1099,642.552285 1099,642 L1099,612 C1099,611.447715 1099.44772,611 1100,611 Z M1504,602 C1504.55228,602 1505,602.447715 1505,603 L1505,633 C1505,633.552285 1504.55228,634 1504,634 C1503.44772,634 1503,633.552285 1503,633 L1503,603 C1503,602.447715 1503.44772,602 1504,602 Z M1114,597 C1114.55228,597 1115,597.447715 1115,598 L1115,628 C1115,628.552285 1114.55228,629 1114,629 C1113.44772,629 1113,628.552285 1113,628 L1113,598 C1113,597.447715 1113.44772,597 1114,597 Z M1541,577 C1541.55228,577 1542,577.447715 1542,578 L1542,608 C1542,608.552285 1541.55228,609 1541,609 C1540.44772,609 1540,608.552285 1540,608 L1540,578 C1540,577.447715 1540.44772,577 1541,577 Z M1056,572 C1056.55228,572 1057,572.447715 1057,573 L1057,603 C1057,603.552285 1056.55228,604 1056,604 C1055.44772,604 1055,603.552285 1055,603 L1055,573 C1055,572.447715 1055.44772,572 1056,572 Z M1433,563 C1433.55228,563 1434,563.447715 1434,564 L1434,594 C1434,594.552285 1433.55228,595 1433,595 C1432.44772,595 1432,594.552285 1432,594 L1432,564 C1432,563.447715 1432.44772,563 1433,563 Z M1125,547 C1125.55228,547 1126,547.447715 1126,548 L1126,578 C1126,578.552285 1125.55228,579 1125,579 C1124.44772,579 1124,578.552285 1124,578 L1124,548 C1124,547.447715 1124.44772,547 1125,547 Z M1406,533 C1406.55228,533 1407,533.447715 1407,534 L1407,564 C1407,564.552285 1406.55228,565 1406,565 C1405.44772,565 1405,564.552285 1405,564 L1405,534 C1405,533.447715 1405.44772,533 1406,533 Z M1085,531 C1085.55228,531 1086,531.447715 1086,532 L1086,562 C1086,562.552285 1085.55228,563 1085,563 C1084.44772,563 1084,562.552285 1084,562 L1084,532 C1084,531.447715 1084.44772,531 1085,531 Z M1557,517 C1557.55228,517 1558,517.447715 1558,518 L1558,548 C1558,548.552285 1557.55228,549 1557,549 C1556.44772,549 1556,548.552285 1556,548 L1556,518 C1556,517.447715 1556.44772,517 1557,517 Z M1515,495 C1515.55228,495 1516,495.447715 1516,496 L1516,526 C1516,526.552285 1515.55228,527 1515,527 C1514.44772,527 1514,526.552285 1514,526 L1514,496 C1514,495.447715 1514.44772,495 1515,495 Z M1375,494 C1375.55228,494 1376,494.447715 1376,495 L1376,525 C1376,525.552285 1375.55228,526 1375,526 C1374.44772,526 1374,525.552285 1374,525 L1374,495 C1374,494.447715 1374.44772,494 1375,494 Z M1274,478 C1274.55228,478 1275,478.447715 1275,479 L1275,509 C1275,509.552285 1274.55228,510 1274,510 C1273.44772,510 1273,509.552285 1273,509 L1273,479 C1273,478.447715 1273.44772,478 1274,478 Z M1484,477 C1484.55228,477 1485,477.447715 1485,478 L1485,508 C1485,508.552285 1484.55228,509 1484,509 C1483.44772,509 1483,508.552285 1483,508 L1483,478 C1483,477.447715 1483.44772,477 1484,477 Z M1054,469 C1054.55228,469 1055,469.447715 1055,470 L1055,500 C1055,500.552285 1054.55228,501 1054,501 C1053.44772,501 1053,500.552285 1053,500 L1053,470 C1053,469.447715 1053.44772,469 1054,469 Z M1212,469 C1212.55228,469 1213,469.447715 1213,470 L1213,500 C1213,500.552285 1212.55228,501 1212,501 C1211.44772,501 1211,500.552285 1211,500 L1211,470 C1211,469.447715 1211.44772,469 1212,469 Z M1011,453 C1011.55228,453 1012,453.447715 1012,454 L1012,484 C1012,484.552285 1011.55228,485 1011,485 C1010.44772,485 1010,484.552285 1010,484 L1010,454 C1010,453.447715 1010.44772,453 1011,453 Z M1301,453 C1301.55228,453 1302,453.447715 1302,454 L1302,484 C1302,484.552285 1301.55228,485 1301,485 C1300.44772,485 1300,484.552285 1300,484 L1300,454 C1300,453.447715 1300.44772,453 1301,453 Z M1327,445 C1327.55228,445 1328,445.447715 1328,446 L1328,476 C1328,476.552285 1327.55228,477 1327,477 C1326.44772,477 1326,476.552285 1326,476 L1326,446 C1326,445.447715 1326.44772,445 1327,445 Z M1180,436 C1180.55228,436 1181,436.447715 1181,437 L1181,467 C1181,467.552285 1180.55228,468 1180,468 C1179.44772,468 1179,467.552285 1179,467 L1179,437 C1179,436.447715 1179.44772,436 1180,436 Z M1358,421 C1358.55228,421 1359,421.447715 1359,422 L1359,452 C1359,452.552285 1358.55228,453 1358,453 C1357.44772,453 1357,452.552285 1357,452 L1357,422 C1357,421.447715 1357.44772,421 1358,421 Z M1494,417 C1494.55228,417 1495,417.447715 1495,418 L1495,448 C1495,448.552285 1494.55228,449 1494,449 C1493.44772,449 1493,448.552285 1493,448 L1493,418 C1493,417.447715 1493.44772,417 1494,417 Z M1452,396 C1452.55228,396 1453,396.447715 1453,397 L1453,427 C1453,427.552285 1452.55228,428 1452,428 C1451.44772,428 1451,427.552285 1451,427 L1451,397 C1451,396.447715 1451.44772,396 1452,396 Z M1428,383 C1428.55228,383 1429,383.447715 1429,384 L1429,414 C1429,414.552285 1428.55228,415 1428,415 C1427.44772,415 1427,414.552285 1427,414 L1427,384 C1427,383.447715 1427.44772,383 1428,383 Z M1338,383 C1338.55228,383 1339,383.447715 1339,384 L1339,414 C1339,414.552285 1338.55228,415 1338,415 C1337.44772,415 1337,414.552285 1337,414 L1337,384 C1337,383.447715 1337.44772,383 1338,383 Z M1121,366 C1121.55228,366 1122,366.447715 1122,367 L1122,397 C1122,397.552285 1121.55228,398 1121,398 C1120.44772,398 1120,397.552285 1120,397 L1120,367 C1120,366.447715 1120.44772,366 1121,366 Z M1219,360 C1219.55228,360 1220,360.447715 1220,361 L1220,391 C1220,391.552285 1219.55228,392 1219,392 C1218.44772,392 1218,391.552285 1218,391 L1218,361 C1218,360.447715 1218.44772,360 1219,360 Z M1042,344 C1042.55228,344 1043,344.447715 1043,345 L1043,375 C1043,375.552285 1042.55228,376 1042,376 C1041.44772,376 1041,375.552285 1041,375 L1041,345 C1041,344.447715 1041.44772,344 1042,344 Z M1477,344 C1477.55228,344 1478,344.447715 1478,345 L1478,375 C1478,375.552285 1477.55228,376 1477,376 C1476.44772,376 1476,375.552285 1476,375 L1476,345 C1476,344.447715 1476.44772,344 1477,344 Z" id="rain" fill="#A6B1E1"></path>
    </g>
</svg>