<?xml version="1.0" encoding="UTF-8"?>
<svg width="1839px" height="1024px" viewBox="0 0 1839 1024" version="1.1" xmlns="http://www.w3.org/2000/svg" xmlns:xlink="http://www.w3.org/1999/xlink">
    <!-- Generator: Sketch 63.1 (92452) - https://sketch.com -->
    <title>figure2-dark</title>
    <desc>Created with Sketch.</desc>
    <g id="figure2-dark" stroke="none" stroke-width="1" fill="none" fill-rule="evenodd">
        <path d="M1331.80022,756.56261 C1336.83357,812.56848 1333.47229,855.5683 1321.65334,885.604963 C1315.12627,902.192873 1305.23447,919.454931 1293.46528,936.225212 L1292.37049,937.773166 L1293.33913,936.779373 L1295.20295,934.853435 L1296.90564,933.078552 C1324.45774,904.207531 1339.36567,881.087526 1345.37699,853.909033 C1345.57982,852.991982 1346.39323,852.339117 1347.33296,852.339117 C1358.89145,852.339117 1369.88207,858.701619 1380.39647,870.427721 C1388.88468,879.894118 1396.87332,892.608578 1404.6413,908.208548 L1405.13683,909.208206 C1409.00125,917.039235 1412.54938,925.000397 1416.36689,934.219901 L1417.11301,936.031391 L1416.83751,935.005992 C1405.7577,893.948068 1394.20162,863.322934 1380.95175,836.466503 L1380.51908,835.592077 C1378.40514,831.332108 1376.3029,827.266155 1373.92765,822.811782 L1366.03595,808.215972 L1365.07838,806.415523 L1364.42698,805.175312 L1363.77013,803.909043 C1360.35508,797.279112 1358.33396,792.583125 1356.91515,787.798449 C1355.52868,783.122818 1354.84492,778.583218 1354.84492,773.759052 C1354.84492,771.668966 1357.64675,770.977054 1358.62076,772.826609 C1369.18995,792.896552 1389.91238,805.537104 1412.56718,805.787888 L1413.25427,805.79169 L1433.18359,805.790689 L1447.35013,774.734046 L1443.46595,772.9222 L1430.78438,800.618667 C1430.34594,801.576209 1429.24685,802.022769 1428.27415,801.66567 L1428.12929,801.606041 C1427.1712,801.167845 1426.72439,800.069388 1427.08169,799.097249 L1427.14135,798.952474 L1440.66287,769.422386 C1441.10363,768.459797 1442.21126,768.014461 1443.18634,768.380275 L1443.33151,768.441268 L1450.84346,771.944838 C1451.79226,772.387357 1452.23236,773.478975 1451.87818,774.445566 L1451.81906,774.58952 L1436.29435,808.624198 C1435.99054,809.290249 1435.34965,809.733574 1434.62753,809.789724 L1434.47164,809.79577 L1413.25427,809.79577 C1392.01783,809.795789 1372.30224,799.565472 1360.04874,782.689682 L1359.64355,782.124576 C1359.8866,783.385278 1360.18387,784.637559 1360.53746,785.901125 L1360.75639,786.660705 L1360.98163,787.401853 L1361.22458,788.163451 L1361.48766,788.9498 C1363.06413,793.553412 1365.38742,798.48505 1369.25058,805.731908 L1376.24479,818.653684 L1377.46477,820.931416 C1379.65732,825.043205 1381.62078,828.830016 1383.5753,832.742525 L1384.10829,833.813028 C1398.38381,862.580683 1410.69625,895.553423 1422.51631,940.781848 C1424.34439,947.776825 1426.14161,955.010075 1427.90775,962.492127 C1428.45689,964.81849 1425.2011,965.976546 1424.1562,963.826519 L1423.86249,963.210672 L1423.50182,962.4262 L1422.97961,961.24574 C1422.43088,959.982032 1421.79765,958.457623 1421.0351,956.57389 L1415.53066,942.777729 L1414.58347,940.433085 L1413.61751,938.063807 L1412.58605,935.56052 C1408.82959,926.496956 1405.3374,918.667038 1401.54369,910.979301 C1384.94362,877.340201 1367.60874,857.553845 1349.0577,856.396939 L1348.91949,856.389244 L1348.89802,856.483946 C1342.39419,884.054573 1326.93386,907.564238 1298.95699,936.728169 L1295.12302,940.688424 L1292.54617,943.311455 C1288.63945,947.263313 1284.33716,951.503707 1277.68112,957.990428 L1273.07679,962.47033 L1272.18361,963.478856 L1271.61354,964.108664 L1271.27735,964.473269 C1271.11864,964.643862 1270.97438,964.796499 1270.84622,964.929407 L1270.52034,965.258783 C1270.27847,965.494607 1270.14473,965.612374 1269.91088,965.748503 L1269.83708,965.802097 L1269.77345,965.841646 C1269.62249,965.923479 1269.42441,965.937683 1268.55538,966 L1268.12448,965.841781 C1267.52327,965.608166 1267.44618,965.473474 1266.98366,964.665321 L1266.9129,964.262494 C1266.85594,963.915568 1266.86835,963.855458 1266.92213,963.59498 L1267.03205,963.245235 L1267.06545,963.160136 C1267.07095,963.147908 1267.07659,963.136152 1267.08266,963.12411 L1267.21621,962.888669 L1267.24081,962.850261 C1267.34585,962.68909 1267.51412,962.467804 1267.75628,962.169837 L1268.17626,961.663307 L1268.31305,961.516368 L1270.17394,959.706778 L1270.58756,959.232633 L1271.41481,958.27419 C1274.91758,954.189691 1279.1043,948.983595 1283.41416,943.246522 L1283.9319,942.555563 C1298.27522,923.364118 1310.40999,903.237978 1317.92491,884.139567 C1329.47649,854.782381 1332.7925,812.361833 1327.80991,756.920816 C1327.71094,755.819554 1328.52397,754.846617 1329.62586,754.747701 C1330.72776,754.648785 1331.70125,755.461348 1331.80022,756.56261 Z M1367.15686,685.98313 C1376.2371,686.617718 1382.39703,690.803456 1385.77915,698.075747 C1388.6048,704.151522 1389.44483,712.187672 1388.73667,722.30904 C1387.21768,744.019092 1379.62885,755.09033 1362.40586,753.886672 C1361.30223,753.809543 1360.47012,752.852857 1360.54729,751.749854 C1360.62446,750.646851 1361.5817,749.815217 1362.68533,749.892346 C1377.1324,750.902005 1383.35512,741.823768 1384.74005,722.02973 L1384.81736,720.825347 C1385.95327,701.339437 1380.85298,690.954164 1366.87739,689.977456 C1353.00243,689.007781 1346.71334,697.342858 1345.01018,715.538914 L1344.91161,716.665284 L1344.78822,718.289316 C1343.70372,731.285505 1335.15234,742.452005 1322.9199,746.907879 C1322.5,747 1322.86388,746.907094 1322.5,747 C1297.67302,753.338804 1271.56231,771.436106 1264.00665,789.103826 L1243.76913,851.388894 C1243.71931,851.542226 1243.65119,851.688783 1243.56639,851.825439 L1243.47608,851.958679 L1239.1416,857.83033 C1236.51754,861.384974 1231.50871,862.139363 1227.95406,859.515305 C1226.00612,858.077325 1224.81848,855.838181 1224.71301,853.429586 L1224.70557,853.139781 L1224.69558,851.84202 L1223.92469,852.886058 C1221.50248,856.167268 1217.04828,857.062462 1213.58153,855.116876 L1213.43234,855.029492 L1213.42942,938.292787 L1262.36579,870.929986 L1262.20629,870.914395 C1260.94624,870.767666 1259.70504,870.318979 1258.59454,869.551493 L1258.38787,869.403849 C1256.43993,867.965869 1255.25229,865.726724 1255.14682,863.31813 L1255.13938,863.028325 L1255.08398,855.730314 C1255.07559,854.625777 1255.9642,853.723574 1257.06874,853.715189 C1258.12068,853.707204 1258.9891,854.512816 1259.07666,855.543701 L1259.08386,855.699949 L1259.13927,862.99796 C1259.14882,864.256953 1259.75058,865.437972 1260.76351,866.185722 C1262.48529,867.45675 1264.88943,867.142482 1266.23084,865.505748 L1266.35728,865.343234 L1270.69176,859.471584 C1272.23855,857.376246 1275.35499,859.595196 1274.0053,861.708283 L1273.91891,861.834906 L1213.04693,945.625429 C1211.94265,947.145472 1209.5778,946.43402 1209.43556,944.622829 L1209.42884,944.449842 L1209.43321,840.882232 C1209.43332,838.277812 1213.25845,838.212307 1213.42746,840.713954 L1213.43315,840.867134 L1213.48855,848.165145 C1213.49811,849.424138 1214.09987,850.605157 1215.1128,851.352906 C1216.83458,852.623935 1219.23872,852.309666 1220.58013,850.672932 L1220.70657,850.510419 L1225.04105,844.638768 C1226.14797,843.139297 1228.48801,843.843285 1228.64212,845.639814 L1228.65006,845.811406 L1228.70546,853.109417 C1228.71502,854.368409 1229.31678,855.549429 1230.3297,856.297178 C1232.05148,857.568207 1234.45562,857.253938 1235.79703,855.617204 L1235.92347,855.454691 L1240.06595,849.84183 L1259.49967,790.028872 C1259.49619,789.791361 1259.53528,789.549211 1259.62175,789.312837 C1259.81682,788.779651 1260.02686,788.246713 1260.25145,787.714265 L1260.66904,786.432039 C1260.78351,786.079755 1260.98647,785.780956 1261.24533,785.552259 C1269.9676,767.966198 1295.42181,750.934174 1319.5,744 C1320.16169,743.75522 1320.5,743.5 1320.77132,743.416638 C1331.94245,739.695062 1339.80576,729.684332 1340.79337,717.98438 L1340.87346,716.912654 C1342.49779,695.630513 1350.10611,684.791509 1367.15686,685.98313 Z" id="Shape" fill="#F4EEFF" fill-rule="nonzero"></path>
        <path d="M1436,767 C1425.25912,770.67451 1419.12548,781.966335 1421.88964,792.976688 L1422.64865,796 L1422.64865,796" id="light" stroke="#F4EEFF" stroke-dasharray="2,2"></path>
        <path d="M1086,967 L1558.4486,967 C1561.51455,967 1564,969.485447 1564,972.551402 C1564,975.617356 1561.51455,978.102804 1558.4486,978.102804 L1274.49069,978.102804 C1271.5641,978.102804 1269.19162,980.475276 1269.19162,983.401869 C1269.19162,986.328462 1271.5641,988.700935 1274.49069,988.700935 L1417.3051,988.700935 C1420.09233,988.700935 1422.35183,990.960432 1422.35183,993.747664 C1422.35183,996.534895 1420.09233,998.794393 1417.3051,998.794393 L1377.48728,998.794393 C1365.22346,998.794393 1355.28168,1008.73618 1355.28168,1021 L1355.28168,1021 L1355.28168,1021" id="ground" stroke="#A6B1E1" stroke-width="5" stroke-linecap="round" stroke-linejoin="round"></path>
        <path d="M1262.34623,763.229609 C1263.44427,763.364738 1264.2248,764.363906 1264.08959,765.461314 C1262.81349,775.818895 1253.3777,783.181478 1243.01418,781.906104 C1238.97496,781.409022 1235.33688,779.652771 1232.50332,777.039003 C1229.40081,774.17715 1232.28428,770.946974 1234.28259,773.150642 C1236.62189,775.73035 1239.85519,777.483026 1243.50381,777.932039 C1251.67125,778.937155 1259.10755,773.134735 1260.11325,764.97197 C1260.24845,763.874562 1261.24819,763.09448 1262.34623,763.229609 Z" id="Path" fill="#F4EEFF" fill-rule="nonzero" transform="translate(1247.621669, 772.632043) rotate(-160.000000) translate(-1247.621669, -772.632043) "></path>
        <circle id="Oval" stroke="#424874" stroke-width="4" cx="1060.83821" cy="454.838206" r="78"></circle>
        <path d="M1017.05963,575.118861 L1017.05963,575.118861 L1017.05963,575.118861 C1018.19385,544.508133 994.298418,518.773768 963.68769,517.639547 C959.088735,517.469141 954.48645,517.871789 949.986954,518.838206 L949.986954,518.838206 L949.986954,518.838206 C970.532014,496.118091 968.768784,461.044737 946.048669,440.499676 C942.6352,437.412987 938.850828,434.763141 934.782813,432.611239 L934.782813,432.611239 L934.782813,432.611239 C965.125451,428.412731 986.319456,400.411601 982.120948,370.068963 C981.490165,365.510286 980.294456,361.047839 978.561392,356.784517 L978.561392,356.784517 L978.561392,356.784517 C1004.50395,373.072145 1038.73828,365.245278 1055.02591,339.302721 C1057.47296,335.405112 1059.4254,331.218092 1060.83821,326.838206 L1060.83821,326.838206 L1060.83821,326.838206 C1070.24187,355.990807 1101.4979,372.000482 1130.6505,362.596816 C1135.03039,361.184009 1139.21741,359.23157 1143.11502,356.784517 L1143.11502,356.784517 L1143.11502,356.784517 C1131.57972,385.161266 1145.2324,417.516378 1173.60915,429.051682 C1177.87247,430.784746 1182.33492,431.980455 1186.8936,432.611239 L1186.8936,432.611239 L1186.8936,432.611239 C1159.81682,446.934339 1149.47792,480.495571 1163.80102,507.57235 C1165.95292,511.640364 1168.60277,515.424736 1171.68946,518.838206 L1171.68946,518.838206 L1171.68946,518.838206 C1141.74073,512.405719 1112.24793,531.469398 1105.81544,561.418125 C1104.84903,565.917621 1104.44638,570.519906 1104.61678,575.118861 L1104.61678,575.118861 L1104.61678,575.118861 C1085.80945,550.94062 1050.96276,546.586639 1026.78452,565.393972 C1023.15198,568.219585 1019.88524,571.486323 1017.05963,575.118861 Z" id="Star" stroke="#424874" stroke-width="4" transform="translate(1060.838206, 454.838206) rotate(23.000000) translate(-1060.838206, -454.838206) "></path>
        <path d="M1585,852 C1586.10457,852 1587,852.895431 1587,854 C1587,855.104569 1586.10457,856 1585,856 L1425,856 C1423.89543,856 1423,855.104569 1423,854 C1423,852.895431 1423.89543,852 1425,852 L1585,852 Z M1649,832 C1650.10457,832 1651,832.895431 1651,834 C1651,835.104569 1650.10457,836 1649,836 L1419,836 C1417.89543,836 1417,835.104569 1417,834 C1417,832.895431 1417.89543,832 1419,832 L1649,832 Z M1649,812 C1650.10457,812 1651,812.895431 1651,814 C1651,815.104569 1650.10457,816 1649,816 L1450,816 C1448.89543,816 1448,815.104569 1448,814 C1448,812.895431 1448.89543,812 1450,812 L1649,812 Z M1649,791 C1650.10457,791 1651,791.895431 1651,793 C1651,794.104569 1650.10457,795 1649,795 L1469,795 C1467.89543,795 1467,794.104569 1467,793 C1467,791.895431 1467.89543,791 1469,791 L1649,791 Z M1649,771 C1650.10457,771 1651,771.895431 1651,773 C1651,774.104569 1650.10457,775 1649,775 L1478,775 C1476.89543,775 1476,774.104569 1476,773 C1476,771.895431 1476.89543,771 1478,771 L1649,771 Z M1649,751 C1650.10457,751 1651,751.895431 1651,753 C1651,754.104569 1650.10457,755 1649,755 L1416,755 C1414.89543,755 1414,754.104569 1414,753 C1414,751.895431 1414.89543,751 1416,751 L1649,751 Z M1649,731 C1650.10457,731 1651,731.895431 1651,733 C1651,734.104569 1650.10457,735 1649,735 L1416,735 C1414.89543,735 1414,734.104569 1414,733 C1414,731.895431 1414.89543,731 1416,731 L1649,731 Z M1649,711 C1650.10457,711 1651,711.895431 1651,713 C1651,714.104569 1650.10457,715 1649,715 L1413,715 C1411.89543,715 1411,714.104569 1411,713 C1411,711.895431 1411.89543,711 1413,711 L1649,711 Z M1649,691 C1650.10457,691 1651,691.895431 1651,693 C1651,694.104569 1650.10457,695 1649,695 L1408,695 C1406.89543,695 1406,694.104569 1406,693 C1406,691.895431 1406.89543,691 1408,691 L1649,691 Z M1457,631 C1458.10457,631 1459,631.895431 1459,633 C1459,634.104569 1458.10457,635 1457,635 L1333,635 C1331.89543,635 1331,634.104569 1331,633 C1331,631.895431 1331.89543,631 1333,631 L1457,631 Z M1649,611 C1650.10457,611 1651,611.895431 1651,613 C1651,614.104569 1650.10457,615 1649,615 L1333,615 C1331.89543,615 1331,614.104569 1331,613 C1331,611.895431 1331.89543,611 1333,611 L1649,611 Z M1649,591 C1650.10457,591 1651,591.895431 1651,593 C1651,594.104569 1650.10457,595 1649,595 L1333,595 C1331.89543,595 1331,594.104569 1331,593 C1331,591.895431 1331.89543,591 1333,591 L1649,591 Z M1649,571 C1650.10457,571 1651,571.895431 1651,573 C1651,574.104569 1650.10457,575 1649,575 L1333,575 C1331.89543,575 1331,574.104569 1331,573 C1331,571.895431 1331.89543,571 1333,571 L1649,571 Z M1649,551 C1650.10457,551 1651,551.895431 1651,553 C1651,554.104569 1650.10457,555 1649,555 L1333,555 C1331.89543,555 1331,554.104569 1331,553 C1331,551.895431 1331.89543,551 1333,551 L1649,551 Z M1649,531 C1650.10457,531 1651,531.895431 1651,533 C1651,534.104569 1650.10457,535 1649,535 L1333,535 C1331.89543,535 1331,534.104569 1331,533 C1331,531.895431 1331.89543,531 1333,531 L1649,531 Z M1485,511 C1486.10457,511 1487,511.895431 1487,513 C1487,514.104569 1486.10457,515 1485,515 L1333,515 C1331.89543,515 1331,514.104569 1331,513 C1331,511.895431 1331.89543,511 1333,511 L1485,511 Z" id="Combined-Shape" fill="#424874"></path>
        <path d="M1212,951 C1212.55228,951 1213,951.447715 1213,952 L1213,958 C1213,958.552285 1212.55228,959 1212,959 C1211.44772,959 1211,958.552285 1211,958 L1211,952 C1211,951.447715 1211.44772,951 1212,951 Z M1226,949 C1226.55228,949 1227,949.447715 1227,950 L1227,956 C1227,956.552285 1226.55228,957 1226,957 C1225.44772,957 1225,956.552285 1225,956 L1225,950 C1225,949.447715 1225.44772,949 1226,949 Z M1245,945 C1245.55228,945 1246,945.447715 1246,946 L1246,952 C1246,952.552285 1245.55228,953 1245,953 C1244.44772,953 1244,952.552285 1244,952 L1244,946 C1244,945.447715 1244.44772,945 1245,945 Z M1220,939 C1220.55228,939 1221,939.447715 1221,940 L1221,946 C1221,946.552285 1220.55228,947 1220,947 C1219.44772,947 1219,946.552285 1219,946 L1219,940 C1219,939.447715 1219.44772,939 1220,939 Z M1234,931 C1234.55228,931 1235,931.447715 1235,932 L1235,938 C1235,938.552285 1234.55228,939 1234,939 C1233.44772,939 1233,938.552285 1233,938 L1233,932 C1233,931.447715 1233.44772,931 1234,931 Z M1248,929 C1248.55228,929 1249,929.447715 1249,930 L1249,936 C1249,936.552285 1248.55228,937 1248,937 C1247.44772,937 1247,936.552285 1247,936 L1247,930 C1247,929.447715 1247.44772,929 1248,929 Z M1238,921 C1238.55228,921 1239,921.447715 1239,922 L1239,928 C1239,928.552285 1238.55228,929 1238,929 C1237.44772,929 1237,928.552285 1237,928 L1237,922 C1237,921.447715 1237.44772,921 1238,921 Z M1253,902 C1253.55228,902 1254,902.447715 1254,903 L1254,909 C1254,909.552285 1253.55228,910 1253,910 C1252.44772,910 1252,909.552285 1252,909 L1252,903 C1252,902.447715 1252.44772,902 1253,902 Z" id="Combined-Shape" fill="#424874"></path>
    </g>
</svg>