<?xml version="1.0" encoding="UTF-8"?>
<svg width="1839px" height="1024px" viewBox="0 0 1839 1024" version="1.1" xmlns="http://www.w3.org/2000/svg" xmlns:xlink="http://www.w3.org/1999/xlink">
    <!-- Generator: Sketch 63.1 (92452) - https://sketch.com -->
    <title>figure3-dark</title>
    <desc>Created with Sketch.</desc>
    <g id="figure3-dark" stroke="none" stroke-width="1" fill="none" fill-rule="evenodd">
        <g id="stand" transform="translate(933.831915, 955.000000)" stroke="#F4EEFF" stroke-linecap="round" stroke-linejoin="round" stroke-width="4">
            <path d="M0.168085489,16 C-0.0783179506,21.3654089 -0.0538116788,25.3623694 0.241604304,27.9908813 C0.26863086,28.2313544 0.304028508,28.4725075 0.347682721,28.7141615 C1.48944558,35.0345478 8.27926363,41.6975554 18.6680855,45.5 C35.9666644,51.831506 65.6680855,55 82.6680855,45.5 C84.8644982,44.2725929 86.5074952,42.8839049 87.6526386,41.3784593" id="Path-3"></path>
            <path d="M16.0079838,2.43413218 C12.8339155,3.37763875 9.82332283,4.62161453 7.04882748,6.21057808" id="Path-3-Copy"></path>
            <path d="M49.31835,1.17794897 C44.5300122,0.448016017 39.6081482,0.0166668576 34.7429168,0.000472897112" id="Path-3-Copy-3"></path>
            <path d="M0.793522311,12.686702 C-0.733072192,16.6523246 0.593019186,21.1939599 4.13753116,25.3200911 C7.33153365,29.0381977 12.3269002,32.4189138 18.6595353,34.736741 C35.9581142,41.068247 65.6595353,44.236741 82.6595353,34.736741 C94.7687102,27.9698491 90.5205957,15.9289651 75.8914938,8.74870718" id="Path-3-Copy-2"></path>
        </g>
        <g id="flag" transform="translate(1550.000000, 846.000000)" stroke="#F4EEFF" stroke-linecap="round" stroke-linejoin="round" stroke-width="4">
            <path d="M0.168085489,139 C-0.0783179506,144.365409 -0.0538116788,148.362369 0.241604304,150.990881 C0.26863086,151.231354 0.304028508,151.472508 0.347682721,151.714161 C1.48944558,158.034548 8.27926363,164.697555 18.6680855,168.5 C35.9666644,174.831506 65.6680855,178 82.6680855,168.5 C84.8644982,167.272593 86.5074952,165.883905 87.6526386,164.378459" id="Path-3"></path>
            <path d="M0.793522311,135.686702 C-0.733072192,139.652325 0.593019186,144.19396 4.13753116,148.320091 C7.33153365,152.038198 12.3269002,155.418914 18.6595353,157.736741 C35.9581142,164.068247 65.6595353,167.236741 82.6595353,157.736741 C95.9887837,150.288043 89.4984929,136.449039 71.1595353,129.736741 C70.7984067,129.604563 70.4332755,129.473326 70.0643019,129.343126 C52.0015841,122.96936 24.7306596,119.084129 7.04882748,129.210578" id="Path-3-Copy"></path>
            <path d="M44.6680855,143.5 L45.1680855,0.5 L54.864325,11.2980849 C61.6672856,18.8741092 73.3154742,19.5232355 80.9180855,12.75 C89.016689,5.53488054 100.965794,4.69847242 109.99058,10.7149965 L117.168085,15.5 L117.168085,15.5 L117.168085,60.5 L109.041183,54.9014674 C100.48828,49.0094671 89.1002065,49.3530691 80.9180855,55.75 C73.3073511,61.7002105 62.3218492,60.3973321 56.3140595,52.8319672 L53.6680855,49.5 L53.6680855,49.5" id="Path-2"></path>
        </g>
        <g id="flag" transform="translate(1549.000000, 393.000000)" stroke="#F0EAFB" stroke-linecap="round" stroke-linejoin="round" stroke-width="4">
            <path d="M0.168085489,151 C-0.0783179506,156.365409 -0.0538116788,160.362369 0.241604304,162.990881 C0.26863086,163.231354 0.304028508,163.472508 0.347682721,163.714161 C1.48944558,170.034548 8.27926363,176.697555 18.6680855,180.5 C35.9666644,186.831506 65.6680855,190 82.6680855,180.5 C84.8644982,179.272593 86.5074952,177.883905 87.6526386,176.378459" id="Path-3"></path>
            <path d="M0.793522311,147.686702 C-0.733072192,151.652325 0.593019186,156.19396 4.13753116,160.320091 C7.33153365,164.038198 12.3269002,167.418914 18.6595353,169.736741 C35.9581142,176.068247 65.6595353,179.236741 82.6595353,169.736741 C95.9887837,162.288043 89.4984929,148.449039 71.1595353,141.736741 C70.7984067,141.604563 70.4332755,141.473326 70.0643019,141.343126 C52.0015841,134.96936 24.7306596,131.084129 7.04882748,141.210578" id="Path-3-Copy"></path>
            <path d="M44.6680855,155.5 L45.1680855,12.5 L56.9438907,7.80199263 C68.8971466,3.03319057 82.5259546,5.53999056 92,14.25 C101.062925,22.5820438 114.689277,23.5228082 124.811246,16.515291 L133.5,10.5 L133.5,10.5 L134,59 L125.913719,64.6451394 C115.320931,72.0401046 100.916624,70.5980737 92,61.25 C83.1836404,52.0070424 68.8180088,50.8954816 58.6847293,58.6721845 L55,61.5 L55,61.5" id="Path-2"></path>
        </g>
        <g id="path" transform="translate(1025.795263, 562.500000)" stroke="#A6B1E1" stroke-dasharray="16,16" stroke-linecap="round" stroke-linejoin="round" stroke-width="5">
            <path d="M626.851209,21.1947352 L704.420313,51.0095696 C713.453365,54.4815572 723.57242,53.6792401 731.945476,48.8271615 L816.204737,0 L816.204737,0" id="Path-4"></path>
            <path d="M558.784072,166.116101 L402.069906,106.532069 C397.940058,104.961867 395.865055,100.341063 397.435258,96.2112146 C398.095633,94.4743376 399.340031,93.0215119 400.954832,92.1021358 L523.204737,22.5 L523.204737,22.5" id="Path-4-Copy-3"></path>
            <path d="M540.054325,330.975259 L416.198556,283.00133 C412.078545,281.405497 410.032294,276.771889 411.628127,272.651877 C412.282879,270.961485 413.49232,269.543579 415.05831,268.630452 L557.020017,185.852781 L557.020017,185.852781" id="Path-4-Copy-4"></path>
            <path d="M613.704737,414.5 L655.251433,389.422265 C659.034048,387.139065 660.249564,382.22175 657.966364,378.439135 C657.051083,376.922773 655.658461,375.753025 654.006845,375.113293 L596.196268,352.721114 L596.196268,352.721114" id="Path-4-Copy-2"></path>
            <path d="M1.42108547e-13,396.924139 L168.920358,299.186377 C177.318616,294.327123 187.468029,293.540728 196.514566,297.048328 L508.708469,418.094789 L508.708469,418.094789" id="Path-4-Copy"></path>
        </g>
        <path d="M1388.5,595 L1347.56178,618.39327 C1342.57658,621.241956 1339.5,626.543451 1339.5,632.285161 L1339.5,801.284549 C1339.5,805.702827 1343.08172,809.284549 1347.5,809.284549 C1348.88022,809.284549 1350.23696,808.927459 1351.43834,808.247989 L1392.37668,785.094338 C1397.39647,782.255276 1400.5,776.934485 1400.5,771.167459 L1400.5,603.075444 C1400.5,593.099165 1394.32843,584.163191 1384.99856,580.630523 L1256.67022,532.040181 C1249.91878,529.483812 1242.37526,530.102347 1236.13043,533.724353 L1185.31825,563.195418 C1181.4963,565.412148 1180.19501,570.307464 1182.41174,574.129412 C1183.31713,575.690435 1184.72371,576.899492 1186.403,577.560195 L1308.28698,625.514551 C1317.46545,629.125752 1323.5,637.984814 1323.5,647.848134 L1323.5,807.88331 C1323.5,814.510727 1318.12742,819.88331 1311.5,819.88331 C1309.99623,819.88331 1308.50586,819.600667 1307.10651,819.050102 L1186.16777,771.467649 C1177.01188,767.86533 1170.9821,759.039569 1170.95485,749.200548 L1170.5,585 L1170.5,585" id="obstacle" stroke="#424874" stroke-width="4" stroke-linecap="round" stroke-linejoin="round"></path>
        <g id="obstacle" transform="translate(1590.500000, 627.000000)" stroke="#424874">
            <path d="" id="Path-9"></path>
            <path d="M202.5,149 L214.58431,141.824941 C217.011894,140.383563 218.5,137.769351 218.5,134.946103 L218.5,101.977837 C218.5,98.675891 216.471349,95.7131866 213.392841,94.5191861 L111.5,55 L111.5,55 L181.5,82 L181.5,66.753127 C181.5,61.7821381 178.435095,57.325783 173.793117,55.5473631 L109.931039,31.0807228 C107.868115,30.2903817 105.555086,31.3220141 104.764745,33.3849383 C104.589733,33.8417494 104.5,34.3267887 104.5,34.8159774 L104.5,42.7037021 C104.5,48.451367 101.417092,53.7574063 96.4237555,56.6038495 L9.07624447,106.39615 C4.08290766,109.242594 1,114.548633 1,120.296298 L1,148.48107 C1,151.803416 3.05343648,154.779987 6.15927112,155.959723 L189.079636,225.441102 C191.144809,226.225547 193.454881,225.187313 194.239327,223.12214 C194.41167,222.66842 194.5,222.187124 194.5,221.701775 L194.5,210.002085 C194.5,206.688092 192.45673,203.717189 189.362078,202.531575 L125.904323,178.219838 C120.842266,176.280479 117.5,171.420842 117.5,166 L117.5,161.615705 C117.5,158.75924 119.023035,156.119495 121.495976,154.689826 C152.163984,136.959884 182.831992,119.229942 213.5,101.5 C213.5,101.5 213.5,113.166667 213.5,136.5 L180,157 L180,136.5 C178.291373,142.480194 181.346606,148.789779 187.097637,151.157851 L245,175 L245,175 L245,198 L202.5,222.5 L202.5,201 L238,181" id="Path-10" stroke-width="4" stroke-linecap="round" stroke-linejoin="round"></path>
            <line x1="7.5" y1="114.5" x2="109.5" y2="152" id="Path-11" stroke-width="4" stroke-linecap="round" stroke-linejoin="round"></line>
            <path d="M114.5,23.5 L144.641047,5.79213486 C150.87784,2.1280188 158.434573,1.47229169 165.209292,4.00734808 L224.112419,26.0485179 C226.181448,26.8227353 227.2311,29.1276423 226.456883,31.1966716 C226.134129,32.0592028 225.523634,32.783944 224.72847,33.2485342 L187.5,55 L187.5,55 L225.982104,32.5160743 C227.889533,31.4016209 230.339254,32.0444553 231.453707,33.9518852 C231.811463,34.5641982 232,35.2606155 232,35.9697816 L232,90.3212201 C232,93.2114066 230.441106,95.876878 227.92209,97.2938244 L224,99.5 L224,99.5" id="Path-14" stroke-width="4" stroke-linecap="round" stroke-linejoin="round"></path>
        </g>
        <g id="dude" transform="translate(903.282815, 814.000000)" stroke="#F4EEFF" stroke-linecap="round" stroke-linejoin="round" stroke-width="4">
            <path d="M90.7171848,40 C98.1730289,40 104.217185,33.9558441 104.217185,26.5 L104.217185,21 C104.217185,14.0964406 98.6207442,8.5 91.7171848,8.5 C85.2013201,8.5 79.4893995,12.8556249 77.7650472,19.1391829 C75.8365671,26.1666658 71.9872797,33.1202715 66.2171848,40 C59.9426299,47.4812001 58.2107718,59.1556589 61.0216107,75.0233763 C63.7520212,90.4370627 62.8257616,106.276482 58.317378,121.266858 L46.2171848,161.5 L46.2171848,161.5 C58.8838515,138.5 68.5505182,121.833333 75.2171848,111.5 C81.8838515,110.5 89.8838515,130.666667 99.2171848,172 C102.550518,144 97.8838515,107 85.2171848,61 C86.2040351,64.139978 87.2995406,67.6904316 88.5037014,71.6513608 C93.1185875,86.8313466 109.16549,95.3960747 124.345482,90.78121 C127.950552,89.6852338 131.304804,87.8907602 134.217185,85.5 L134.217185,85.5 L134.217185,85.5 L147.717185,65.5 L135.717185,62 L124.717185,76.5" id="Path-6"></path>
            <path d="M24.2171848,98 C24.9535645,100.209139 27.3413792,101.403046 29.5505182,100.666667 C30.8095474,100.24699 31.7975084,99.2590292 32.2171848,98 L32.2171848,98 L32.2171848,98 L16.2171848,161.5 C6.33332878,121.686338 0.999995442,100.519672 0.217184823,98 C-0.0871789877,97.020329 -0.0716401643,97.0262526 0.263801293,98.0177709 C1.00621724,100.212419 3.387206,101.38963 5.58183689,100.647163 C6.82634413,100.226132 7.80172545,99.2463781 8.21718482,98 L8.21718482,98 L8.21718482,98 C8.95356449,100.209139 11.3413792,101.403046 13.5505182,100.666667 C14.8095474,100.24699 15.7975084,99.2590292 16.2171848,98 L16.2171848,98 L16.2171848,98 L16.2171848,74.5 L16.7370032,74.5999651 C31.721101,77.4815223 46.7484289,69.819615 53.2171848,56 L53.2171848,56 L53.2171848,56" id="Path-8"></path>
            <path d="M16.2171848,66.5 C15.6856627,62.081722 11.6730568,58.9308838 7.25477881,59.462406 C3.56734292,59.9060073 0.660786133,62.8125641 0.217184823,66.5 L0.217184823,66.5 L0.217184823,66.5" id="Path-12"></path>
        </g>
        <g id="splash" transform="translate(903.500000, 936.000000)" stroke="#424874" stroke-width="2">
            <path d="M3,46.5 L2.72731283,46.818135 C1.73501303,47.9758181 1.86908269,49.7187236 3.02676579,50.7110234 C3.31124321,50.9548612 3.6423765,51.1382427 4,51.25 C5.2381892,51.6369341 5.92826778,52.9543569 5.54133366,54.1925461 C5.41229216,54.6054789 5.17171313,54.974751 4.84612894,55.2596372 L3.76288347,56.207477 C2.07832703,57.6814639 1.90762667,60.2419691 3.38161357,61.9265256 C3.56723852,62.1386684 3.7744891,62.3308668 4,62.5 C6.4280508,64.3210381 9.70604265,64.5251185 12.3412157,63.0193053 L14.1587843,61.9806947 C16.7939574,60.4748815 20.0719492,60.6789619 22.5,62.5 C25.0964426,64.4473319 28.2544468,65.5 31.5,65.5 L32,65.5 C32.8888002,65.5 33.6093152,64.7794851 33.6093152,63.8906848 C33.6093152,63.3419364 33.3297024,62.8310095 32.8675073,62.5352047 L29.0503535,60.0922262 C26.474262,58.4435277 24.7270123,55.7710782 24.25,52.75 L24.14541,52.0875966 C23.8770214,50.3878022 22.2814939,49.2274185 20.5816995,49.4958071 C20.2939466,49.5412418 20.0139872,49.626806 19.75,49.75 C17.4650329,50.816318 14.7681672,50.4529421 12.846915,48.8198778 L9.51236671,45.9855117 C7.57019681,44.3346673 4.65885575,44.5646683 3,46.5 Z" id="Path-7"></path>
            <path d="M6,32 C6,34.6666667 6,36.6666667 6,38" id="Path-13" stroke-linecap="round" stroke-linejoin="round"></path>
            <path d="M24,39 C24,41.6666667 24,43.6666667 24,45" id="Path-13-Copy" stroke-linecap="round" stroke-linejoin="round"></path>
            <path d="M30,8 C30,10.6666667 30,12.6666667 30,14" id="Path-13-Copy-2" stroke-linecap="round" stroke-linejoin="round"></path>
            <path d="M2,22 C2,24.6666667 2,26.6666667 2,28" id="Path-13-Copy-3" stroke-linecap="round" stroke-linejoin="round"></path>
            <path d="M1,0 C1,2.66666667 1,4.66666667 1,6" id="Path-13-Copy-4" stroke-linecap="round" stroke-linejoin="round"></path>
        </g>
    </g>
</svg>