<?xml version="1.0" encoding="UTF-8"?>
<svg width="2480px" height="1024px" viewBox="0 0 2480 1024" version="1.1" xmlns="http://www.w3.org/2000/svg" xmlns:xlink="http://www.w3.org/1999/xlink">
    <title>issue-banner</title>
    <g id="issue-banner" stroke="none" stroke-width="1" fill="none" fill-rule="evenodd">
        <g id="newspaper" transform="translate(418.000000, 209.000000)" stroke="#363062">
            <path d="M1260.83258,388.562013 C971.767335,508.257429 823.823142,569.736758 817,573 C805.5,578.5 798.5,586.5 798.5,594 C798.5,601.5 804.5,605 817,600.5 C826.454079,597.096532 1123.86886,472.455796 1272.18805,410.375357 M1287.57246,430.978341 C1148.4777,488.919435 839.64178,617.240612 817,627 C788,639.5 767.5,632 767.5,607 C767.5,582 784,561.5 817,547 C836.284333,538.526581 981.454452,478.317022 1252.51035,366.371323 C1255.04666,365.323833 1257.79058,364.190659 1260.7421,362.971803 M1251.12257,264.937584 L1251.12257,264.937584 L616.491118,2.30697803 C611.37223,0.188619981 605.623647,0.178780464 600.497537,2.27960277 C252.67831,144.825593 68.679131,220.399059 48.5,229 C18,242 0,263 0,289.5 C0,304.188827 6.98730232,312.434064 15.2436512,315.217032 C20.7478837,317.072344 264.333333,418 746,618" id="Shape" stroke-width="3" stroke-linecap="round" stroke-linejoin="round"></path>
            <path d="M930.486135,176.16001 L930.586605,176.228249 L930.659116,176.280548 L943.736243,186.308811 C944.114056,186.602997 944.368265,186.936199 944.468407,187.299513 C944.818344,188.56929 943.182802,189.828707 940.592651,190.481743 L821.361257,221.954162 C820.586277,222.166175 819.717526,222.32208 818.78498,222.404564 C814.928802,222.745333 811.442034,221.701513 810.997065,220.074069 C810.647128,218.794576 812.28267,217.535556 814.872821,216.890806 L927.180279,187.310241 L920.671111,182.311833 L785.667529,217.757925 L774.038964,224.159961 L792.737038,222.763313 C796.819711,222.456757 800.25074,223.560027 800.400456,225.228567 C800.550171,226.897676 797.36188,228.50046 793.279207,228.807455 L758.165625,231.424288 C755.184182,231.64454 752.550255,231.111623 751.287954,230.157382 L751.216658,230.101869 C749.933888,229.126104 750.201984,227.802357 752.152463,226.729115 L774.691124,214.334556 C774.851069,214.246646 775.018631,214.162437 775.192996,214.082006 C775.857254,213.667434 776.739703,213.313251 777.774524,213.0572 L920.659358,175.604803 L920.801845,175.566533 L920.933192,175.532594 L921.084743,175.492807 C921.860215,175.279755 922.729641,175.121982 923.66297,175.036764 C926.483637,174.779041 929.106655,175.255299 930.486135,176.16001 Z M816.30223,247.801171 C818.98789,248.908208 818.669338,250.85779 815.590725,252.155685 C812.512111,253.453581 807.839244,253.606594 805.153584,252.497449 L773.545266,239.443603 C770.859606,238.334458 771.178158,236.390431 774.256771,235.101497 C777.335385,233.812563 782.008252,233.665106 784.693912,234.772142 L816.30223,247.801171 Z M945.982579,210.008737 L938.939041,252.993111 C938.661181,254.696469 935.131715,256.200733 931.055758,256.351924 L827.733334,259.990053 C823.657377,260.125902 820.578411,258.85433 820.856271,257.150973 C821.134131,255.448197 824.663597,253.958552 828.739554,253.822703 L924.682266,250.456832 L931.222233,210.555195 C931.500093,208.867179 935.029559,207.377534 939.105516,207.226925 C943.181473,207.075733 946.260439,208.320721 945.982579,210.008737 Z M839.143729,166.791805 C838.865869,168.464024 835.336403,169.929767 831.260446,170.064579 L735.317734,173.069727 L728.777767,212.610648 C728.499907,214.297627 724.970441,215.76337 720.894484,215.883422 C716.818527,216.002892 713.739561,214.731321 714.017421,213.044342 L721.060959,170.47516 C721.338819,168.803523 724.868285,167.352399 728.944242,167.232929 L832.266666,164.009993 C836.342623,163.87518 839.421589,165.120168 839.143729,166.791805 Z" id="Shape-Copy" stroke-width="2" fill="#363062" transform="translate(830.000000, 212.000000) rotate(-1.000000) translate(-830.000000, -212.000000) "></path>
            <path d="M607.5,224.5 L792.085754,300.534028 C793.930916,301.294082 794.81057,303.406026 794.050516,305.251188 C793.671456,306.171423 792.929613,306.89456 792,307.25 C786.542922,309.33653 780.492832,309.247013 775.099873,306.999947 L599.560423,233.858509 C594.411721,231.713217 588.610106,231.764328 583.5,234 C581.627186,234.819356 580.773189,237.001792 581.592545,238.874606 C581.977568,239.754657 582.689644,240.450555 583.57831,240.815254 L759.709282,313.097575 C761.620026,313.881725 762.533311,316.066368 761.749162,317.977112 C761.375188,318.888377 760.65679,319.615301 759.75,320 C754.472419,322.238974 748.516774,322.264758 743.220004,320.071564 L567.692546,247.392226 C562.437154,245.216166 556.542247,245.165175 551.25,247.25 C549.418728,247.97141 548.519007,250.040768 549.240417,251.87204 C549.596404,252.775698 550.305786,253.494919 551.204456,253.863317 L607.688944,277.018449 C611.115157,278.422984 612.754052,282.339079 611.349517,285.765292 C610.641852,287.491565 609.246902,288.844912 607.5,289.5 L607.5,289.5 L607.5,289.5" id="Path-4" stroke-width="3" stroke-linecap="round"></path>
            <path d="M1055.5,237.5 L968.444987,273.31951 C966.402025,274.160104 965.427312,276.497689 966.267906,278.540652 C966.67218,279.523191 967.45074,280.304526 968.431835,280.712294 L1110.21973,339.642886 C1116.15682,342.110489 1122.83575,342.092732 1128.75963,339.593592 L1206.61655,306.747707 C1208.65197,305.889013 1209.60589,303.54287 1208.7472,301.507448 C1208.33544,300.53143 1207.55334,299.758599 1206.57248,299.358512 L1063.5,241 L1063.5,241" id="Path-6" stroke-width="3" fill-opacity="0.35" fill="#363062" stroke-linecap="round"></path>
            <path d="M352,146 L232.652267,193.367583 C230.598937,194.182523 229.595023,196.507717 230.409964,198.561047 C230.808309,199.564721 231.595527,200.364704 232.592665,200.779139 L374.410539,259.722193 C380.234768,262.142888 386.777815,262.173569 392.624489,259.8076 L502.873544,215.193196 C504.921364,214.364506 505.909664,212.032634 505.080974,209.984814 C504.675958,208.983956 503.883536,208.189337 502.883803,207.781551 L360,149.5 L360,149.5" id="Path-6-Copy-2" stroke-width="3" fill-opacity="0.35" fill="#363062" stroke-linecap="round"></path>
            <path d="M783,363 L712.39438,392.307993 C710.354038,393.154928 709.38659,395.495528 710.233524,397.53587 C710.639198,398.513174 711.415589,399.289917 712.392708,399.696032 L854.155689,458.616271 C860.130539,461.099568 866.85496,461.065174 872.804095,458.52089 L934.196209,432.265143 C936.227388,431.396463 937.16978,429.045662 936.301099,427.014483 C935.887229,426.046756 935.108618,425.281147 934.134059,424.883629 L791,366.5 L791,366.5" id="Path-6-Copy" stroke-width="3" fill-opacity="0.35" fill="#363062" stroke-linecap="round"></path>
            <path d="M943.5,283.5 L1095.42769,346.170171 C1097.32218,346.951648 1098.22445,349.120949 1097.44298,351.01544 C1097.07664,351.903535 1096.38014,352.614939 1095.5,353 C1090.38788,355.236554 1084.58602,355.297983 1079.42769,353.170171 L935.26886,293.704655 C930.296108,291.653394 924.71068,291.669715 919.75,293.75 C917.966989,294.497714 917.127715,296.549272 917.875429,298.332283 C918.232608,299.184018 918.911898,299.860096 919.765316,300.213234 L1063.52115,359.698408 C1065.32793,360.44604 1066.18654,362.516798 1065.43891,364.323575 C1065.07651,365.199357 1064.3781,365.89327 1063.5,366.25 C1058.37315,368.332784 1052.63314,368.317421 1047.51751,366.207223 L903.26886,306.704655 C898.296108,304.653394 892.71068,304.669715 887.75,306.75 C885.966989,307.497714 885.127715,309.549272 885.875429,311.332283 C886.232608,312.184018 886.911898,312.860096 887.765316,313.213234 L1031.52115,372.698408 C1033.32793,373.44604 1034.18654,375.516798 1033.43891,377.323575 C1033.07651,378.199357 1032.3781,378.89327 1031.5,379.25 C1026.37315,381.332784 1020.63314,381.317421 1015.51751,379.207223 L871.572313,319.829829 C866.413982,317.702017 860.612122,317.763446 855.5,320 C853.616513,320.824026 852.75765,323.018898 853.581675,324.902385 C853.96678,325.782625 854.677321,326.47987 855.564677,326.848281 L945.007104,363.98286 C948.324733,365.360268 949.897592,369.166348 948.520184,372.483976 C947.85913,374.076191 946.592995,375.34083 945,376 L945,376 L945,376" id="Path-7" stroke-width="3" stroke-linecap="round"></path>
            <path d="M608,53 L759.927687,115.670171 C761.822178,116.451648 762.724453,118.620949 761.942976,120.51544 C761.576637,121.403535 760.88014,122.114939 760,122.5 C754.887878,124.736554 749.086018,124.797983 743.927687,122.670171 L599.76886,63.2046548 C594.796108,61.1533944 589.21068,61.1697147 584.25,63.25 C582.466989,63.9977143 581.627715,66.0492725 582.375429,67.8322835 C582.732608,68.6840176 583.411898,69.3600959 584.265316,69.7132341 L728.021153,129.198408 C729.82793,129.94604 730.686537,132.016798 729.938905,133.823575 C729.576513,134.699357 728.878104,135.39327 728,135.75 C722.873147,137.832784 717.133142,137.817421 712.017511,135.707223 L567.76886,76.2046548 C562.796108,74.1533944 557.21068,74.1697147 552.25,76.25 C550.466989,76.9977143 549.627715,79.0492725 550.375429,80.8322835 C550.732608,81.6840176 551.411898,82.3600959 552.265316,82.7132341 L696.021153,142.198408 C697.82793,142.94604 698.686537,145.016798 697.938905,146.823575 C697.576513,147.699357 696.878104,148.39327 696,148.75 C690.873147,150.832784 685.133142,150.817421 680.017511,148.707223 L536.072313,89.3298291 C530.913982,87.2020174 525.112122,87.2634465 520,89.5 C518.122038,90.3216083 517.265694,92.5100424 518.087303,94.3880042 C518.472367,95.2681519 519.183707,95.9647045 520.071748,96.3311977 L662.671979,155.182087 C664.287783,155.848926 665.057071,157.699375 664.390231,159.315179 C664.08013,160.066578 663.492814,160.669861 662.75,161 C658.439206,162.915908 653.531949,162.983287 649.170178,161.186457 L505.713634,102.089579 C500.125988,99.7877496 493.860966,99.7556134 488.25,102 C486.277482,102.789007 485.318056,105.027666 486.107064,107.000185 C486.491072,107.960206 487.245397,108.725213 488.199924,109.122681 L630.756699,168.483862 C632.417242,169.175318 633.202841,171.08199 632.511385,172.742533 C632.179991,173.538382 631.546585,174.170379 630.75,174.5 C626.104335,176.422344 620.88876,176.439184 616.230779,174.546879 L470.555759,115.366402 C466.040657,113.532142 460.979421,113.580248 456.5,115.5 C454.848694,116.207703 454.083752,118.120057 454.791454,119.771364 C455.121565,120.541622 455.736201,121.154768 456.507257,121.483009 L559.797967,165.454154 C563.287225,166.939541 564.911683,170.972288 563.426296,174.461546 C562.761086,176.024163 561.540387,177.28482 560,178 L560,178 L560,178" id="Path-7-Copy" stroke-width="3" stroke-linecap="round"></path>
            <path d="M495.5,271 L647.427687,333.670171 C649.322178,334.451648 650.224453,336.620949 649.442976,338.51544 C649.076637,339.403535 648.38014,340.114939 647.5,340.5 C642.387878,342.736554 636.586018,342.797983 631.427687,340.670171 L487.26886,281.204655 C482.296108,279.153394 476.71068,279.169715 471.75,281.25 C469.966989,281.997714 469.127715,284.049272 469.875429,285.832283 C470.232608,286.684018 470.911898,287.360096 471.765316,287.713234 L615.521153,347.198408 C617.32793,347.94604 618.186537,350.016798 617.438905,351.823575 C617.076513,352.699357 616.378104,353.39327 615.5,353.75 C610.373147,355.832784 604.633142,355.817421 599.517511,353.707223 L455.26886,294.204655 C450.296108,292.153394 444.71068,292.169715 439.75,294.25 C437.966989,294.997714 437.127715,297.049272 437.875429,298.832283 C438.232608,299.684018 438.911898,300.360096 439.765316,300.713234 L583.521153,360.198408 C585.32793,360.94604 586.186537,363.016798 585.438905,364.823575 C585.076513,365.699357 584.378104,366.39327 583.5,366.75 C578.373147,368.832784 572.633142,368.817421 567.517511,366.707223 L423.572313,307.329829 C418.413982,305.202017 412.612122,305.263446 407.5,307.5 C405.622038,308.321608 404.765694,310.510042 405.587303,312.388004 C405.972367,313.268152 406.683707,313.964705 407.571748,314.331198 L550.171979,373.182087 C551.787783,373.848926 552.557071,375.699375 551.890231,377.315179 C551.58013,378.066578 550.992814,378.669861 550.25,379 C545.939206,380.915908 541.031949,380.983287 536.670178,379.186457 L393.213634,320.089579 C387.625988,317.78775 381.360966,317.755613 375.75,320 C373.777482,320.789007 372.818056,323.027666 373.607064,325.000185 C373.991072,325.960206 374.745397,326.725213 375.699924,327.122681 L518.256699,386.483862 C519.917242,387.175318 520.702841,389.08199 520.011385,390.742533 C519.679991,391.538382 519.046585,392.170379 518.25,392.5 C513.604335,394.422344 508.38876,394.439184 503.730779,392.546879 L358.055759,333.366402 C353.540657,331.532142 348.479421,331.580248 344,333.5 C342.348694,334.207703 341.583752,336.120057 342.291454,337.771364 C342.621565,338.541622 343.236201,339.154768 344.007257,339.483009 L447.297967,383.454154 C450.787225,384.939541 452.411683,388.972288 450.926296,392.461546 C450.261086,394.024163 449.040387,395.28482 447.5,396 L447.5,396 L447.5,396" id="Path-7-Copy-2" stroke-width="3" stroke-linecap="round"></path>
            <path d="M687.5,402.5 L839.436598,465.648649 C841.336014,466.438093 842.235824,468.617846 841.446379,470.517261 C841.077624,471.404493 840.380255,472.114888 839.5,472.5 C834.392419,474.734567 828.591142,474.772826 823.454533,472.605819 L679.334982,411.805383 C674.33941,409.697876 668.691388,409.768405 663.75,412 C661.891703,412.839231 661.065587,415.026009 661.904818,416.884306 C662.290057,417.737336 662.984912,418.412205 663.848819,418.772391 L807.530009,478.677088 C809.341658,479.432415 810.197976,481.51336 809.442649,483.325009 C809.077794,484.200112 808.378398,484.893151 807.5,485.25 C802.373147,487.332784 796.633142,487.317421 791.517511,485.207223 L654.864881,428.838014 C645.001075,424.769194 633.950548,424.648175 624,428.5 L624,428.5 L624,428.5" id="Path-8" stroke-width="3" stroke-linecap="round"></path>
            <path d="M207.5,205 L359.790258,267.149607 C361.608448,267.89161 362.480871,269.967056 361.738868,271.785247 C361.371985,272.68425 360.653412,273.394111 359.75,273.75 C354.457013,275.835116 348.56196,275.788058 343.302935,273.618711 L199.482489,214.292777 C194.366858,212.182579 188.626853,212.167216 183.5,214.25 C181.694116,214.98364 180.824891,217.042332 181.558531,218.848216 C181.915157,219.726064 182.609779,220.423647 183.486101,220.784004 L327.711687,280.091722 C329.623774,280.878001 330.536423,283.065459 329.750144,284.977547 C329.375502,285.888607 328.656848,286.615276 327.75,287 C322.475122,289.237827 316.519883,289.249667 311.236148,287.032832 L169.391486,227.520718 C164.00545,225.260962 157.955685,225.164003 152.5,227.25 C150.628461,227.965588 149.691378,230.06287 150.406966,231.934409 C150.762596,232.864518 151.484894,233.607568 152.40456,233.989393 L256,277 L256,277" id="Path-9" stroke-width="3"></path>
        </g>
        <g id="cup" transform="translate(1688.000000, 341.000000)" stroke="#363062" stroke-linecap="round" stroke-width="3">
            <path d="M236.676244,354.312847 C233.559559,361.428028 226.363982,368.056372 214.975365,372.902592 C183.240566,386.406762 119.800365,386.402592 88.0753653,372.902592 C76.4757186,367.966572 69.1172635,361.22579 66,354" id="Path"></path>
            <path d="M-2.27373675e-13,61.7551269 C0.112289182,44.8666923 13.4433066,28.0016749 39.9944328,16.742653 C93.3194328,-5.86984701 201.336741,-5.29003932 253.294433,16.742653 C305.252125,38.7753453 306.635904,84.5731684 253.294433,107.192653 C199.952962,129.812138 93.3194328,129.805153 39.9944328,107.192653 C28.5575808,102.342849 19.5736417,96.452885 13.0426157,89.9689373" id="Path"></path>
            <path d="M12.715396,66.2936775 C19.2724581,59.6806276 28.3654317,53.6739383 39.9944328,48.742653 C93.3194328,26.130153 201.336741,26.7099607 253.294433,48.742653 C262.537029,52.6619817 270.179276,57.3333288 276.197805,62.4924488" id="Path"></path>
            <path d="M141.493962,78.1168122 C153.140771,77.5688937 165.553333,78.9526805 173.15419,82.1804496 C179.906191,85.0477449 183.23276,89.526989 182.987348,93.9586241 C182.761903,98.0297084 179.522054,102.060615 173.15419,104.764783 M153.573595,108.764526 C146.107222,109.272466 138.185037,108.958619 131.282344,107.823276 C127.003236,107.119456 123.115917,106.099935 119.971858,104.764783 C117.120294,103.553843 114.880318,102.083186 113.25193,100.464218" id="Shape"></path>
            <path d="M199.30838,71.3608992 C225.217721,82.3635233 225.907759,105.233912 199.30838,116.529567 M92.9437151,116.529567 C87.2405884,114.107685 82.7606368,111.166372 79.5038605,107.928436" id="Shape"></path>
            <path d="M48.7284593,69.7824761 C53.2815348,65.9726062 59.0560913,62.4987907 66.0521734,59.5413487 C79.5781721,53.8235261 97.7871999,50.0853524 117.478048,48.2767078" id="Shape"></path>
            <path d="M0.169432828,61.967653 C0.387843954,150.068494 -7.93056717,358.967653 146.644433,365.717653 C249.694433,370.217653 297.394433,286.742653 289.744433,115.292653" id="Path"></path>
            <path d="M289.744433,239.492653 C324.041316,239.492653 351.844433,211.689536 351.844433,177.392653 C351.844433,143.09577 324.041316,115.292653 289.744433,115.292653" id="Path"></path>
            <path d="M289.744433,261.092653 C335.970666,261.092653 373.444433,223.618887 373.444433,177.392653 C373.444433,131.166419 335.970666,93.692653 289.744433,93.692653" id="Path"></path>
        </g>
        <g id="table" transform="translate(96.000000, 255.500000)" stroke="#CDCCD8" stroke-width="3">
            <path d="M0,0.5 L140,0.5 M198.5,0.5 L230,0.5 M278,0.5 L299.5,0.5 M373.5,0.5 L576,0.5 M603.5,0.5 L760.5,0.5 M1105,0.5 L1732.5,0.5 M1788,0.5 L1921,0.5 M2046,0.5 L2130.5,0.5 M2152.5,0.5 L2196,0.5 M2208.5,0.5 L2222,0.5 M2241,0.5 L2288,0.5" id="Shape" stroke-linecap="round"></path>
            <path d="M0,128.5 L6,128.5 M81,128.5 L146.5,128.5 M193,128.5 L265,128.5 M287.5,128.5 L435,128.5 M1400.5,128.5 L1482,128.5 M1531,128.5 L1567,128.5 M1578,128.5 L1586.5,128.5 M2243.5,129 L2288,128.5" id="Shape" stroke-linecap="round"></path>
            <path d="M0,256.5 L6.5,256.5 M12.5,256.5 L19,256.5 M26,256.5 L291,256.5 M1901,256.5 L1920,256.5 M1999,256.5 L2252,256.5 M2262,256.5 L2288,256.5" id="Shape" stroke-linecap="round"></path>
            <path d="M0,448.5 L277.5,448.5 M305.5,448.5 L393.5,448.5 M426.5,448.5 L448,448.5 M474,448.5 L600,448.5 M656.5,448.5 L698.5,448.5 M1505.5,448.5 L1611,448.5 M1850,448.5 L1986.5,448.5 M2028.5,448.5 L2142.5,448.5 M2214.5,448.5 L2288,448.5" id="Shape" stroke-linecap="round"></path>
            <path d="M0,64.5 L106.5,64.5 M118,64.5 L131,64.5 M145,64.5 L353,64.5 M393,64.5 L563.5,64.5 M575,64.5 L584.5,64.5 M1240,64.5 L1585.5,64.5 M1616.5,64.5 L1774,64.5 M2251,64.5 L2288,64.5" id="Shape" stroke-linecap="round"></path>
            <path d="M0,192.5 L34,192.5 M43,192.5 L94,192.5 M119.5,192.5 L131,192.5 M138,192.5 L147.5,192.5 M168,192.5 L177,192.5 M257.5,192.5 L314,192.5 M1542.5,192.5 L1563,192.5 M2225,192.5 L2288,192.5" id="Shape" stroke-linecap="round"></path>
            <path d="M0,384.5 L69,384.5 M98.5,384.5 L291,384.5 M308.5,384.5 L443.5,384.5 M461,384.5 L481,384.5 M499.5,384.5 L514,384.5 M530,384.5 L555.5,384.5 M1881.5,384.5 L1912,384.5 M1928.5,384.5 L1940,384.5 M1950,384.5 L1964.5,384.5 M1972,384.5 L2266,384.5 M2276,384.5 L2288,384.5" id="Shape" stroke-linecap="round"></path>
            <path d="M0,320.5 L297,320.5 M318,320.5 L400.5,320.5 M1995.5,320.5 L2096.5,320.5 M2121,320.5 L2188.5,320.5 M2205,320.5 L2288,320.5" id="Shape" stroke-linecap="square"></path>
            <path d="M0,512.5 L276.5,512.5 M360,512.5 L395,512.5 M442,512.5 L849.5,512.5 M1359,512.5 L1543,512.5 M1611,512.5 L1916,512.5 M1940.5,512.5 L1978.5,512.5 M2002,512.5 L2159,512.5 M2197,512.5 L2288,512.5" id="Shape" stroke-linecap="round"></path>
        </g>
        <g id="cig-n-ashtray" transform="translate(1924.000000, 461.000000)"></g>
        <g id="cig-n-ashtray" transform="translate(1875.000000, 210.000000)" stroke-width="3">
            <g id="ashtray" transform="translate(70.987190, 47.500000)">
                <path d="M33.0128095,22.5 C54.7837276,13.3454443 82.9460078,6.93719 113.755511,3.36206227 M133.977172,1.44839775 C146.93415,0.489455746 160.197315,0.00469422381 173.51281,0 M316.01281,22.5 C351.991987,37.6290535 370.143196,60.245394 369.759754,82.8352063 M316.01281,141.5 C281.745899,155.909054 232.510782,163.343618 182.635354,164.044685" id="Shape" stroke="#363062" stroke-linecap="round"></path>
                <path d="M65.0128095,36.5 C76.8236367,31.4035472 91.1240525,27.3541543 106.865191,24.3969599 M127.108227,21.2857299 C138.196771,19.933053 149.725887,19.0669195 161.391569,18.7004123 M284.01281,36.5 C310.904647,48.1040118 324.926362,65.2546951 325.585217,82.5757928 M288.780814,128.823129 C287.240387,129.567072 285.651087,130.293072 284.01281,131 C255.920592,143.121984 214.828646,149.028067 173.919549,148.948277 M61.1388898,129.246238 C36.2659175,117.436215 23.8696819,100.502577 23.9469309,83.5855902" id="Shape" stroke="#363062" stroke-linecap="round"></path>
                <path d="M325.416418,103.024746 C326.916764,115.182852 322.378414,127.250247 310.51281,138 M173.794698,172.262498 C132.993185,172.160929 92.3935846,166.103889 65.0753095,154.315866 C63.7210101,153.731477 62.4002107,153.132632 61.1129113,152.520046 M48.9463162,68.4391988 C53.6555629,65.3192679 59.031894,62.4236412 65.0753095,59.815866 M173.830812,42.093802 C215.13683,42.0229644 256.527925,47.9289808 284.07531,59.815866" id="Shape" stroke="#363062" stroke-linecap="round"></path>
                <path d="M21.5737336,51.2309607 C25.1737204,49.3351261 29.007579,47.5263252 33.0753095,45.815866 M173.64166,23.4977564 C210.046763,23.4398591 246.501522,26.8821071 277.295429,33.8268781 M369.766411,103.190301 C370.988923,125.54005 353.739549,148.347231 318.01281,164 M173.716769,187.416557 C151.002297,187.367211 128.333271,185.926133 107.061051,183.115853" id="Shape" stroke="#363062" stroke-linecap="round"></path>
                <path d="M64.3316942,76.221423 C71.7692914,73.0120489 80.2169554,70.2385256 89.4002996,67.9009066 M107.912803,63.9397318 C165.191708,53.7688764 240.778504,57.8594299 283.331694,76.221423 C303.671335,84.9981175 316.648426,96.9478704 322.049767,109.744474" id="Shape" stroke="#363062" stroke-linecap="round"></path>
                <path d="M369.831131,132.947057 C369.56151,154.85969 351.859878,176.768645 316.07531,191.815866 C265.617537,213.033092 182.70518,219.127988 113.08305,210.869972" id="Path" stroke="#363062" stroke-linecap="round"></path>
                <polyline id="Path" stroke="#363062" stroke-linecap="round" stroke-linejoin="round" points="51.1164154 134.06459 61.0128095 130 61.0128095 152.5 52.6888122 155.918785"></polyline>
                <polygon id="Path-13" stroke="#363062" stroke-linecap="round" stroke-linejoin="round" points="33.0128095 45.5 33.0128095 22.5 65.0128095 36.5 65.0128095 60"></polygon>
                <line x1="0.449508406" y1="83.7677648" x2="24.0128095" y2="83.5" id="Path-14" stroke="#363062" stroke-linecap="round" stroke-linejoin="round"></line>
                <line x1="173.51281" y1="0" x2="173.51281" y2="42" id="Path-24" stroke="#363062" stroke-linecap="round" stroke-linejoin="round"></line>
                <line x1="174.01281" y1="149" x2="173.51281" y2="187.5" id="Path-25" stroke="#363062"></line>
                <polyline id="Path-30" stroke="#352F61" stroke-linecap="round" stroke-linejoin="round" points="289.01281 129 317.51281 141 317.51281 164"></polyline>
                <polyline id="Path-31" stroke="#363062" stroke-linecap="round" stroke-linejoin="round" points="316.01281 22.5 284.01281 36.5 284.01281 59.5"></polyline>
                <polyline id="Path" stroke="#363062" stroke-linecap="round" stroke-linejoin="round" points="359.51281 103.5 325.51281 103.5 325.51281 82.5 370.01281 83 370.01281 103.5"></polyline>
                <line x1="370.01281" y1="102" x2="370.01281" y2="134" id="Path-33" stroke="#363062" stroke-linecap="round"></line>
            </g>
            <g id="cig-n-smoke" stroke="#363062" stroke-linecap="round">
                <g id="cigarette" transform="translate(97.500000, 124.000000) rotate(30.000000) translate(-97.500000, -124.000000) translate(-7.000000, 111.500000)">
                    <path d="M192.053755,6.54295369 C191.383284,8.29826765 191,10.3320026 191,12.5 C191,19.127417 194.581722,24.5 199,24.5 C201.309311,24.5 207.32213,21.7818649 208,18 C208.619061,14.5462316 204,10.1634499 204,7 C204,0.372583002 203.418278,0.499825305 199,0.499825305" id="Path"></path>
                    <path d="M56,0.5 C51.581722,0.5 48,5.872583 48,12.5 C48,14.764022 48.4179887,16.8816042 49.1445257,18.6885861" id="Path"></path>
                    <path d="M8,0.5 C3.581722,0.5 0,5.872583 0,12.5 C0,19.127417 3.581722,24.5 8,24.5" id="Path"></path>
                    <path d="M8,0.5 L199,0.5 M199,24.5 L116.647114,24.5 M89.5455173,24.5 L13,24.5" id="Shape"></path>
                </g>
                <path d="M184,144 C183.913242,123.785297 168,123.414023 168,105 C168,76 199.500258,76 199.500258,34.5 C199.500258,16.1666667 194.166838,4.66666667 183.5,0" id="Path-12"></path>
            </g>
        </g>
    </g>
</svg>